NotoSerifTamilSlanted-ExtraCondensedMedium.ufo
<glyph name="exclam" format="2">
  <advance width="293.7931034482759"/>
  <unicode hex="0021"/>
  <outline>
    <contour>
      <point x="118.06896551724137" y="210.68965517241378" type="line"/>
      <point x="166.82758620689654" y="210.68965517241378" type="line"/>
      <point x="312.62068965517244" y="714.0" type="line"/>
      <point x="194.20689655172413" y="714.0" type="line"/>
    </contour>
    <contour>
      <point x="112.72413793103449" y="-8.0" type="curve" smooth="yes"/>
      <point x="143.9310344827586" y="-8.0"/>
      <point x="177.68965517241378" y="13.551724137931034"/>
      <point x="177.68965517241378" y="73.48275862068967" type="curve" smooth="yes"/>
      <point x="177.68965517241378" y="112.9655172413793"/>
      <point x="154.75862068965517" y="132.51724137931035"/>
      <point x="122.27586206896551" y="132.51724137931035" type="curve" smooth="yes"/>
      <point x="83.51724137931035" y="132.51724137931035"/>
      <point x="56.86206896551724" y="99.41379310344827"/>
      <point x="56.86206896551724" y="51.58620689655172" type="curve" smooth="yes"/>
      <point x="56.86206896551724" y="12.931034482758621"/>
      <point x="79.51724137931035" y="-8.0"/>
    </contour>
  </outline>
</glyph>
<glyph name="quotedbl" format="2">
  <advance width="357.0344827586207"/>
  <unicode hex="0022"/>
  <outline>
    <contour>
      <point x="121.55172413793105" y="473.8965517241379" type="line"/>
      <point x="166.96551724137933" y="473.8965517241379" type="line"/>
      <point x="255.41379310344826" y="714.0" type="line"/>
      <point x="148.6551724137931" y="714.0" type="line"/>
    </contour>
    <contour>
      <point x="284.7241379310345" y="473.8965517241379" type="line"/>
      <point x="329.86206896551727" y="473.8965517241379" type="line"/>
      <point x="418.3103448275862" y="714.0" type="line"/>
      <point x="312.551724137931" y="714.0" type="line"/>
    </contour>
  </outline>
</glyph>
<glyph name="numbersign" format="2">
  <advance width="448.37931034482756"/>
  <unicode hex="0023"/>
  <outline>
    <contour>
      <point x="42.82758620689655" y="0.0" type="line"/>
      <point x="96.3103448275862" y="0.0" type="line"/>
      <point x="152.3103448275862" y="202.44827586206898" type="line"/>
      <point x="259.44827586206895" y="202.44827586206898" type="line"/>
      <point x="204.44827586206895" y="0.0" type="line"/>
      <point x="256.9310344827586" y="0.0" type="line"/>
      <point x="311.9310344827586" y="202.44827586206898" type="line"/>
      <point x="407.93103448275866" y="202.44827586206898" type="line"/>
      <point x="415.93103448275866" y="263.37931034482756" type="line"/>
      <point x="331.2068965517241" y="263.37931034482756" type="line"/>
      <point x="383.37931034482756" y="457.0689655172414" type="line"/>
      <point x="464.93103448275866" y="457.0689655172414" type="line"/>
      <point x="473.2068965517242" y="517.551724137931" type="line"/>
      <point x="401.2068965517241" y="517.551724137931" type="line"/>
      <point x="455.20689655172407" y="714.0" type="line"/>
      <point x="402.0" y="714.0" type="line"/>
      <point x="348.0" y="517.551724137931" type="line"/>
      <point x="240.8620689655172" y="517.551724137931" type="line"/>
      <point x="294.3103448275862" y="714.0" type="line"/>
      <point x="241.1034482758621" y="714.0" type="line"/>
      <point x="188.3793103448276" y="517.551724137931" type="line"/>
      <point x="94.37931034482759" y="517.551724137931" type="line"/>
      <point x="86.82758620689654" y="457.0689655172414" type="line"/>
      <point x="170.55172413793105" y="457.0689655172414" type="line"/>
      <point x="117.37931034482759" y="263.37931034482756" type="line"/>
      <point x="37.10344827586207" y="263.37931034482756" type="line"/>
      <point x="29.10344827586207" y="202.44827586206898" type="line"/>
      <point x="99.82758620689656" y="202.44827586206898" type="line"/>
    </contour>
    <contour>
      <point x="169.58620689655172" y="263.37931034482756" type="line"/>
      <point x="222.75862068965517" y="457.0689655172414" type="line"/>
      <point x="330.17241379310343" y="457.0689655172414" type="line"/>
      <point x="277.7241379310345" y="263.37931034482756" type="line"/>
    </contour>
  </outline>
</glyph>
<glyph name="percent" format="2">
  <advance width="733.0689655172414"/>
  <unicode hex="0025"/>
  <outline>
    <contour>
      <point x="145.24137931034485" y="0.0" type="line"/>
      <point x="207.0689655172414" y="0.0" type="line"/>
      <point x="634.7931034482758" y="714.0" type="line"/>
      <point x="576.6868965517242" y="714.0" type="line"/>
    </contour>
    <contour>
      <point x="175.13793103448276" y="280.7241379310345" type="curve" smooth="yes"/>
      <point x="305.448275862069" y="280.7241379310345"/>
      <point x="368.82758620689657" y="470.7241379310345"/>
      <point x="368.82758620689657" y="578.6551724137931" type="curve" smooth="yes"/>
      <point x="368.82758620689657" y="665.0"/>
      <point x="336.7241379310345" y="723.2758620689655"/>
      <point x="262.7931034482759" y="723.2758620689655" type="curve" smooth="yes"/>
      <point x="134.20689655172416" y="723.2758620689655"/>
      <point x="73.10344827586208" y="539.7241379310345"/>
      <point x="73.10344827586208" y="424.7931034482758" type="curve"/>
      <point x="73.10344827586208" y="327.7241379310345"/>
      <point x="112.48275862068967" y="280.7241379310345"/>
    </contour>
    <contour>
      <point x="184.0689655172414" y="322.9310344827586" type="curve" smooth="yes"/>
      <point x="158.17241379310343" y="322.9310344827586"/>
      <point x="148.44827586206898" y="354.37931034482756"/>
      <point x="148.44827586206898" y="406.44827586206895" type="curve" smooth="yes"/>
      <point x="148.44827586206898" y="497.68965517241384"/>
      <point x="190.44827586206895" y="681.2413793103448"/>
      <point x="257.7931034482759" y="681.2413793103448" type="curve" smooth="yes"/>
      <point x="283.9655172413793" y="681.2413793103448"/>
      <point x="293.41379310344826" y="651.3448275862069"/>
      <point x="293.41379310344826" y="598.8275862068966" type="curve" smooth="yes"/>
      <point x="293.41379310344826" y="507.0344827586207"/>
      <point x="251.41379310344828" y="322.9310344827586"/>
    </contour>
    <contour>
      <point x="520.8620689655172" y="-8.275862068965516" type="curve" smooth="yes"/>
      <point x="651.1724137931034" y="-8.275862068965516"/>
      <point x="713.551724137931" y="182.44827586206895"/>
      <point x="713.551724137931" y="289.3793103448276" type="curve" smooth="yes"/>
      <point x="713.551724137931" y="375.7241379310345"/>
      <point x="681.7241379310344" y="434.0"/>
      <point x="607.5172413793103" y="434.0" type="curve" smooth="yes"/>
      <point x="479.2068965517241" y="434.0"/>
      <point x="418.82758620689657" y="250.72413793103448"/>
      <point x="418.82758620689657" y="135.51724137931035" type="curve"/>
      <point x="418.82758620689657" y="38.724137931034484"/>
      <point x="457.93103448275866" y="-8.275862068965516"/>
    </contour>
    <contour>
      <point x="529.2413793103448" y="33.93103448275862" type="curve" smooth="yes"/>
      <point x="502.89655172413796" y="33.93103448275862"/>
      <point x="493.1724137931035" y="65.10344827586206"/>
      <point x="493.1724137931035" y="118.89655172413794" type="curve" smooth="yes"/>
      <point x="493.1724137931035" y="208.41379310344828"/>
      <point x="535.896551724138" y="392.2413793103448"/>
      <point x="602.5172413793103" y="392.2413793103448" type="curve" smooth="yes"/>
      <point x="629.4137931034483" y="392.2413793103448"/>
      <point x="638.8620689655173" y="361.3448275862069"/>
      <point x="638.8620689655173" y="309.551724137931" type="curve" smooth="yes"/>
      <point x="638.8620689655173" y="217.75862068965517"/>
      <point x="597.1379310344827" y="33.93103448275862"/>
    </contour>
  </outline>
</glyph>
<glyph name="quotesingle" format="2">
  <advance width="199.24137931034483"/>
  <unicode hex="0027"/>
  <outline>
    <contour>
      <point x="125.0344827586207" y="473.8965517241379" type="line"/>
      <point x="170.44827586206898" y="473.8965517241379" type="line"/>
      <point x="254.6896551724138" y="714.0" type="line"/>
      <point x="148.9310344827586" y="714.0" type="line"/>
    </contour>
  </outline>
</glyph>
<glyph name="parenleft" format="2">
  <advance width="300.41379310344826"/>
  <unicode hex="0028"/>
  <outline>
    <contour>
      <point x="191.31034482758622" y="-129.48275862068965" type="curve"/>
      <point x="203.13793103448276" y="-81.3448275862069" type="line"/>
      <point x="155.6896551724138" y="-37.62068965517241"/>
      <point x="139.6896551724138" y="57.06896551724138"/>
      <point x="139.6896551724138" y="135.9655172413793" type="curve" smooth="yes"/>
      <point x="139.6896551724138" y="265.13793103448273"/>
      <point x="189.41379310344828" y="593.6206896551724"/>
      <point x="371.58620689655174" y="714.6206896551723" type="curve"/>
      <point x="381.1379310344828" y="760.7586206896551" type="line"/>
      <point x="154.86206896551724" y="685.8620689655172"/>
      <point x="40.275862068965516" y="402.03448275862064"/>
      <point x="40.275862068965516" y="164.10344827586206" type="curve" smooth="yes"/>
      <point x="40.275862068965516" y="34.44827586206897"/>
      <point x="85.3103448275862" y="-78.93103448275862"/>
    </contour>
  </outline>
</glyph>
<glyph name="parenright" format="2">
  <advance width="300.41379310344826"/>
  <unicode hex="0029"/>
  <outline>
    <contour>
      <point x="-43.172413793103445" y="-136.27586206896552" type="line"/>
      <point x="184.1034482758621" y="-60.65517241379311"/>
      <point x="296.9655172413793" y="223.44827586206895"/>
      <point x="296.9655172413793" y="461.1034482758621" type="curve" smooth="yes"/>
      <point x="296.9655172413793" y="590.7586206896552"/>
      <point x="253.37931034482762" y="703.1379310344828"/>
      <point x="146.6551724137931" y="753.9655172413793" type="curve"/>
      <point x="135.82758620689654" y="706.551724137931" type="line"/>
      <point x="182.27586206896552" y="662.8275862068965"/>
      <point x="198.0" y="568.4137931034483"/>
      <point x="198.0" y="489.2413793103448" type="curve" smooth="yes"/>
      <point x="198.0" y="361.0689655172414"/>
      <point x="149.55172413793105" y="32.310344827586206"/>
      <point x="-32.89655172413793" y="-89.13793103448276" type="curve"/>
    </contour>
  </outline>
</glyph>
<glyph name="asterisk" format="2">
  <advance width="429.3793103448276"/>
  <unicode hex="002A"/>
  <outline>
    <contour>
      <point x="292.3793103448276" y="371.68965517241384" type="line"/>
      <point x="300.2758620689655" y="532.0689655172414" type="line"/>
      <point x="398.8965517241379" y="408.3103448275862" type="line"/>
      <point x="447.48275862068965" y="478.0" type="line"/>
      <point x="331.86206896551727" y="559.5172413793103" type="line"/>
      <point x="467.1034482758621" y="571.8620689655172" type="line"/>
      <point x="453.99999999999994" y="659.1034482758621" type="line"/>
      <point x="315.2758620689655" y="597.6206896551723" type="line"/>
      <point x="373.2068965517242" y="745.8965517241379" type="line"/>
      <point x="295.6896551724138" y="765.0" type="line"/>
      <point x="285.06896551724134" y="602.8965517241379" type="line"/>
      <point x="188.44827586206898" y="732.1034482758621" type="line"/>
      <point x="139.13793103448273" y="659.6896551724137" type="line"/>
      <point x="255.48275862068965" y="576.7241379310344" type="line"/>
      <point x="119.9655172413793" y="562.8275862068966" type="line"/>
      <point x="133.3448275862069" y="476.86206896551727" type="line"/>
      <point x="271.06896551724134" y="539.6206896551723" type="line"/>
      <point x="214.41379310344828" y="389.7931034482759" type="line"/>
    </contour>
  </outline>
</glyph>
<glyph name="plus" format="2">
  <advance width="425.0"/>
  <unicode hex="002B"/>
  <outline>
    <contour>
      <point x="199.9310344827586" y="143.0" type="line"/>
      <point x="260.9655172413793" y="143.0" type="line"/>
      <point x="260.9655172413793" y="327.62068965517244" type="line"/>
      <point x="401.6896551724138" y="327.62068965517244" type="line"/>
      <point x="401.6896551724138" y="387.37931034482756" type="line"/>
      <point x="260.9655172413793" y="387.37931034482756" type="line"/>
      <point x="260.9655172413793" y="572.0" type="line"/>
      <point x="199.9310344827586" y="572.0" type="line"/>
      <point x="199.9310344827586" y="387.37931034482756" type="line"/>
      <point x="59.93103448275862" y="387.37931034482756" type="line"/>
      <point x="59.93103448275862" y="327.62068965517244" type="line"/>
      <point x="199.9310344827586" y="327.62068965517244" type="line"/>
    </contour>
  </outline>
</glyph>
<glyph name="comma" format="2">
  <advance width="223.13793103448273"/>
  <unicode hex="002C"/>
  <outline>
    <contour>
      <point x="-23.517241379310345" y="-147.10344827586206" type="line"/>
      <point x="90.17241379310344" y="-121.27586206896551"/>
      <point x="146.31034482758622" y="-44.06896551724138"/>
      <point x="146.31034482758622" y="46.96551724137931" type="curve" smooth="yes"/>
      <point x="146.31034482758622" y="100.51724137931035"/>
      <point x="117.48275862068965" y="130.79310344827587"/>
      <point x="83.10344827586208" y="130.79310344827587" type="curve" smooth="yes"/>
      <point x="52.0" y="130.79310344827587"/>
      <point x="26.06896551724138" y="108.41379310344827"/>
      <point x="26.06896551724138" y="68.0344827586207" type="curve" smooth="yes"/>
      <point x="26.06896551724138" y="18.20689655172414"/>
      <point x="69.6896551724138" y="16.482758620689655"/>
      <point x="69.6896551724138" y="-17.620689655172413" type="curve" smooth="yes"/>
      <point x="69.6896551724138" y="-58.62068965517241"/>
      <point x="41.41379310344828" y="-87.3448275862069"/>
      <point x="-15.86206896551724" y="-103.62068965517241" type="curve"/>
    </contour>
  </outline>
</glyph>
<glyph name="hyphen" format="2">
  <advance width="248.82758620689654"/>
  <unicode hex="002D"/>
  <outline>
    <contour>
      <point x="19.89655172413793" y="233.68965517241378" type="line"/>
      <point x="228.44827586206895" y="233.68965517241378" type="line"/>
      <point x="247.37931034482762" y="311.31034482758616" type="line"/>
      <point x="38.55172413793104" y="311.31034482758616" type="line"/>
    </contour>
  </outline>
</glyph>
<glyph name="period" format="2">
  <advance width="223.13793103448273"/>
  <unicode hex="002E"/>
  <outline>
    <contour>
      <point x="81.79310344827586" y="-8.0" type="curve" smooth="yes"/>
      <point x="113.0" y="-8.0"/>
      <point x="147.48275862068965" y="13.551724137931034"/>
      <point x="147.48275862068965" y="73.48275862068965" type="curve" smooth="yes"/>
      <point x="147.48275862068965" y="112.9655172413793"/>
      <point x="123.82758620689657" y="132.51724137931035"/>
      <point x="91.3448275862069" y="132.51724137931035" type="curve" smooth="yes"/>
      <point x="52.58620689655173" y="132.51724137931035"/>
      <point x="25.931034482758623" y="99.41379310344827"/>
      <point x="25.931034482758623" y="51.58620689655173" type="curve" smooth="yes"/>
      <point x="25.931034482758623" y="12.931034482758621"/>
      <point x="48.58620689655172" y="-8.0"/>
    </contour>
  </outline>
</glyph>
<glyph name="zero" format="2">
  <advance width="467.8965517241379"/>
  <unicode hex="0030"/>
  <outline>
    <contour>
      <point x="198.51724137931035" y="-11.0" type="curve" smooth="yes"/>
      <point x="386.7241379310345" y="-11.0"/>
      <point x="469.2068965517241" y="322.8965517241379"/>
      <point x="469.2068965517241" y="514.448275862069" type="curve" smooth="yes"/>
      <point x="469.2068965517241" y="659.7241379310345"/>
      <point x="404.10344827586204" y="724.2758620689655"/>
      <point x="319.17241379310343" y="724.2758620689655" type="curve" smooth="yes"/>
      <point x="132.41379310344828" y="724.2758620689655"/>
      <point x="47.6551724137931" y="411.1034482758621"/>
      <point x="47.6551724137931" y="210.55172413793105" type="curve" smooth="yes"/>
      <point x="47.6551724137931" y="67.0"/>
      <point x="107.3103448275862" y="-11.0"/>
    </contour>
    <contour>
      <point x="206.24137931034483" y="46.03448275862069" type="curve" smooth="yes"/>
      <point x="165.55172413793102" y="46.03448275862069"/>
      <point x="141.9310344827586" y="91.82758620689656"/>
      <point x="141.9310344827586" y="184.86206896551724" type="curve" smooth="yes"/>
      <point x="141.9310344827586" y="348.41379310344826"/>
      <point x="204.51724137931035" y="668.2413793103448"/>
      <point x="311.7241379310345" y="668.2413793103448" type="curve" smooth="yes"/>
      <point x="354.41379310344826" y="668.2413793103448"/>
      <point x="377.0344827586207" y="622.448275862069"/>
      <point x="377.0344827586207" y="532.1379310344827" type="curve" smooth="yes"/>
      <point x="377.0344827586207" y="370.1379310344828"/>
      <point x="317.0" y="46.03448275862069"/>
    </contour>
  </outline>
</glyph>
<glyph name="one" format="2">
  <advance width="467.8965517241379"/>
  <unicode hex="0031"/>
  <outline>
    <contour>
      <point x="37.93103448275862" y="0.0" type="line"/>
      <point x="351.86206896551727" y="0.0" type="line"/>
      <point x="361.41379310344826" y="43.48275862068966" type="line"/>
      <point x="320.2413793103448" y="43.48275862068966" type="line" smooth="yes"/>
      <point x="287.9655172413793" y="43.48275862068966"/>
      <point x="263.41379310344826" y="48.931034482758626"/>
      <point x="263.41379310344826" y="80.10344827586206" type="curve" smooth="yes"/>
      <point x="263.41379310344826" y="87.37931034482759"/>
      <point x="265.6896551724138" y="101.48275862068967"/>
      <point x="270.41379310344826" y="123.65517241379311" type="curve" smooth="yes"/>
      <point x="396.41379310344826" y="718.0" type="line"/>
      <point x="325.9310344827586" y="718.0" type="line"/>
      <point x="259.6551724137931" y="666.0" type="line" smooth="yes"/>
      <point x="196.3793103448276" y="617.0"/>
      <point x="159.2758620689655" y="601.0"/>
      <point x="122.0" y="589.0" type="curve"/>
      <point x="120.72413793103449" y="556.1379310344828"/>
      <point x="133.3793103448276" y="533.3103448275862"/>
      <point x="155.6551724137931" y="533.3103448275862" type="curve" smooth="yes"/>
      <point x="189.6551724137931" y="533.3103448275862"/>
      <point x="224.9310344827586" y="571.0344827586207"/>
      <point x="281.1034482758621" y="637.3103448275862" type="curve"/>
      <point x="283.3793103448276" y="637.3103448275862" type="line"/>
      <point x="272.0" y="603.8275862068966"/>
      <point x="261.55172413793105" y="554.4827586206897"/>
      <point x="247.6551724137931" y="486.44827586206895" type="curve" smooth="yes"/>
      <point x="169.20689655172413" y="113.82758620689654" type="line" smooth="yes"/>
      <point x="156.03448275862067" y="53.41379310344827"/>
      <point x="128.68965517241378" y="43.48275862068966"/>
      <point x="92.13793103448276" y="43.48275862068966" type="curve" smooth="yes"/>
      <point x="46.758620689655174" y="43.48275862068966" type="line"/>
    </contour>
  </outline>
</glyph>
<glyph name="two" format="2">
  <advance width="467.8965517241379"/>
  <unicode hex="0032"/>
  <outline>
    <contour>
      <point x="-6.551724137931035" y="0.0" type="line"/>
      <point x="357.1034482758621" y="0.0" type="line"/>
      <point x="401.3103448275862" y="175.10344827586206" type="line"/>
      <point x="359.7241379310345" y="175.10344827586206" type="line"/>
      <point x="353.44827586206895" y="159.55172413793102" type="line" smooth="yes"/>
      <point x="337.7241379310345" y="120.72413793103448"/>
      <point x="319.1724137931035" y="83.17241379310346"/>
      <point x="269.0689655172414" y="83.17241379310346" type="curve" smooth="yes"/>
      <point x="83.24137931034483" y="83.17241379310346" type="line"/>
      <point x="251.00000000000003" y="260.51724137931035" type="line" smooth="yes"/>
      <point x="406.3103448275862" y="404.4827586206897"/>
      <point x="461.03448275862064" y="482.1034482758621"/>
      <point x="461.03448275862064" y="586.1034482758621" type="curve" smooth="yes"/>
      <point x="461.03448275862064" y="670.551724137931"/>
      <point x="407.2758620689655" y="724.0"/>
      <point x="305.51724137931035" y="724.0" type="curve" smooth="yes"/>
      <point x="185.48275862068965" y="724.0"/>
      <point x="117.65517241379311" y="653.551724137931"/>
      <point x="117.65517241379311" y="583.0689655172413" type="curve" smooth="yes"/>
      <point x="117.65517241379311" y="539.0344827586207"/>
      <point x="149.24137931034483" y="519.8275862068966"/>
      <point x="193.20689655172413" y="519.8275862068966" type="curve"/>
      <point x="203.1034482758621" y="601.6896551724137"/>
      <point x="238.0" y="673.2413793103449"/>
      <point x="297.1379310344828" y="673.2413793103449" type="curve" smooth="yes"/>
      <point x="335.6551724137931" y="673.2413793103449"/>
      <point x="357.2758620689655" y="635.7931034482759"/>
      <point x="357.2758620689655" y="581.448275862069" type="curve" smooth="yes"/>
      <point x="357.2758620689655" y="496.17241379310343"/>
      <point x="333.7241379310345" y="426.89655172413796"/>
      <point x="211.17241379310346" y="295.8275862068965" type="curve" smooth="yes"/>
      <point x="12.0" y="83.24137931034483" type="line"/>
    </contour>
  </outline>
</glyph>
<glyph name="three" format="2">
  <advance width="467.8965517241379"/>
  <unicode hex="0033"/>
  <outline>
    <contour>
      <point x="164.51724137931035" y="-10.0" type="curve" smooth="yes"/>
      <point x="272.0" y="-10.0"/>
      <point x="406.0344827586207" y="50.724137931034484"/>
      <point x="406.0344827586207" y="233.0" type="curve" smooth="yes"/>
      <point x="406.0344827586207" y="313.0"/>
      <point x="361.7586206896552" y="364.44827586206895"/>
      <point x="291.4827586206897" y="373.44827586206895" type="curve"/>
      <point x="403.7586206896552" y="398.44827586206895"/>
      <point x="462.03448275862064" y="492.2758620689655"/>
      <point x="462.03448275862064" y="587.0" type="curve" smooth="yes"/>
      <point x="462.03448275862064" y="674.0"/>
      <point x="399.37931034482756" y="724.0"/>
      <point x="308.3448275862069" y="724.0" type="curve" smooth="yes"/>
      <point x="202.03448275862067" y="724.0"/>
      <point x="118.0" y="659.8965517241379"/>
      <point x="118.0" y="577.8965517241379" type="curve" smooth="yes"/>
      <point x="118.0" y="536.7931034482758"/>
      <point x="149.86206896551724" y="523.5172413793103"/>
      <point x="191.55172413793105" y="523.5172413793103" type="curve"/>
      <point x="207.72413793103448" y="603.2413793103448"/>
      <point x="231.7241379310345" y="673.2413793103448"/>
      <point x="297.8620689655172" y="673.2413793103448" type="curve" smooth="yes"/>
      <point x="339.48275862068965" y="673.2413793103448"/>
      <point x="359.55172413793105" y="637.3448275862069"/>
      <point x="359.55172413793105" y="586.0" type="curve" smooth="yes"/>
      <point x="359.55172413793105" y="471.55172413793105"/>
      <point x="287.55172413793105" y="396.10344827586204"/>
      <point x="192.7241379310345" y="396.10344827586204" type="curve" smooth="yes"/>
      <point x="166.7241379310345" y="396.10344827586204" type="line"/>
      <point x="157.44827586206898" y="343.62068965517244" type="line"/>
      <point x="191.7241379310345" y="343.62068965517244" type="line" smooth="yes"/>
      <point x="262.55172413793105" y="343.62068965517244"/>
      <point x="301.55172413793105" y="298.2758620689655"/>
      <point x="301.55172413793105" y="227.0" type="curve" smooth="yes"/>
      <point x="301.55172413793105" y="106.03448275862068"/>
      <point x="239.48275862068968" y="46.862068965517246"/>
      <point x="174.89655172413794" y="46.862068965517246" type="curve" smooth="yes"/>
      <point x="107.10344827586208" y="46.862068965517246"/>
      <point x="81.82758620689656" y="109.20689655172414"/>
      <point x="84.82758620689656" y="172.3448275862069" type="curve"/>
      <point x="38.03448275862069" y="172.3448275862069"/>
      <point x="6.379310344827586" y="146.41379310344828"/>
      <point x="6.379310344827586" y="97.75862068965516" type="curve" smooth="yes"/>
      <point x="6.379310344827586" y="44.20689655172414"/>
      <point x="47.48275862068966" y="-10.0"/>
    </contour>
  </outline>
</glyph>
<glyph name="four" format="2">
  <advance width="467.8965517241379"/>
  <unicode hex="0034"/>
  <outline>
    <contour>
      <point x="110.20689655172414" y="0.0" type="line"/>
      <point x="382.27586206896547" y="0.0" type="line"/>
      <point x="392.8275862068965" y="43.48275862068966" type="line"/>
      <point x="375.93103448275866" y="43.48275862068966" type="line" smooth="yes"/>
      <point x="344.9310344827586" y="43.48275862068966"/>
      <point x="323.0344827586207" y="49.206896551724135"/>
      <point x="323.0344827586207" y="80.20689655172414" type="curve" smooth="yes"/>
      <point x="323.0344827586207" y="87.48275862068967"/>
      <point x="325.0344827586207" y="103.03448275862068"/>
      <point x="327.0344827586207" y="111.3103448275862" type="curve" smooth="yes"/>
      <point x="454.2068965517241" y="714.0" type="line"/>
      <point x="355.2758620689655" y="714.0" type="line"/>
      <point x="23.517241379310345" y="238.48275862068965" type="line"/>
      <point x="13.13793103448276" y="197.24137931034483" type="line"/>
      <point x="433.7931034482758" y="197.24137931034483" type="line"/>
      <point x="446.34482758620686" y="250.27586206896552" type="line"/>
      <point x="58.96551724137932" y="250.27586206896552" type="line"/>
      <point x="69.51724137931035" y="229.72413793103448" type="line"/>
      <point x="265.65517241379314" y="503.48275862068965" type="line" smooth="yes"/>
      <point x="286.58620689655174" y="532.7931034482758"/>
      <point x="323.2413793103448" y="590.8275862068966"/>
      <point x="342.62068965517244" y="631.6896551724138" type="curve"/>
      <point x="324.62068965517244" y="569.6896551724138"/>
      <point x="307.62068965517244" y="495.86206896551727"/>
      <point x="295.89655172413796" y="438.2413793103448" type="curve" smooth="yes"/>
      <point x="228.99999999999997" y="115.48275862068967" type="line" smooth="yes"/>
      <point x="215.72413793103445" y="51.37931034482759"/>
      <point x="181.6206896551724" y="43.48275862068966"/>
      <point x="147.72413793103448" y="43.48275862068966" type="curve" smooth="yes"/>
      <point x="119.03448275862068" y="43.48275862068966" type="line"/>
    </contour>
  </outline>
</glyph>
<glyph name="five" format="2">
  <advance width="467.8965517241379"/>
  <unicode hex="0035"/>
  <outline>
    <contour>
      <point x="164.79310344827587" y="-10.0" type="curve" smooth="yes"/>
      <point x="316.3793103448276" y="-10.0"/>
      <point x="408.0344827586207" y="106.0"/>
      <point x="408.0344827586207" y="253.82758620689654" type="curve" smooth="yes"/>
      <point x="408.0344827586207" y="366.37931034482756"/>
      <point x="343.1034482758621" y="427.6551724137931"/>
      <point x="239.6206896551724" y="427.6551724137931" type="curve" smooth="yes"/>
      <point x="202.79310344827584" y="427.6551724137931"/>
      <point x="178.24137931034483" y="419.37931034482756"/>
      <point x="160.41379310344826" y="412.37931034482756" type="curve"/>
      <point x="217.9310344827586" y="630.3793103448276" type="line"/>
      <point x="376.9655172413793" y="630.3793103448276" type="line" smooth="yes"/>
      <point x="405.5172413793103" y="630.3793103448276"/>
      <point x="413.7931034482758" y="621.3793103448276"/>
      <point x="413.7931034482758" y="608.1034482758621" type="curve" smooth="yes"/>
      <point x="413.7931034482758" y="601.8275862068966"/>
      <point x="410.7931034482758" y="578.551724137931"/>
      <point x="408.7931034482758" y="559.8275862068965" type="curve"/>
      <point x="450.93103448275866" y="559.8275862068965" type="line"/>
      <point x="480.4827586206897" y="714.0" type="line"/>
      <point x="193.55172413793102" y="714.0" type="line"/>
      <point x="96.37931034482759" y="364.82758620689657" type="line"/>
      <point x="125.31034482758622" y="350.17241379310343" type="line"/>
      <point x="146.75862068965517" y="361.17241379310343"/>
      <point x="171.75862068965517" y="372.17241379310343"/>
      <point x="211.20689655172413" y="372.17241379310343" type="curve" smooth="yes"/>
      <point x="265.6551724137931" y="372.17241379310343"/>
      <point x="305.1034482758621" y="329.7241379310345"/>
      <point x="305.1034482758621" y="245.82758620689654" type="curve" smooth="yes"/>
      <point x="305.1034482758621" y="115.75862068965517"/>
      <point x="251.5862068965517" y="46.310344827586206"/>
      <point x="174.0689655172414" y="46.310344827586206" type="curve" smooth="yes"/>
      <point x="101.79310344827587" y="46.310344827586206"/>
      <point x="87.3448275862069" y="117.13793103448276"/>
      <point x="88.3448275862069" y="168.79310344827587" type="curve"/>
      <point x="39.86206896551724" y="168.79310344827587"/>
      <point x="18.206896551724135" y="138.86206896551724"/>
      <point x="18.206896551724135" y="97.20689655172414" type="curve" smooth="yes"/>
      <point x="18.206896551724135" y="43.0"/>
      <point x="58.86206896551724" y="-10.0"/>
    </contour>
  </outline>
</glyph>
<glyph name="six" format="2">
  <advance width="467.8965517241379"/>
  <unicode hex="0036"/>
  <outline>
    <contour>
      <point x="212.24137931034483" y="-10.0" type="curve" smooth="yes"/>
      <point x="358.10344827586204" y="-10.0"/>
      <point x="430.0344827586207" y="129.72413793103448"/>
      <point x="430.0344827586207" y="270.2758620689655" type="curve" smooth="yes"/>
      <point x="430.0344827586207" y="359.55172413793105"/>
      <point x="389.7586206896552" y="433.82758620689657"/>
      <point x="303.9310344827586" y="433.82758620689657" type="curve" smooth="yes"/>
      <point x="247.6551724137931" y="433.82758620689657"/>
      <point x="206.48275862068965" y="403.9310344827586"/>
      <point x="181.48275862068965" y="382.37931034482756" type="curve"/>
      <point x="224.82758620689657" y="574.7241379310345"/>
      <point x="285.6206896551724" y="674.5172413793103"/>
      <point x="359.8620689655172" y="674.5172413793103" type="curve" smooth="yes"/>
      <point x="405.48275862068965" y="674.5172413793103"/>
      <point x="408.9310344827586" y="616.8620689655172"/>
      <point x="405.9310344827586" y="556.7586206896552" type="curve"/>
      <point x="461.44827586206895" y="556.7586206896552"/>
      <point x="495.48275862068965" y="586.5862068965516"/>
      <point x="495.48275862068965" y="632.5172413793103" type="curve" smooth="yes"/>
      <point x="495.48275862068965" y="683.6206896551723"/>
      <point x="454.1034482758621" y="724.0"/>
      <point x="373.62068965517244" y="724.0" type="curve" smooth="yes"/>
      <point x="184.75862068965517" y="724.0"/>
      <point x="60.55172413793103" y="459.1034482758621"/>
      <point x="60.55172413793103" y="209.3793103448276" type="curve" smooth="yes"/>
      <point x="60.55172413793103" y="53.206896551724135"/>
      <point x="127.75862068965517" y="-10.0"/>
    </contour>
    <contour>
      <point x="222.17241379310346" y="43.758620689655174" type="curve" smooth="yes"/>
      <point x="180.10344827586206" y="43.758620689655174"/>
      <point x="154.9310344827586" y="92.55172413793103"/>
      <point x="154.9310344827586" y="186.6206896551724" type="curve" smooth="yes"/>
      <point x="154.9310344827586" y="233.0"/>
      <point x="159.20689655172416" y="270.55172413793105"/>
      <point x="169.93103448275863" y="325.0" type="curve"/>
      <point x="193.82758620689654" y="352.44827586206895"/>
      <point x="233.6206896551724" y="382.62068965517244"/>
      <point x="271.9655172413793" y="382.62068965517244" type="curve" smooth="yes"/>
      <point x="311.0344827586207" y="382.62068965517244"/>
      <point x="332.93103448275866" y="342.17241379310343"/>
      <point x="332.93103448275866" y="269.55172413793105" type="curve" smooth="yes"/>
      <point x="332.93103448275866" y="143.93103448275863"/>
      <point x="286.1379310344828" y="43.758620689655174"/>
    </contour>
  </outline>
</glyph>
<glyph name="seven" format="2">
  <advance width="467.8965517241379"/>
  <unicode hex="0037"/>
  <outline>
    <contour>
      <point x="94.48275862068967" y="0.0" type="line"/>
      <point x="160.6896551724138" y="0.0" type="line"/>
      <point x="509.1034482758621" y="681.8275862068966" type="line"/>
      <point x="515.4827586206897" y="714.0" type="line"/>
      <point x="148.58620689655174" y="714.0" type="line"/>
      <point x="104.48275862068967" y="529.3793103448276" type="line"/>
      <point x="146.6206896551724" y="529.3793103448276" type="line"/>
      <point x="159.6206896551724" y="579.3793103448276" type="line" smooth="yes"/>
      <point x="168.6206896551724" y="612.3793103448276"/>
      <point x="187.17241379310343" y="631.3793103448276"/>
      <point x="216.17241379310343" y="631.3793103448276" type="curve" smooth="yes"/>
      <point x="426.3448275862069" y="631.3793103448276" type="line"/>
    </contour>
  </outline>
</glyph>
<glyph name="eight" format="2">
  <advance width="467.8965517241379"/>
  <unicode hex="0038"/>
  <outline>
    <contour>
      <point x="206.0" y="-10.0" type="curve" smooth="yes"/>
      <point x="324.7586206896552" y="-10.0"/>
      <point x="420.48275862068965" y="60.0"/>
      <point x="420.48275862068965" y="210.72413793103448" type="curve" smooth="yes"/>
      <point x="420.48275862068965" y="286.2758620689655"/>
      <point x="382.48275862068965" y="339.2758620689655"/>
      <point x="327.0344827586207" y="380.0" type="curve"/>
      <point x="416.2068965517242" y="427.2758620689655"/>
      <point x="474.48275862068965" y="480.0"/>
      <point x="474.48275862068965" y="584.0" type="curve" smooth="yes"/>
      <point x="474.48275862068965" y="664.7241379310345"/>
      <point x="419.8275862068965" y="724.0"/>
      <point x="323.17241379310343" y="724.0" type="curve" smooth="yes"/>
      <point x="177.13793103448276" y="724.0"/>
      <point x="119.3103448275862" y="631.7241379310345"/>
      <point x="119.3103448275862" y="523.3793103448277" type="curve" smooth="yes"/>
      <point x="119.3103448275862" y="462.7241379310345"/>
      <point x="147.58620689655174" y="406.17241379310343"/>
      <point x="191.0344827586207" y="364.44827586206895" type="curve"/>
      <point x="94.58620689655173" y="320.44827586206895"/>
      <point x="23.758620689655174" y="267.82758620689657"/>
      <point x="23.758620689655174" y="151.82758620689654" type="curve" smooth="yes"/>
      <point x="23.758620689655174" y="57.55172413793103"/>
      <point x="90.79310344827586" y="-10.0"/>
    </contour>
    <contour>
      <point x="206.17241379310346" y="39.931034482758626" type="curve" smooth="yes"/>
      <point x="148.93103448275863" y="39.931034482758626"/>
      <point x="116.3103448275862" y="83.10344827586206"/>
      <point x="116.3103448275862" y="151.44827586206895" type="curve" smooth="yes"/>
      <point x="116.3103448275862" y="245.24137931034483"/>
      <point x="161.1034482758621" y="302.2413793103448"/>
      <point x="232.06896551724137" y="337.68965517241384" type="curve"/>
      <point x="294.0344827586207" y="294.2413793103448"/>
      <point x="326.65517241379314" y="252.51724137931035"/>
      <point x="326.65517241379314" y="185.89655172413794" type="curve" smooth="yes"/>
      <point x="326.65517241379314" y="89.10344827586206"/>
      <point x="271.13793103448273" y="39.931034482758626"/>
    </contour>
    <contour>
      <point x="285.551724137931" y="405.9310344827586" type="curve"/>
      <point x="238.31034482758622" y="442.10344827586204"/>
      <point x="215.41379310344828" y="481.6551724137931"/>
      <point x="215.41379310344828" y="535.2758620689656" type="curve" smooth="yes"/>
      <point x="215.41379310344828" y="618.8965517241379"/>
      <point x="256.7586206896552" y="673.0689655172413"/>
      <point x="317.62068965517244" y="673.0689655172413" type="curve" smooth="yes"/>
      <point x="364.5862068965517" y="673.0689655172413"/>
      <point x="387.2068965517241" y="632.8965517241379"/>
      <point x="387.2068965517241" y="578.2758620689655" type="curve" smooth="yes"/>
      <point x="387.2068965517241" y="507.6551724137931"/>
      <point x="362.3103448275862" y="451.37931034482756"/>
    </contour>
  </outline>
</glyph>
<glyph name="nine" format="2">
  <advance width="467.8965517241379"/>
  <unicode hex="0039"/>
  <outline>
    <contour>
      <point x="149.75862068965517" y="-10.0" type="curve" smooth="yes"/>
      <point x="372.1751724137931" y="-10.0"/>
      <point x="461.9310344827586" y="372.86206896551727"/>
      <point x="461.9310344827586" y="546.6206896551724" type="curve" smooth="yes"/>
      <point x="461.9310344827586" y="660.448275862069"/>
      <point x="405.1034482758621" y="724.0"/>
      <point x="315.1724137931035" y="724.0" type="curve" smooth="yes"/>
      <point x="192.68689655172415" y="724.0"/>
      <point x="85.48275862068965" y="602.0"/>
      <point x="85.48275862068965" y="430.2758620689655" type="curve" smooth="yes"/>
      <point x="85.48275862068965" y="339.2758620689655"/>
      <point x="131.20689655172413" y="275.0"/>
      <point x="213.48275862068965" y="275.0" type="curve" smooth="yes"/>
      <point x="269.48275862068965" y="275.0"/>
      <point x="310.2068965517241" y="308.0"/>
      <point x="338.48275862068965" y="343.0" type="curve"/>
      <point x="292.2068965517241" y="162.44827586206895"/>
      <point x="240.75862068965515" y="41.03448275862068"/>
      <point x="161.03448275862067" y="41.03448275862068" type="curve" smooth="yes"/>
      <point x="113.31034482758622" y="41.03448275862068"/>
      <point x="97.3103448275862" y="97.86206896551724"/>
      <point x="99.03448275862068" y="147.41379310344828" type="curve"/>
      <point x="59.37931034482759" y="147.41379310344828"/>
      <point x="35.0" y="116.6896551724138"/>
      <point x="35.0" y="78.0344827586207" type="curve" smooth="yes"/>
      <point x="35.0" y="33.55172413793103"/>
      <point x="66.48275862068967" y="-10.0"/>
    </contour>
    <contour>
      <point x="246.27586206896552" y="331.13793103448273" type="curve" smooth="yes"/>
      <point x="208.20689655172416" y="331.13793103448273"/>
      <point x="183.86206896551724" y="365.0344827586207"/>
      <point x="183.86206896551724" y="428.6551724137931" type="curve" smooth="yes"/>
      <point x="183.86206896551724" y="539.7241379310344"/>
      <point x="234.20689655172416" y="669.9655172413793"/>
      <point x="307.51724137931035" y="669.9655172413793" type="curve" smooth="yes"/>
      <point x="344.31034482758616" y="669.9655172413793"/>
      <point x="370.6551724137931" y="634.7931034482758"/>
      <point x="370.6551724137931" y="550.0" type="curve" smooth="yes"/>
      <point x="370.6551724137931" y="512.0"/>
      <point x="362.9310344827586" y="453.6551724137931"/>
      <point x="352.9310344827586" y="416.2068965517241" type="curve"/>
      <point x="330.31034482758616" y="375.0344827586207"/>
      <point x="293.51724137931035" y="331.41379310344826"/>
    </contour>
  </outline>
</glyph>
<glyph name="colon" format="2">
  <advance width="261.0"/>
  <unicode hex="003A"/>
  <outline>
    <contour>
      <point x="176.79310344827587" y="400.48275862068965" type="curve" smooth="yes"/>
      <point x="208.0" y="400.48275862068965"/>
      <point x="241.75862068965517" y="422.0344827586207"/>
      <point x="241.75862068965517" y="481.9655172413793" type="curve" smooth="yes"/>
      <point x="241.75862068965517" y="521.448275862069"/>
      <point x="218.82758620689654" y="541.0"/>
      <point x="186.3448275862069" y="541.0" type="curve" smooth="yes"/>
      <point x="147.58620689655172" y="541.0"/>
      <point x="121.65517241379311" y="507.1724137931035"/>
      <point x="121.65517241379311" y="459.3448275862069" type="curve" smooth="yes"/>
      <point x="121.65517241379311" y="421.41379310344826"/>
      <point x="143.58620689655172" y="400.48275862068965"/>
    </contour>
    <contour>
      <point x="87.62068965517241" y="-8.0" type="curve" smooth="yes"/>
      <point x="118.82758620689654" y="-8.0"/>
      <point x="153.3103448275862" y="13.551724137931034"/>
      <point x="153.3103448275862" y="73.48275862068967" type="curve" smooth="yes"/>
      <point x="153.3103448275862" y="112.9655172413793"/>
      <point x="129.6551724137931" y="132.51724137931035"/>
      <point x="97.89655172413794" y="132.51724137931035" type="curve" smooth="yes"/>
      <point x="58.41379310344828" y="132.51724137931035"/>
      <point x="32.48275862068965" y="99.41379310344827"/>
      <point x="32.48275862068965" y="51.58620689655172" type="curve" smooth="yes"/>
      <point x="32.48275862068965" y="12.931034482758621"/>
      <point x="55.13793103448276" y="-8.0"/>
    </contour>
  </outline>
</glyph>
<glyph name="semicolon" format="2">
  <advance width="260.0"/>
  <unicode hex="003B"/>
  <outline>
    <contour>
      <point x="-13.551724137931034" y="-147.10344827586206" type="line"/>
      <point x="99.41379310344827" y="-121.27586206896551"/>
      <point x="156.0" y="-44.06896551724138"/>
      <point x="156.0" y="46.96551724137931" type="curve" smooth="yes"/>
      <point x="156.0" y="100.51724137931035"/>
      <point x="127.44827586206895" y="130.79310344827587"/>
      <point x="93.06896551724138" y="130.79310344827587" type="curve" smooth="yes"/>
      <point x="62.41379310344827" y="130.79310344827587"/>
      <point x="35.03448275862068" y="109.41379310344827"/>
      <point x="35.03448275862068" y="68.0344827586207" type="curve" smooth="yes"/>
      <point x="35.03448275862068" y="18.20689655172414"/>
      <point x="79.37931034482759" y="16.482758620689655"/>
      <point x="79.37931034482759" y="-17.620689655172413" type="curve" smooth="yes"/>
      <point x="79.37931034482759" y="-58.62068965517241"/>
      <point x="51.10344827586207" y="-87.3448275862069"/>
      <point x="-6.1724137931034475" y="-103.62068965517241" type="curve"/>
    </contour>
    <contour>
      <point x="176.79310344827587" y="400.48275862068965" type="curve" smooth="yes"/>
      <point x="207.27586206896552" y="400.48275862068965"/>
      <point x="241.75862068965517" y="422.0344827586207"/>
      <point x="241.75862068965517" y="481.9655172413793" type="curve" smooth="yes"/>
      <point x="241.75862068965517" y="521.448275862069"/>
      <point x="218.10344827586206" y="541.0"/>
      <point x="186.3448275862069" y="541.0" type="curve" smooth="yes"/>
      <point x="147.58620689655172" y="541.0"/>
      <point x="121.65517241379311" y="507.1724137931035"/>
      <point x="121.65517241379311" y="459.3448275862069" type="curve" smooth="yes"/>
      <point x="121.65517241379311" y="421.41379310344826"/>
      <point x="143.58620689655172" y="400.48275862068965"/>
    </contour>
  </outline>
</glyph>
<glyph name="less" format="2">
  <advance width="425.0"/>
  <unicode hex="003C"/>
  <outline>
    <contour>
      <point x="401.6896551724138" y="109.62068965517241" type="line"/>
      <point x="401.6896551724138" y="178.3793103448276" type="line"/>
      <point x="139.24137931034483" y="357.0" type="line"/>
      <point x="401.6896551724138" y="538.3448275862069" type="line"/>
      <point x="401.6896551724138" y="606.3793103448277" type="line"/>
      <point x="59.93103448275862" y="375.55172413793105" type="line"/>
      <point x="59.93103448275862" y="339.44827586206895" type="line"/>
    </contour>
  </outline>
</glyph>
<glyph name="equal" format="2">
  <advance width="425.0"/>
  <unicode hex="003D"/>
  <outline>
    <contour>
      <point x="59.37931034482759" y="420.51724137931035" type="line"/>
      <point x="402.9655172413793" y="420.51724137931035" type="line"/>
      <point x="402.9655172413793" y="481.0" type="line"/>
      <point x="59.37931034482759" y="481.0" type="line"/>
    </contour>
    <contour>
      <point x="59.37931034482759" y="233.0" type="line"/>
      <point x="402.9655172413793" y="233.0" type="line"/>
      <point x="402.9655172413793" y="293.48275862068965" type="line"/>
      <point x="59.37931034482759" y="293.48275862068965" type="line"/>
    </contour>
  </outline>
</glyph>
<glyph name="greater" format="2">
  <advance width="425.0"/>
  <unicode hex="003E"/>
  <outline>
    <contour>
      <point x="59.93103448275862" y="109.62068965517241" type="line"/>
      <point x="401.6896551724138" y="339.44827586206895" type="line"/>
      <point x="401.6896551724138" y="375.55172413793105" type="line"/>
      <point x="59.93103448275862" y="606.3793103448277" type="line"/>
      <point x="59.93103448275862" y="538.3448275862069" type="line"/>
      <point x="322.37931034482756" y="357.0" type="line"/>
      <point x="59.93103448275862" y="178.3793103448276" type="line"/>
    </contour>
  </outline>
</glyph>
<glyph name="question" format="2">
  <advance width="414.10344827586204"/>
  <unicode hex="003F"/>
  <outline>
    <contour>
      <point x="163.93103448275863" y="210.9655172413793" type="line"/>
      <point x="212.68965517241378" y="210.9655172413793" type="line"/>
      <point x="242.79310344827587" y="317.0" type="line"/>
      <point x="360.6206896551724" y="372.44827586206895"/>
      <point x="451.62068965517244" y="448.44827586206895"/>
      <point x="451.62068965517244" y="577.0689655172414" type="curve" smooth="yes"/>
      <point x="451.62068965517244" y="674.0"/>
      <point x="391.68689655172415" y="724.0"/>
      <point x="294.55172413793105" y="724.0" type="curve" smooth="yes"/>
      <point x="183.51724137931035" y="724.0"/>
      <point x="113.48275862068965" y="660.1034482758621"/>
      <point x="113.48275862068965" y="590.2758620689656" type="curve" smooth="yes"/>
      <point x="113.48275862068965" y="552.2413793103448"/>
      <point x="139.79310344827587" y="530.6896551724137"/>
      <point x="191.24137931034483" y="530.6896551724137" type="curve"/>
      <point x="203.41379310344826" y="606.6896551724137"/>
      <point x="226.58620689655172" y="672.5172413793103"/>
      <point x="285.44827586206895" y="672.5172413793103" type="curve" smooth="yes"/>
      <point x="321.6896551724138" y="672.5172413793103"/>
      <point x="347.7586206896552" y="637.0689655172414"/>
      <point x="347.7586206896552" y="575.1724137931034" type="curve" smooth="yes"/>
      <point x="347.7586206896552" y="462.7931034482759"/>
      <point x="279.3103448275862" y="396.0"/>
      <point x="175.41379310344828" y="349.55172413793105" type="curve"/>
    </contour>
    <contour>
      <point x="159.0344827586207" y="-8.0" type="curve" smooth="yes"/>
      <point x="190.9655172413793" y="-8.0"/>
      <point x="224.72413793103448" y="13.551724137931034"/>
      <point x="224.72413793103448" y="73.48275862068967" type="curve" smooth="yes"/>
      <point x="224.72413793103448" y="112.9655172413793"/>
      <point x="201.79310344827584" y="132.51724137931035"/>
      <point x="169.31034482758622" y="132.51724137931035" type="curve" smooth="yes"/>
      <point x="130.55172413793105" y="132.51724137931035"/>
      <point x="104.62068965517241" y="99.41379310344827"/>
      <point x="104.62068965517241" y="51.58620689655172" type="curve" smooth="yes"/>
      <point x="104.62068965517241" y="12.931034482758621"/>
      <point x="126.55172413793103" y="-8.0"/>
    </contour>
  </outline>
</glyph>
<glyph name="bracketleft" format="2">
  <advance width="311.41379310344826"/>
  <unicode hex="005B"/>
  <outline>
    <contour>
      <point x="5.310344827586208" y="-128.0" type="line"/>
      <point x="207.44827586206898" y="-128.0" type="line"/>
      <point x="217.00000000000003" y="-84.51724137931033" type="line"/>
      <point x="182.0" y="-84.51724137931033" type="line" smooth="yes"/>
      <point x="150.82758620689654" y="-84.51724137931033"/>
      <point x="128.27586206896552" y="-78.51724137931033"/>
      <point x="128.27586206896552" y="-46.13793103448276" type="curve" smooth="yes"/>
      <point x="128.27586206896552" y="-39.310344827586206"/>
      <point x="129.27586206896552" y="-24.96551724137931"/>
      <point x="131.27586206896552" y="-16.689655172413794" type="curve"/>
      <point x="270.6206896551724" y="644.5172413793103" type="line"/>
      <point x="283.6206896551724" y="707.5172413793103"/>
      <point x="315.89655172413796" y="716.5172413793103"/>
      <point x="351.62068965517244" y="716.5172413793103" type="curve" smooth="yes"/>
      <point x="385.8965517241379" y="716.5172413793103" type="line"/>
      <point x="396.44827586206895" y="760.0" type="line"/>
      <point x="194.31034482758622" y="760.0" type="line"/>
    </contour>
  </outline>
</glyph>
<glyph name="backslash" format="2">
  <advance width="231.55172413793105"/>
  <unicode hex="005C"/>
  <outline>
    <contour>
      <point x="140.6206896551724" y="-121.0" type="line"/>
      <point x="192.10344827586206" y="-121.0" type="line"/>
      <point x="159.86206896551727" y="760.0" type="line"/>
      <point x="108.10344827586206" y="760.0" type="line"/>
    </contour>
  </outline>
</glyph>
<glyph name="bracketright" format="2">
  <advance width="311.41379310344826"/>
  <unicode hex="005D"/>
  <outline>
    <contour>
      <point x="-46.37931034482759" y="-128.0" type="line"/>
      <point x="155.48275862068965" y="-128.0" type="line"/>
      <point x="343.48275862068965" y="760.0" type="line"/>
      <point x="142.3448275862069" y="760.0" type="line"/>
      <point x="132.0689655172414" y="716.5172413793103" type="line"/>
      <point x="167.0689655172414" y="716.5172413793103" type="line" smooth="yes"/>
      <point x="197.51724137931032" y="716.5172413793103"/>
      <point x="221.79310344827584" y="710.5172413793103"/>
      <point x="221.79310344827584" y="678.1379310344828" type="curve" smooth="yes"/>
      <point x="221.79310344827584" y="670.5862068965516"/>
      <point x="219.79310344827587" y="657.6896551724137"/>
      <point x="217.79310344827587" y="648.6896551724137" type="curve" smooth="yes"/>
      <point x="78.72413793103448" y="-12.517241379310343" type="line"/>
      <point x="65.72413793103448" y="-75.51724137931033"/>
      <point x="33.44827586206896" y="-84.51724137931033"/>
      <point x="-1.5517241379310347" y="-84.51724137931033" type="curve" smooth="yes"/>
      <point x="-35.827586206896555" y="-84.51724137931033" type="line"/>
    </contour>
  </outline>
</glyph>
<glyph name="asciicircum" format="2">
  <advance width="425.0"/>
  <unicode hex="005E"/>
  <outline>
    <contour>
      <point x="46.82758620689655" y="266.17241379310343" type="line"/>
      <point x="104.31034482758622" y="266.17241379310343" type="line"/>
      <point x="230.0344827586207" y="620.1379310344827" type="line"/>
      <point x="357.0344827586207" y="266.17241379310343" type="line"/>
      <point x="414.5172413793103" y="266.17241379310343" type="line"/>
      <point x="246.1379310344828" y="714.0" type="line"/>
      <point x="214.48275862068962" y="714.0" type="line"/>
    </contour>
  </outline>
</glyph>
<glyph name="underscore" format="2">
  <advance width="368.1034482758621"/>
  <unicode hex="005F"/>
  <outline>
    <contour>
      <point x="-79.27586206896552" y="-142.0" type="line"/>
      <point x="296.1034482758621" y="-142.0" type="line"/>
      <point x="309.1034482758621" y="-83.0" type="line"/>
      <point x="-66.27586206896552" y="-83.0" type="line"/>
    </contour>
  </outline>
</glyph>
<glyph name="braceleft" format="2">
  <advance width="349.86206896551727"/>
  <unicode hex="007B"/>
  <outline>
    <contour>
      <point x="188.82758620689657" y="-127.44827586206897" type="curve" smooth="yes"/>
      <point x="248.99999999999997" y="-127.44827586206897" type="line"/>
      <point x="258.82758620689657" y="-82.9655172413793" type="line"/>
      <point x="231.17241379310346" y="-82.9655172413793" type="line" smooth="yes"/>
      <point x="198.72413793103448" y="-82.9655172413793"/>
      <point x="184.55172413793102" y="-63.51724137931034"/>
      <point x="184.55172413793102" y="-27.17241379310345" type="curve" smooth="yes"/>
      <point x="184.55172413793102" y="-13.344827586206897"/>
      <point x="186.55172413793102" y="2.6551724137931036"/>
      <point x="190.55172413793102" y="20.379310344827587" type="curve" smooth="yes"/>
      <point x="225.44827586206895" y="178.9655172413793" type="line" smooth="yes"/>
      <point x="228.72413793103448" y="193.51724137931035"/>
      <point x="232.55172413793102" y="211.72413793103448"/>
      <point x="232.55172413793102" y="229.0" type="curve" smooth="yes"/>
      <point x="232.55172413793102" y="273.44827586206895"/>
      <point x="209.82758620689654" y="303.89655172413796"/>
      <point x="164.55172413793102" y="314.2758620689655" type="curve"/>
      <point x="164.82758620689657" y="317.8275862068965" type="line"/>
      <point x="230.37931034482762" y="330.9310344827586"/>
      <point x="265.2758620689655" y="374.10344827586204"/>
      <point x="279.2758620689655" y="440.0" type="curve" smooth="yes"/>
      <point x="313.7241379310345" y="601.6896551724138" type="line" smooth="yes"/>
      <point x="331.0" y="684.5172413793103"/>
      <point x="354.51724137931035" y="715.7931034482759"/>
      <point x="399.51724137931035" y="715.7931034482759" type="curve" smooth="yes"/>
      <point x="427.448275862069" y="715.7931034482759" type="line"/>
      <point x="438.0" y="760.0" type="line"/>
      <point x="382.41379310344826" y="760.0" type="line" smooth="yes"/>
      <point x="285.72413793103453" y="760.0"/>
      <point x="237.58620689655172" y="714.4827586206897"/>
      <point x="215.3103448275862" y="615.7241379310344" type="curve" smooth="yes"/>
      <point x="176.86206896551724" y="442.7241379310345" type="line" smooth="yes"/>
      <point x="158.6896551724138" y="361.37931034482756"/>
      <point x="115.68965517241381" y="342.2068965517241"/>
      <point x="62.689655172413794" y="339.48275862068965" type="curve"/>
      <point x="52.310344827586206" y="295.0689655172414" type="line"/>
      <point x="95.58620689655173" y="293.0689655172414"/>
      <point x="127.86206896551724" y="277.17241379310343"/>
      <point x="127.86206896551724" y="226.44827586206895" type="curve" smooth="yes"/>
      <point x="127.86206896551724" y="215.27586206896552"/>
      <point x="127.13793103448275" y="202.55172413793105"/>
      <point x="124.13793103448276" y="189.82758620689654" type="curve" smooth="yes"/>
      <point x="93.24137931034483" y="41.62068965517241" type="line" smooth="yes"/>
      <point x="87.13793103448276" y="13.10344827586207"/>
      <point x="83.41379310344827" y="-5.896551724137931"/>
      <point x="83.41379310344827" y="-28.068965517241377" type="curve" smooth="yes"/>
      <point x="83.41379310344827" y="-93.06896551724138"/>
      <point x="122.24137931034483" y="-127.44827586206897"/>
    </contour>
  </outline>
</glyph>
<glyph name="bar" format="2">
  <advance width="445.86206896551727"/>
  <unicode hex="007C"/>
  <outline>
    <contour>
      <point x="207.13793103448276" y="-240.0" type="line"/>
      <point x="260.6206896551724" y="-240.0" type="line"/>
      <point x="260.6206896551724" y="760.0" type="line"/>
      <point x="207.13793103448276" y="760.0" type="line"/>
    </contour>
  </outline>
</glyph>
<glyph name="braceright" format="2">
  <advance width="349.1379310344828"/>
  <unicode hex="007D"/>
  <outline>
    <contour>
      <point x="-47.827586206896555" y="-128.17241379310346" type="line"/>
      <point x="7.482758620689656" y="-128.17241379310346" type="line" smooth="yes"/>
      <point x="110.3448275862069" y="-128.17241379310346"/>
      <point x="155.0344827586207" y="-81.37931034482759"/>
      <point x="175.58620689655172" y="16.379310344827587" type="curve" smooth="yes"/>
      <point x="212.31034482758622" y="189.82758620689654" type="line" smooth="yes"/>
      <point x="229.75862068965517" y="271.44827586206895"/>
      <point x="274.48275862068965" y="292.0689655172414"/>
      <point x="326.7586206896552" y="295.0689655172414" type="curve"/>
      <point x="337.86206896551727" y="339.2068965517241" type="line"/>
      <point x="294.58620689655174" y="341.2068965517241"/>
      <point x="261.3103448275862" y="355.37931034482756"/>
      <point x="261.3103448275862" y="407.1034482758621" type="curve" smooth="yes"/>
      <point x="261.3103448275862" y="420.2758620689655"/>
      <point x="263.3103448275862" y="430.55172413793105"/>
      <point x="266.0344827586207" y="443.0" type="curve" smooth="yes"/>
      <point x="301.7586206896552" y="616.3448275862069" type="line" smooth="yes"/>
      <point x="306.0344827586207" y="635.448275862069"/>
      <point x="306.7586206896552" y="648.1724137931034"/>
      <point x="306.7586206896552" y="662.6206896551724" type="curve" smooth="yes"/>
      <point x="306.7586206896552" y="715.1034482758621"/>
      <point x="275.55172413793105" y="760.2758620689655"/>
      <point x="206.24137931034483" y="760.2758620689655" type="curve" smooth="yes"/>
      <point x="140.89655172413794" y="760.2758620689655" type="line"/>
      <point x="131.0689655172414" y="716.0689655172414" type="line"/>
      <point x="159.0" y="716.0689655172414" type="line" smooth="yes"/>
      <point x="191.44827586206898" y="716.0689655172414"/>
      <point x="205.34482758620692" y="698.3448275862069"/>
      <point x="205.34482758620692" y="666.1724137931034" type="curve" smooth="yes"/>
      <point x="205.34482758620692" y="643.7241379310345"/>
      <point x="203.3448275862069" y="629.4482758620691"/>
      <point x="199.34482758620692" y="611.7241379310344" type="curve" smooth="yes"/>
      <point x="164.44827586206898" y="450.7586206896552" type="line" smooth="yes"/>
      <point x="161.17241379310346" y="435.9310344827586"/>
      <point x="157.6206896551724" y="419.7241379310345"/>
      <point x="157.6206896551724" y="404.55172413793105" type="curve" smooth="yes"/>
      <point x="157.6206896551724" y="360.37931034482756"/>
      <point x="179.3448275862069" y="331.37931034482756"/>
      <point x="224.89655172413794" y="320.2758620689655" type="curve"/>
      <point x="224.3448275862069" y="315.44827586206895" type="line"/>
      <point x="159.51724137931032" y="302.0689655172414"/>
      <point x="123.62068965517243" y="258.44827586206895"/>
      <point x="109.89655172413792" y="193.55172413793102" type="curve" smooth="yes"/>
      <point x="72.89655172413794" y="20.379310344827587" type="line" smooth="yes"/>
      <point x="56.44827586206896" y="-54.86206896551724"/>
      <point x="37.37931034482759" y="-83.6896551724138"/>
      <point x="-9.344827586206897" y="-83.6896551724138" type="curve" smooth="yes"/>
      <point x="-38.0" y="-83.6896551724138" type="line"/>
    </contour>
  </outline>
</glyph>
<glyph name="asciitilde" format="2">
  <advance width="425.0"/>
  <unicode hex="007E"/>
  <outline>
    <contour>
      <point x="45.27586206896552" y="268.3448275862069" type="curve"/>
      <point x="102.0344827586207" y="268.3448275862069" type="line"/>
      <point x="107.20689655172414" y="349.8965517241379"/>
      <point x="120.75862068965516" y="387.0689655172414"/>
      <point x="152.20689655172413" y="387.0689655172414" type="curve" smooth="yes"/>
      <point x="172.9310344827586" y="387.0689655172414"/>
      <point x="186.3793103448276" y="369.17241379310343"/>
      <point x="216.48275862068968" y="333.3448275862069" type="curve" smooth="yes"/>
      <point x="263.7586206896552" y="276.62068965517244"/>
      <point x="288.03448275862064" y="268.3448275862069"/>
      <point x="318.0344827586207" y="268.3448275862069" type="curve" smooth="yes"/>
      <point x="392.0689655172414" y="268.3448275862069"/>
      <point x="414.1724137931035" y="359.51724137931035"/>
      <point x="419.0689655172414" y="445.37931034482756" type="curve"/>
      <point x="362.0344827586207" y="445.37931034482756" type="line"/>
      <point x="357.13793103448273" y="363.55172413793105"/>
      <point x="345.31034482758616" y="326.9310344827586"/>
      <point x="314.5862068965517" y="326.9310344827586" type="curve" smooth="yes"/>
      <point x="293.8620689655172" y="326.9310344827586"/>
      <point x="279.6896551724138" y="346.10344827586204"/>
      <point x="250.41379310344826" y="379.10344827586204" type="curve" smooth="yes"/>
      <point x="212.20689655172416" y="421.0344827586207"/>
      <point x="186.9310344827586" y="445.37931034482756"/>
      <point x="148.48275862068968" y="445.37931034482756" type="curve" smooth="yes"/>
      <point x="72.27586206896552" y="445.37931034482756"/>
      <point x="50.172413793103445" y="355.93103448275866"/>
    </contour>
  </outline>
</glyph>
<glyph name="twosuperior" format="2">
  <advance width="320.82758620689657"/>
  <unicode hex="00B2"/>
  <outline>
    <contour>
      <point x="60.55172413793103" y="386.0" type="line"/>
      <point x="311.2413793103448" y="386.0" type="line"/>
      <point x="338.2413793103448" y="506.9655172413793" type="line"/>
      <point x="309.13793103448273" y="506.9655172413793" type="line"/>
      <point x="302.13793103448273" y="485.9655172413793" type="line" smooth="yes"/>
      <point x="295.13793103448273" y="463.9655172413793"/>
      <point x="283.13793103448273" y="444.9655172413793"/>
      <point x="258.13793103448273" y="444.9655172413793" type="curve" smooth="yes"/>
      <point x="141.20689655172416" y="444.9655172413793" type="line"/>
      <point x="239.86206896551724" y="536.8620689655172" type="line" smooth="yes"/>
      <point x="337.6896551724138" y="627.9310344827586"/>
      <point x="368.2413793103448" y="674.6551724137931"/>
      <point x="368.2413793103448" y="733.8275862068965" type="curve" smooth="yes"/>
      <point x="368.2413793103448" y="788.2758620689656"/>
      <point x="328.9655172413793" y="824.0"/>
      <point x="264.8620689655172" y="824.0" type="curve" smooth="yes"/>
      <point x="188.0344827586207" y="824.0"/>
      <point x="140.20689655172416" y="774.6551724137931"/>
      <point x="140.20689655172416" y="728.0" type="curve" smooth="yes"/>
      <point x="140.20689655172416" y="700.448275862069"/>
      <point x="159.58620689655172" y="682.1724137931035"/>
      <point x="191.51724137931035" y="682.1724137931035" type="curve"/>
      <point x="198.24137931034483" y="735.1724137931035"/>
      <point x="220.68965517241378" y="782.8965517241379"/>
      <point x="255.48275862068965" y="782.8965517241379" type="curve" smooth="yes"/>
      <point x="283.1034482758621" y="782.8965517241379"/>
      <point x="294.2758620689655" y="758.4482758620691"/>
      <point x="294.2758620689655" y="727.1034482758621" type="curve" smooth="yes"/>
      <point x="294.2758620689655" y="671.6551724137931"/>
      <point x="266.65517241379314" y="622.9310344827586"/>
      <point x="191.48275862068965" y="547.6896551724138" type="curve" smooth="yes"/>
      <point x="71.75862068965517" y="429.0" type="line"/>
    </contour>
  </outline>
</glyph>
<glyph name="threesuperior" format="2">
  <advance width="320.82758620689657"/>
  <unicode hex="00B3"/>
  <outline>
    <contour>
      <point x="185.48275862068965" y="380.0" type="curve" smooth="yes"/>
      <point x="276.31034482758616" y="380.0"/>
      <point x="345.68689655172415" y="430.0"/>
      <point x="345.6896551724138" y="518.551724137931" type="curve" smooth="yes"/>
      <point x="345.6896551724138" y="568.8275862068965"/>
      <point x="316.41379310344826" y="603.7241379310345"/>
      <point x="269.13793103448273" y="610.7241379310345" type="curve"/>
      <point x="269.41379310344826" y="614.0" type="line"/>
      <point x="331.41379310344826" y="631.0"/>
      <point x="377.13793103448273" y="665.0"/>
      <point x="377.13793103448273" y="737.0" type="curve" smooth="yes"/>
      <point x="377.13793103448273" y="785.0"/>
      <point x="343.8620689655172" y="824.0"/>
      <point x="270.0344827586207" y="824.0" type="curve" smooth="yes"/>
      <point x="190.48275862068968" y="824.0"/>
      <point x="141.93103448275863" y="784.0"/>
      <point x="141.93103448275863" y="736.7241379310345" type="curve" smooth="yes"/>
      <point x="141.93103448275863" y="706.0"/>
      <point x="163.31034482758622" y="695.8965517241379"/>
      <point x="196.79310344827587" y="695.8965517241379" type="curve"/>
      <point x="205.68965517241378" y="741.6206896551724"/>
      <point x="220.86206896551724" y="781.6206896551724"/>
      <point x="262.48275862068965" y="781.6206896551724" type="curve" smooth="yes"/>
      <point x="286.1034482758621" y="781.6206896551724"/>
      <point x="301.0" y="763.6206896551724"/>
      <point x="301.0" y="732.551724137931" type="curve" smooth="yes"/>
      <point x="301.0" y="670.0"/>
      <point x="254.3793103448276" y="630.0"/>
      <point x="205.6551724137931" y="630.0" type="curve" smooth="yes"/>
      <point x="178.65517241379308" y="630.0" type="line"/>
      <point x="170.3793103448276" y="588.6206896551723" type="line"/>
      <point x="196.65517241379308" y="588.6206896551723" type="line" smooth="yes"/>
      <point x="249.10344827586206" y="588.6206896551723"/>
      <point x="271.10344827586204" y="559.6206896551724"/>
      <point x="271.10344827586204" y="516.0" type="curve" smooth="yes"/>
      <point x="271.10344827586204" y="452.10344827586204"/>
      <point x="234.93103448275863" y="426.37931034482756"/>
      <point x="192.75862068965517" y="426.37931034482756" type="curve" smooth="yes"/>
      <point x="143.0344827586207" y="426.37931034482756"/>
      <point x="126.0344827586207" y="472.9310344827586"/>
      <point x="128.0344827586207" y="512.3793103448276" type="curve"/>
      <point x="97.55172413793103" y="512.3793103448276"/>
      <point x="73.17241379310344" y="492.1034482758621"/>
      <point x="73.17241379310344" y="456.55172413793105" type="curve" smooth="yes"/>
      <point x="73.17241379310344" y="411.7241379310345"/>
      <point x="111.0" y="380.0"/>
    </contour>
  </outline>
</glyph>
<glyph name="multiply" format="2">
  <advance width="425.0"/>
  <unicode hex="00D7"/>
  <outline>
    <contour>
      <point x="106.86206896551724" y="152.93103448275863" type="line"/>
      <point x="233.48275862068965" y="312.3448275862069" type="line"/>
      <point x="359.1034482758621" y="153.48275862068965" type="line"/>
      <point x="403.7586206896552" y="190.13793103448276" type="line"/>
      <point x="270.41379310344826" y="358.2758620689655" type="line"/>
      <point x="403.7586206896552" y="525.4137931034483" type="line"/>
      <point x="358.82758620689657" y="562.0689655172414" type="line"/>
      <point x="233.48275862068965" y="404.9310344827586" type="line"/>
      <point x="106.86206896551724" y="563.344827586207" type="line"/>
      <point x="61.93103448275862" y="526.6896551724138" type="line"/>
      <point x="196.55172413793105" y="358.2758620689655" type="line"/>
      <point x="61.93103448275862" y="188.86206896551724" type="line"/>
    </contour>
  </outline>
</glyph>
<glyph name="divide" format="2">
  <advance width="425.0"/>
  <unicode hex="00F7"/>
  <outline>
    <contour>
      <point x="59.93103448275862" y="327.62068965517244" type="line"/>
      <point x="401.6896551724138" y="327.62068965517244" type="line"/>
      <point x="401.6896551724138" y="387.37931034482756" type="line"/>
      <point x="59.93103448275862" y="387.37931034482756" type="line"/>
    </contour>
    <contour>
      <point x="232.0344827586207" y="112.62068965517241" type="curve" smooth="yes"/>
      <point x="255.86206896551727" y="112.62068965517241"/>
      <point x="276.41379310344826" y="127.17241379310346"/>
      <point x="276.41379310344826" y="168.0" type="curve" smooth="yes"/>
      <point x="276.41379310344826" y="209.82758620689654"/>
      <point x="255.86206896551727" y="223.3793103448276"/>
      <point x="232.0344827586207" y="223.3793103448276" type="curve" smooth="yes"/>
      <point x="205.48275862068968" y="223.3793103448276"/>
      <point x="186.93103448275863" y="209.82758620689654"/>
      <point x="186.93103448275863" y="168.0" type="curve" smooth="yes"/>
      <point x="186.93103448275863" y="127.17241379310346"/>
      <point x="205.48275862068968" y="112.62068965517241"/>
    </contour>
    <contour>
      <point x="232.0344827586207" y="491.62068965517244" type="curve" smooth="yes"/>
      <point x="255.86206896551727" y="491.62068965517244"/>
      <point x="276.41379310344826" y="506.17241379310343"/>
      <point x="276.41379310344826" y="547.0" type="curve" smooth="yes"/>
      <point x="276.41379310344826" y="588.8275862068966"/>
      <point x="255.86206896551727" y="602.3793103448277"/>
      <point x="232.0344827586207" y="602.3793103448277" type="curve" smooth="yes"/>
      <point x="205.48275862068968" y="602.3793103448277"/>
      <point x="186.93103448275863" y="588.8275862068966"/>
      <point x="186.93103448275863" y="547.0" type="curve" smooth="yes"/>
      <point x="186.93103448275863" y="506.17241379310343"/>
      <point x="205.48275862068968" y="491.62068965517244"/>
    </contour>
  </outline>
</glyph>
<glyph name="udatta-deva" format="2">
  <unicode hex="0951"/>
  <anchor x="59.55172413793103" y="557.0344827586207" name="_vedic"/>
  <outline>
    <contour>
      <point x="111.72413793103449" y="922.5172413793103" type="line"/>
      <point x="163.48275862068965" y="922.5172413793103" type="line"/>
      <point x="204.75862068965517" y="1119.1724137931035" type="line"/>
      <point x="153.2758620689655" y="1119.1724137931035" type="line"/>
    </contour>
  </outline>
</glyph>
<glyph name="anudatta-deva" format="2">
  <unicode hex="0952"/>
  <anchor x="-59.0" y="0.0" name="_bottom"/>
  <outline>
    <contour>
      <point x="-368.37931034482756" y="-528.5172413793103" type="line"/>
      <point x="26.172413793103452" y="-528.5172413793103" type="line"/>
      <point x="41.0" y="-457.10344827586204" type="line"/>
      <point x="-353.55172413793105" y="-457.10344827586204" type="line"/>
    </contour>
  </outline>
</glyph>
<glyph name="danda-deva" format="2">
  <advance width="248.99999999999997"/>
  <unicode hex="0964"/>
  <outline>
    <contour>
      <point x="14.413793103448278" y="0.0" type="line"/>
      <point x="116.75862068965516" y="0.0" type="line"/>
      <point x="235.31034482758622" y="557.0344827586207" type="line"/>
      <point x="132.24137931034483" y="557.0344827586207" type="line"/>
    </contour>
  </outline>
</glyph>
<glyph name="dbldanda-deva" format="2">
  <advance width="452.1034482758621"/>
  <unicode hex="0965"/>
  <outline>
    <contour>
      <point x="217.51724137931035" y="0.0" type="line"/>
      <point x="319.8620689655172" y="0.0" type="line"/>
      <point x="438.41379310344826" y="557.0344827586207" type="line"/>
      <point x="335.3448275862069" y="557.0344827586207" type="line"/>
    </contour>
    <contour>
      <point x="14.413793103448278" y="0.0" type="line"/>
      <point x="116.75862068965516" y="0.0" type="line"/>
      <point x="235.31034482758622" y="557.0344827586207" type="line"/>
      <point x="132.24137931034483" y="557.0344827586207" type="line"/>
    </contour>
  </outline>
</glyph>
<glyph name="anusvara-tamil" format="2">
  <unicode hex="0B82"/>
  <note>
uni0B82
</note>
  <anchor x="59.55172413793103" y="557.0344827586207" name="_top"/>
  <outline>
    <contour>
      <point x="97.82758620689656" y="631.6206896551724" type="curve" smooth="yes"/>
      <point x="160.86206896551724" y="631.6206896551724"/>
      <point x="208.17241379310346" y="674.9310344827586"/>
      <point x="208.17241379310346" y="738.6896551724137" type="curve" smooth="yes"/>
      <point x="208.17241379310346" y="801.7241379310344"/>
      <point x="160.86206896551724" y="845.4827586206897"/>
      <point x="97.82758620689656" y="845.4827586206897" type="curve" smooth="yes"/>
      <point x="34.793103448275865" y="845.4827586206897"/>
      <point x="-12.517241379310345" y="801.7241379310344"/>
      <point x="-12.517241379310345" y="738.6896551724137" type="curve" smooth="yes"/>
      <point x="-12.517241379310345" y="674.9310344827586"/>
      <point x="34.793103448275865" y="631.6206896551724"/>
    </contour>
    <contour>
      <point x="97.82758620689656" y="690.0344827586206" type="curve" smooth="yes"/>
      <point x="70.27586206896552" y="690.0344827586206"/>
      <point x="50.62068965517241" y="710.1379310344828"/>
      <point x="50.62068965517241" y="738.6896551724137" type="curve" smooth="yes"/>
      <point x="50.62068965517241" y="767.2413793103448"/>
      <point x="70.27586206896552" y="787.3448275862069"/>
      <point x="97.82758620689656" y="787.3448275862069" type="curve" smooth="yes"/>
      <point x="125.37931034482759" y="787.3448275862069"/>
      <point x="145.0344827586207" y="767.2413793103448"/>
      <point x="145.0344827586207" y="738.6896551724137" type="curve" smooth="yes"/>
      <point x="145.0344827586207" y="710.1379310344828"/>
      <point x="125.37931034482759" y="690.0344827586206"/>
    </contour>
  </outline>
</glyph>
<glyph name="visarga-tamil" format="2">
  <advance width="680.2758620689655"/>
  <unicode hex="0B83"/>
  <note>
uni0B83
</note>
  <outline>
    <contour>
      <point x="121.99999999999999" y="-1.3793103448275865" type="curve" smooth="yes"/>
      <point x="221.48275862068965" y="-1.3793103448275865"/>
      <point x="291.13793103448273" y="111.89655172413792"/>
      <point x="291.86206896551727" y="233.1034482758621" type="curve" smooth="yes"/>
      <point x="292.58620689655174" y="321.82758620689657"/>
      <point x="251.0344827586207" y="370.1034482758621"/>
      <point x="185.55172413793102" y="370.1034482758621" type="curve" smooth="yes"/>
      <point x="82.06896551724138" y="370.1034482758621"/>
      <point x="21.965517241379313" y="234.3793103448276"/>
      <point x="21.965517241379313" y="128.55172413793105" type="curve" smooth="yes"/>
      <point x="21.965517241379313" y="50.99999999999999"/>
      <point x="60.793103448275865" y="-1.3793103448275865"/>
    </contour>
    <contour>
      <point x="120.3448275862069" y="56.48275862068966" type="curve" smooth="yes"/>
      <point x="84.55172413793103" y="56.48275862068966"/>
      <point x="72.0" y="89.20689655172414"/>
      <point x="72.0" y="135.6551724137931" type="curve" smooth="yes"/>
      <point x="72.0" y="206.75862068965517"/>
      <point x="109.0" y="313.0689655172414"/>
      <point x="168.06896551724137" y="313.0689655172414" type="curve" smooth="yes"/>
      <point x="201.9655172413793" y="313.0689655172414"/>
      <point x="217.3103448275862" y="286.7931034482758"/>
      <point x="217.3103448275862" y="237.0" type="curve" smooth="yes"/>
      <point x="217.3103448275862" y="155.6896551724138"/>
      <point x="180.20689655172413" y="56.48275862068966"/>
    </contour>
    <contour>
      <point x="446.6206896551724" y="-1.3793103448275865" type="curve" smooth="yes"/>
      <point x="546.1034482758621" y="-1.3793103448275865"/>
      <point x="615.7586206896551" y="111.89655172413792"/>
      <point x="616.4827586206897" y="233.1034482758621" type="curve" smooth="yes"/>
      <point x="617.2068965517241" y="321.82758620689657"/>
      <point x="575.655172413793" y="370.1034482758621"/>
      <point x="510.1724137931035" y="370.1034482758621" type="curve" smooth="yes"/>
      <point x="406.6896551724138" y="370.1034482758621"/>
      <point x="346.58620689655174" y="234.3793103448276"/>
      <point x="346.58620689655174" y="128.55172413793105" type="curve" smooth="yes"/>
      <point x="346.58620689655174" y="50.99999999999999"/>
      <point x="385.4137931034483" y="-1.3793103448275865"/>
    </contour>
    <contour>
      <point x="444.96551724137936" y="56.48275862068966" type="curve" smooth="yes"/>
      <point x="409.17241379310343" y="56.48275862068966"/>
      <point x="396.62068965517244" y="89.20689655172414"/>
      <point x="396.62068965517244" y="135.6551724137931" type="curve" smooth="yes"/>
      <point x="396.62068965517244" y="206.75862068965517"/>
      <point x="433.62068965517244" y="313.0689655172414"/>
      <point x="492.68965517241384" y="313.0689655172414" type="curve" smooth="yes"/>
      <point x="526.5862068965517" y="313.0689655172414"/>
      <point x="541.9310344827586" y="286.7931034482758"/>
      <point x="541.9310344827586" y="237.0" type="curve" smooth="yes"/>
      <point x="541.9310344827586" y="155.6896551724138"/>
      <point x="504.82758620689657" y="56.48275862068966"/>
    </contour>
    <contour>
      <point x="373.51724137931035" y="415.0344827586207" type="curve" smooth="yes"/>
      <point x="473.0" y="415.0344827586207"/>
      <point x="542.6551724137931" y="528.3103448275863"/>
      <point x="543.3793103448277" y="649.5172413793103" type="curve" smooth="yes"/>
      <point x="544.1034482758621" y="738.2413793103449"/>
      <point x="502.551724137931" y="786.5172413793103"/>
      <point x="437.0689655172414" y="786.5172413793103" type="curve" smooth="yes"/>
      <point x="333.58620689655174" y="786.5172413793103"/>
      <point x="273.48275862068965" y="650.7931034482759"/>
      <point x="273.48275862068965" y="544.9655172413793" type="curve" smooth="yes"/>
      <point x="273.48275862068965" y="467.41379310344826"/>
      <point x="312.31034482758616" y="415.0344827586207"/>
    </contour>
    <contour>
      <point x="371.86206896551727" y="472.8965517241379" type="curve" smooth="yes"/>
      <point x="336.0689655172414" y="472.8965517241379"/>
      <point x="323.51724137931035" y="505.6206896551724"/>
      <point x="323.51724137931035" y="552.0689655172414" type="curve" smooth="yes"/>
      <point x="323.51724137931035" y="623.1724137931035"/>
      <point x="360.51724137931035" y="729.4827586206897"/>
      <point x="419.58620689655174" y="729.4827586206897" type="curve" smooth="yes"/>
      <point x="453.48275862068965" y="729.4827586206897"/>
      <point x="468.8275862068965" y="703.2068965517241"/>
      <point x="468.8275862068965" y="653.4137931034483" type="curve" smooth="yes"/>
      <point x="468.8275862068965" y="572.103448275862"/>
      <point x="431.7241379310345" y="472.8965517241379"/>
    </contour>
  </outline>
</glyph>
<glyph name="a-tamil" format="2">
  <advance width="989.6206896551724"/>
  <unicode hex="0B85"/>
  <note>
uni0B85
</note>
  <anchor x="425.448275862069" y="0.0" name="bottom"/>
  <anchor x="257.7241379310345" y="-126.9655172413793" name="nukta"/>
  <anchor x="531.551724137931" y="557.0344827586207" name="top"/>
  <anchor x="533.551724137931" y="557.0344827586207" name="vedic"/>
  <outline>
    <contour>
      <point x="716.9310344827586" y="-189.24137931034483" type="line"/>
      <point x="819.551724137931" y="-189.24137931034483" type="line"/>
      <point x="978.2068965517242" y="557.0344827586207" type="line"/>
      <point x="875.8620689655172" y="557.0344827586207" type="line"/>
      <point x="792.7586206896551" y="169.06896551724137" type="line"/>
      <point x="71.27586206896552" y="169.06896551724137" type="line" smooth="yes"/>
      <point x="17.82758620689655" y="169.06896551724137"/>
      <point x="-9.758620689655173" y="130.96551724137933"/>
      <point x="-9.758620689655173" y="78.86206896551724" type="curve" smooth="yes"/>
      <point x="-9.758620689655173" y="-15.275862068965521"/>
      <point x="89.20689655172413" y="-126.9655172413793"/>
      <point x="257.7241379310345" y="-126.9655172413793" type="curve" smooth="yes"/>
      <point x="520.4137931034484" y="-126.9655172413793"/>
      <point x="716.5172413793103" y="57.172413793103445"/>
      <point x="716.5172413793103" y="316.6896551724138" type="curve" smooth="yes"/>
      <point x="716.5172413793103" y="476.551724137931"/>
      <point x="619.7241379310345" y="562.0344827586207"/>
      <point x="494.82758620689657" y="562.0344827586207" type="curve" smooth="yes"/>
      <point x="377.6896551724138" y="562.0344827586207"/>
      <point x="279.9310344827586" y="480.2068965517241"/>
      <point x="279.9310344827586" y="360.6206896551724" type="curve" smooth="yes"/>
      <point x="279.9310344827586" y="298.5862068965517"/>
      <point x="316.3448275862069" y="242.0344827586207"/>
      <point x="384.7241379310345" y="242.0344827586207" type="curve" smooth="yes"/>
      <point x="469.65517241379314" y="242.0344827586207"/>
      <point x="526.4137931034483" y="302.2068965517241"/>
      <point x="526.4137931034483" y="387.17241379310343" type="curve" smooth="yes"/>
      <point x="526.4137931034483" y="447.10344827586204"/>
      <point x="493.6896551724138" y="507.55172413793105"/>
      <point x="448.344827586207" y="520.0344827586207" type="curve"/>
      <point x="403.6551724137931" y="519.3793103448276" type="line"/>
      <point x="432.48275862068965" y="502.0"/>
      <point x="451.9310344827586" y="454.7241379310345"/>
      <point x="451.9310344827586" y="406.6551724137931" type="curve" smooth="yes"/>
      <point x="451.9310344827586" y="350.0"/>
      <point x="423.93103448275866" y="300.1724137931035"/>
      <point x="376.2758620689656" y="300.1724137931035" type="curve" smooth="yes"/>
      <point x="347.37931034482756" y="300.1724137931035"/>
      <point x="330.62068965517244" y="330.44827586206895"/>
      <point x="330.62068965517244" y="366.27586206896547" type="curve" smooth="yes"/>
      <point x="330.62068965517244" y="444.3793103448276"/>
      <point x="394.44827586206895" y="505.82758620689657"/>
      <point x="477.8965517241379" y="505.82758620689657" type="curve" smooth="yes"/>
      <point x="562.2068965517241" y="505.82758620689657"/>
      <point x="615.9310344827587" y="443.2758620689655"/>
      <point x="615.9310344827587" y="322.31034482758616" type="curve" smooth="yes"/>
      <point x="615.9310344827587" y="115.93103448275862"/>
      <point x="477.1724137931034" y="-70.75862068965517"/>
      <point x="259.6896551724138" y="-70.75862068965517" type="curve" smooth="yes"/>
      <point x="120.86206896551722" y="-70.75862068965517"/>
      <point x="47.10344827586207" y="17.75862068965517"/>
      <point x="47.10344827586207" y="80.3103448275862" type="curve" smooth="yes"/>
      <point x="47.10344827586207" y="103.13793103448276"/>
      <point x="58.103448275862064" y="113.13793103448275"/>
      <point x="77.6551724137931" y="113.13793103448275" type="curve" smooth="yes"/>
      <point x="781.2068965517242" y="113.13793103448275" type="line"/>
    </contour>
  </outline>
</glyph>
<glyph name="aa-tamil" format="2">
  <advance width="1133.896551724138"/>
  <unicode hex="0B86"/>
  <note>
uni0B86
</note>
  <anchor x="490.58620689655174" y="0.0" name="bottom"/>
  <anchor x="251.41379310344826" y="-126.9655172413793" name="nukta"/>
  <anchor x="616.4827586206897" y="557.0344827586207" name="top"/>
  <anchor x="617.4827586206897" y="557.0344827586207" name="vedic"/>
  <outline>
    <contour>
      <point x="613.1724137931034" y="-408.7241379310345" type="curve" smooth="yes"/>
      <point x="818.4137931034483" y="-408.7241379310345"/>
      <point x="1045.8275862068965" y="-252.75862068965515"/>
      <point x="1045.8275862068965" y="-55.93103448275862" type="curve" smooth="yes"/>
      <point x="1045.8275862068965" y="17.000000000000004"/>
      <point x="1011.5172413793103" y="55.48275862068966"/>
      <point x="955.0344827586208" y="55.48275862068966" type="curve" smooth="yes"/>
      <point x="895.6206896551724" y="55.48275862068966"/>
      <point x="844.5862068965517" y="0.4827586206896576"/>
      <point x="818.8275862068965" y="-88.51724137931035" type="curve"/>
      <point x="836.4827586206898" y="-96.51724137931035" type="line"/>
      <point x="846.7586206896551" y="-49.758620689655174"/>
      <point x="870.3793103448276" y="-27.689655172413794"/>
      <point x="899.2068965517242" y="-27.689655172413794" type="curve" smooth="yes"/>
      <point x="925.9310344827587" y="-27.689655172413794"/>
      <point x="942.2068965517241" y="-45.96551724137931"/>
      <point x="942.2068965517241" y="-77.24137931034483" type="curve" smooth="yes"/>
      <point x="942.2068965517241" y="-231.0689655172414"/>
      <point x="770.6206896551724" y="-353.0689655172414"/>
      <point x="617.2758620689656" y="-353.0689655172414" type="curve" smooth="yes"/>
      <point x="545.6206896551724" y="-353.0689655172414"/>
      <point x="504.82758620689657" y="-327.44827586206895"/>
      <point x="504.82758620689657" y="-276.06896551724134" type="curve" smooth="yes"/>
      <point x="504.82758620689657" y="-228.79310344827584"/>
      <point x="546.448275862069" y="-201.0"/>
      <point x="606.448275862069" y="-184.27586206896552" type="curve"/>
      <point x="593.1724137931035" y="-132.44827586206895" type="line"/>
      <point x="509.2413793103448" y="-157.44827586206898"/>
      <point x="446.6206896551724" y="-200.68965517241378"/>
      <point x="446.6206896551724" y="-284.0689655172414" type="curve" smooth="yes"/>
      <point x="446.6206896551724" y="-360.62068965517244"/>
      <point x="514.0344827586207" y="-408.7241379310345"/>
    </contour>
    <component base="a-tamil"/>
  </outline>
</glyph>
<glyph name="i-tamil" format="2">
  <advance width="773.2413793103449"/>
  <unicode hex="0B87"/>
  <note>
uni0B87
</note>
  <anchor x="310.82758620689657" y="0.0" name="bottom"/>
  <anchor x="250.55172413793107" y="-273.3793103448276" name="nukta"/>
  <anchor x="465.6206896551724" y="819.4137931034483" name="top"/>
  <anchor x="409.10344827586204" y="557.0344827586207" name="vedic"/>
  <outline>
    <contour>
      <point x="80.79310344827586" y="-301.6896551724138" type="curve" smooth="yes"/>
      <point x="334.2413793103448" y="-301.6896551724138"/>
      <point x="598.5862068965516" y="50.3448275862069"/>
      <point x="598.5862068965516" y="339.0689655172414" type="curve" smooth="yes"/>
      <point x="598.5862068965516" y="486.3103448275862"/>
      <point x="520.2068965517242" y="562.0344827586207"/>
      <point x="409.10344827586204" y="562.0344827586207" type="curve" smooth="yes"/>
      <point x="298.2413793103448" y="562.0344827586207"/>
      <point x="209.2758620689655" y="464.96551724137936"/>
      <point x="209.2758620689655" y="354.0" type="curve" smooth="yes"/>
      <point x="209.2758620689655" y="291.86206896551727"/>
      <point x="247.6896551724138" y="242.75862068965517"/>
      <point x="313.51724137931035" y="242.75862068965517" type="curve" smooth="yes"/>
      <point x="386.9310344827586" y="242.75862068965517"/>
      <point x="445.68965517241384" y="302.3103448275862"/>
      <point x="445.68965517241384" y="385.44827586206895" type="curve" smooth="yes"/>
      <point x="445.68965517241384" y="450.7241379310345"/>
      <point x="415.93103448275866" y="499.0344827586207"/>
      <point x="373.68965517241384" y="520.3103448275862" type="curve"/>
      <point x="327.2068965517241" y="514.2068965517241" type="line"/>
      <point x="353.3793103448276" y="496.2068965517242"/>
      <point x="373.1034482758621" y="453.3448275862069"/>
      <point x="373.1034482758621" y="405.2758620689655" type="curve" smooth="yes"/>
      <point x="373.1034482758621" y="351.17241379310343"/>
      <point x="348.1034482758621" y="299.44827586206895"/>
      <point x="301.89655172413796" y="299.44827586206895" type="curve" smooth="yes"/>
      <point x="276.51724137931035" y="299.44827586206895"/>
      <point x="260.2413793103448" y="322.6551724137931"/>
      <point x="260.2413793103448" y="358.37931034482756" type="curve" smooth="yes"/>
      <point x="260.2413793103448" y="430.2413793103448"/>
      <point x="310.55172413793105" y="505.82758620689657"/>
      <point x="391.44827586206895" y="505.82758620689657" type="curve" smooth="yes"/>
      <point x="464.82758620689657" y="505.82758620689657"/>
      <point x="504.55172413793105" y="452.89655172413796"/>
      <point x="504.55172413793105" y="353.3103448275862" type="curve" smooth="yes"/>
      <point x="504.55172413793105" y="96.55172413793103"/>
      <point x="301.48275862068965" y="-245.20689655172413"/>
      <point x="86.89655172413794" y="-245.20689655172413" type="curve" smooth="yes"/>
      <point x="31.55172413793104" y="-245.20689655172413"/>
      <point x="4.448275862068964" y="-213.41379310344828"/>
      <point x="4.448275862068964" y="-162.13793103448276" type="curve" smooth="yes"/>
      <point x="4.448275862068964" y="-39.41379310344828"/>
      <point x="136.0" y="54.793103448275865"/>
      <point x="298.2068965517241" y="54.793103448275865" type="curve" smooth="yes"/>
      <point x="433.27586206896547" y="54.793103448275865"/>
      <point x="556.5172413793103" y="-25.413793103448278"/>
      <point x="556.5172413793103" y="-130.51724137931032" type="curve" smooth="yes"/>
      <point x="556.5172413793103" y="-206.86206896551724"/>
      <point x="513.2413793103449" y="-245.20689655172413"/>
      <point x="438.6206896551724" y="-245.20689655172413" type="curve" smooth="yes"/>
      <point x="270.3448275862069" y="-245.20689655172413"/>
      <point x="121.89655172413794" y="-3.8965517241379306"/>
      <point x="121.89655172413794" y="277.13793103448273" type="curve" smooth="yes"/>
      <point x="121.89655172413794" y="530.1034482758621"/>
      <point x="222.20689655172413" y="722.9655172413793"/>
      <point x="452.72413793103453" y="722.9655172413793" type="curve" smooth="yes"/>
      <point x="627.344827586207" y="722.9655172413793"/>
      <point x="738.0344827586207" y="608.3103448275862"/>
      <point x="689.4137931034483" y="379.2068965517241" type="curve" smooth="yes"/>
      <point x="628.0689655172414" y="88.48275862068967" type="line"/>
      <point x="684.551724137931" y="88.48275862068967" type="line"/>
      <point x="747.1724137931035" y="384.6551724137931" type="line" smooth="yes"/>
      <point x="804.9999999999999" y="657.7586206896551"/>
      <point x="685.4137931034483" y="819.4137931034483"/>
      <point x="465.6206896551724" y="819.4137931034483" type="curve" smooth="yes"/>
      <point x="199.86206896551724" y="819.4137931034483"/>
      <point x="63.41379310344828" y="579.0689655172414"/>
      <point x="63.41379310344828" y="278.7241379310345" type="curve" smooth="yes"/>
      <point x="63.41379310344828" y="-32.03448275862069"/>
      <point x="230.3103448275862" y="-301.6896551724138"/>
      <point x="447.6896551724138" y="-301.6896551724138" type="curve" smooth="yes"/>
      <point x="546.551724137931" y="-301.6896551724138"/>
      <point x="618.3793103448276" y="-244.41379310344828"/>
      <point x="618.3793103448276" y="-133.0689655172414" type="curve" smooth="yes"/>
      <point x="618.3793103448276" y="12.965517241379308"/>
      <point x="472.31034482758616" y="109.17241379310344"/>
      <point x="300.03448275862064" y="109.17241379310344" type="curve" smooth="yes"/>
      <point x="103.93103448275863" y="109.17241379310344"/>
      <point x="-57.86206896551724" y="-14.10344827586207"/>
      <point x="-57.86206896551724" y="-168.58620689655172" type="curve" smooth="yes"/>
      <point x="-57.86206896551724" y="-246.51724137931035"/>
      <point x="-6.482758620689655" y="-301.6896551724138"/>
    </contour>
  </outline>
</glyph>
<glyph name="ii-tamil" format="2">
  <advance width="615.3103448275863"/>
  <unicode hex="0B88"/>
  <note>
uni0B88
</note>
  <anchor x="261.4137931034483" y="0.0" name="bottom"/>
  <anchor x="262.1379310344828" y="0.0" name="nukta"/>
  <anchor x="381.51724137931035" y="557.0344827586207" name="top"/>
  <anchor x="382.2413793103449" y="557.0344827586207" name="vedic"/>
  <outline>
    <contour>
      <point x="12.137931034482756" y="0.0" type="line"/>
      <point x="68.89655172413792" y="0.0" type="line"/>
      <point x="175.17241379310346" y="501.3793103448276" type="line"/>
      <point x="367.17241379310343" y="501.3793103448276" type="line"/>
      <point x="260.8965517241379" y="0.0" type="line"/>
      <point x="363.7931034482758" y="0.0" type="line"/>
      <point x="470.0689655172414" y="501.3793103448276" type="line"/>
      <point x="622.0344827586207" y="501.3793103448276" type="line"/>
      <point x="634.3103448275862" y="557.0344827586207" type="line"/>
      <point x="129.96551724137933" y="557.0344827586207" type="line"/>
    </contour>
    <contour>
      <point x="220.17241379310343" y="212.6206896551724" type="curve" smooth="yes"/>
      <point x="250.55172413793105" y="212.6206896551724"/>
      <point x="275.48275862068965" y="237.0"/>
      <point x="275.48275862068965" y="265.65517241379314" type="curve" smooth="yes"/>
      <point x="275.48275862068965" y="294.0344827586207"/>
      <point x="250.55172413793105" y="318.86206896551727"/>
      <point x="220.17241379310343" y="318.86206896551727" type="curve" smooth="yes"/>
      <point x="189.79310344827587" y="318.86206896551727"/>
      <point x="165.13793103448276" y="294.0344827586207"/>
      <point x="165.13793103448276" y="265.65517241379314" type="curve" smooth="yes"/>
      <point x="165.13793103448276" y="237.0"/>
      <point x="189.79310344827587" y="212.6206896551724"/>
    </contour>
    <contour>
      <point x="515.7931034482759" y="212.6206896551724" type="curve" smooth="yes"/>
      <point x="546.1724137931035" y="212.6206896551724"/>
      <point x="571.1034482758621" y="237.0"/>
      <point x="571.1034482758621" y="265.65517241379314" type="curve" smooth="yes"/>
      <point x="571.1034482758621" y="294.0344827586207"/>
      <point x="546.1724137931035" y="318.86206896551727"/>
      <point x="515.7931034482759" y="318.86206896551727" type="curve" smooth="yes"/>
      <point x="485.4137931034483" y="318.86206896551727"/>
      <point x="460.7586206896551" y="294.0344827586207"/>
      <point x="460.7586206896551" y="265.65517241379314" type="curve" smooth="yes"/>
      <point x="460.7586206896551" y="237.0"/>
      <point x="485.4137931034483" y="212.6206896551724"/>
    </contour>
  </outline>
</glyph>
<glyph name="u-tamil" format="2">
  <advance width="736.6551724137931"/>
  <unicode hex="0B89"/>
  <note>
uni0B89
</note>
  <anchor x="329.13793103448273" y="0.0" name="bottom"/>
  <anchor x="329.86206896551727" y="0.0" name="nukta"/>
  <anchor x="451.6896551724138" y="557.0344827586207" name="top"/>
  <anchor x="450.6896551724137" y="557.0344827586207" name="vedic"/>
  <outline>
    <contour>
      <point x="76.44827586206897" y="0.0" type="curve" smooth="yes"/>
      <point x="652.9655172413794" y="0.0" type="line"/>
      <point x="664.5172413793103" y="55.93103448275862" type="line"/>
      <point x="83.44827586206897" y="55.93103448275862" type="line" smooth="yes"/>
      <point x="62.82758620689655" y="55.93103448275862"/>
      <point x="46.55172413793103" y="71.27586206896552"/>
      <point x="46.55172413793103" y="92.10344827586208" type="curve" smooth="yes"/>
      <point x="46.55172413793103" y="122.0"/>
      <point x="68.89655172413794" y="134.44827586206895"/>
      <point x="87.44827586206895" y="134.44827586206895" type="curve" smooth="yes"/>
      <point x="256.1724137931035" y="134.44827586206895" type="line" smooth="yes"/>
      <point x="405.17241379310343" y="134.44827586206895"/>
      <point x="522.1034482758621" y="221.0"/>
      <point x="522.1034482758621" y="372.6551724137931" type="curve" smooth="yes"/>
      <point x="522.1034482758621" y="500.0344827586207"/>
      <point x="428.9655172413793" y="562.0344827586207"/>
      <point x="324.8965517241379" y="562.0344827586207" type="curve" smooth="yes"/>
      <point x="209.03448275862073" y="562.0344827586207"/>
      <point x="116.24137931034484" y="468.0344827586207"/>
      <point x="116.24137931034484" y="358.1034482758621" type="curve" smooth="yes"/>
      <point x="116.24137931034484" y="296.6206896551724"/>
      <point x="152.17241379310346" y="246.17241379310343"/>
      <point x="213.99999999999997" y="246.17241379310343" type="curve" smooth="yes"/>
      <point x="292.3103448275862" y="246.17241379310343"/>
      <point x="351.7931034482759" y="305.8275862068965"/>
      <point x="351.7931034482759" y="396.37931034482756" type="curve" smooth="yes"/>
      <point x="351.7931034482759" y="453.2068965517242"/>
      <point x="322.9655172413793" y="505.03448275862064"/>
      <point x="279.2413793103448" y="521.4827586206897" type="curve"/>
      <point x="233.27586206896552" y="518.2068965517241" type="line"/>
      <point x="262.48275862068965" y="496.48275862068965"/>
      <point x="277.7586206896552" y="448.3103448275862"/>
      <point x="277.7586206896552" y="405.58620689655174" type="curve" smooth="yes"/>
      <point x="277.7586206896552" y="352.10344827586204"/>
      <point x="255.3793103448276" y="303.2068965517241"/>
      <point x="208.20689655172416" y="303.2068965517241" type="curve" smooth="yes"/>
      <point x="180.20689655172413" y="303.2068965517241"/>
      <point x="167.6551724137931" y="329.37931034482756"/>
      <point x="167.6551724137931" y="361.82758620689657" type="curve" smooth="yes"/>
      <point x="167.6551724137931" y="437.55172413793105"/>
      <point x="222.86206896551724" y="506.3793103448276"/>
      <point x="308.2413793103448" y="506.3793103448276" type="curve" smooth="yes"/>
      <point x="375.2413793103448" y="506.3793103448276"/>
      <point x="423.51724137931035" y="466.58620689655174"/>
      <point x="423.51724137931035" y="377.31034482758616" type="curve" smooth="yes"/>
      <point x="423.51724137931035" y="266.2068965517241"/>
      <point x="355.3448275862069" y="188.82758620689654"/>
      <point x="253.51724137931035" y="188.82758620689654" type="curve" smooth="yes"/>
      <point x="93.27586206896552" y="188.82758620689654" type="line" smooth="yes"/>
      <point x="33.172413793103445" y="188.82758620689654"/>
      <point x="-8.379310344827585" y="146.48275862068965"/>
      <point x="-8.379310344827585" y="86.6551724137931" type="curve" smooth="yes"/>
      <point x="-8.379310344827585" y="41.0"/>
      <point x="20.89655172413793" y="0.0"/>
    </contour>
  </outline>
</glyph>
<glyph name="uu-tamil" format="2">
  <advance width="1290.4137931034481"/>
  <unicode hex="0B8A"/>
  <note>
uni0B8A
</note>
  <anchor x="601.5862068965517" y="0.0" name="bottom"/>
  <anchor x="601.5862068965517" y="0.0" name="nukta"/>
  <anchor x="722.3103448275862" y="557.0344827586207" name="top"/>
  <anchor x="723.1379310344827" y="557.0344827586207" name="vedic"/>
  <outline>
    <contour>
      <point x="76.44827586206897" y="0.0" type="curve" smooth="yes"/>
      <point x="1204.6206896551726" y="0.0" type="line"/>
      <point x="1216.1724137931035" y="55.93103448275862" type="line"/>
      <point x="83.44827586206897" y="55.93103448275862" type="line" smooth="yes"/>
      <point x="62.82758620689655" y="55.93103448275862"/>
      <point x="46.55172413793103" y="71.27586206896552"/>
      <point x="46.55172413793103" y="92.10344827586208" type="curve" smooth="yes"/>
      <point x="46.55172413793103" y="122.0"/>
      <point x="68.89655172413794" y="134.44827586206895"/>
      <point x="87.44827586206895" y="134.44827586206895" type="curve" smooth="yes"/>
      <point x="256.1724137931035" y="134.44827586206895" type="line" smooth="yes"/>
      <point x="405.17241379310343" y="134.44827586206895"/>
      <point x="522.1034482758621" y="221.0"/>
      <point x="522.1034482758621" y="372.6551724137931" type="curve" smooth="yes"/>
      <point x="522.1034482758621" y="500.0344827586207"/>
      <point x="428.9655172413793" y="562.0344827586207"/>
      <point x="324.8965517241379" y="562.0344827586207" type="curve" smooth="yes"/>
      <point x="209.03448275862073" y="562.0344827586207"/>
      <point x="116.24137931034484" y="468.0344827586207"/>
      <point x="116.24137931034484" y="358.1034482758621" type="curve" smooth="yes"/>
      <point x="116.24137931034484" y="296.6206896551724"/>
      <point x="152.17241379310346" y="246.17241379310343"/>
      <point x="213.99999999999997" y="246.17241379310343" type="curve" smooth="yes"/>
      <point x="292.3103448275862" y="246.17241379310343"/>
      <point x="351.7931034482759" y="305.8275862068965"/>
      <point x="351.7931034482759" y="396.37931034482756" type="curve" smooth="yes"/>
      <point x="351.7931034482759" y="453.2068965517242"/>
      <point x="322.9655172413793" y="505.03448275862064"/>
      <point x="279.2413793103448" y="521.4827586206897" type="curve"/>
      <point x="233.27586206896552" y="518.2068965517241" type="line"/>
      <point x="262.48275862068965" y="496.48275862068965"/>
      <point x="277.7586206896552" y="448.3103448275862"/>
      <point x="277.7586206896552" y="405.58620689655174" type="curve" smooth="yes"/>
      <point x="277.7586206896552" y="352.10344827586204"/>
      <point x="255.3793103448276" y="303.2068965517241"/>
      <point x="208.20689655172416" y="303.2068965517241" type="curve" smooth="yes"/>
      <point x="180.20689655172413" y="303.2068965517241"/>
      <point x="167.6551724137931" y="329.37931034482756"/>
      <point x="167.6551724137931" y="361.82758620689657" type="curve" smooth="yes"/>
      <point x="167.6551724137931" y="437.55172413793105"/>
      <point x="222.86206896551724" y="506.3793103448276"/>
      <point x="308.2413793103448" y="506.3793103448276" type="curve" smooth="yes"/>
      <point x="375.2413793103448" y="506.3793103448276"/>
      <point x="423.51724137931035" y="466.58620689655174"/>
      <point x="423.51724137931035" y="377.31034482758616" type="curve" smooth="yes"/>
      <point x="423.51724137931035" y="266.2068965517241"/>
      <point x="355.3448275862069" y="188.82758620689654"/>
      <point x="253.51724137931035" y="188.82758620689654" type="curve" smooth="yes"/>
      <point x="93.27586206896552" y="188.82758620689654" type="line" smooth="yes"/>
      <point x="33.172413793103445" y="188.82758620689654"/>
      <point x="-8.379310344827585" y="146.48275862068965"/>
      <point x="-8.379310344827585" y="86.6551724137931" type="curve" smooth="yes"/>
      <point x="-8.379310344827585" y="41.0"/>
      <point x="20.89655172413793" y="0.0"/>
    </contour>
    <contour>
      <point x="676.0689655172414" y="105.75862068965517" type="curve" smooth="yes"/>
      <point x="761.7586206896551" y="105.75862068965517"/>
      <point x="828.7586206896551" y="182.20689655172416"/>
      <point x="828.7586206896551" y="280.10344827586204" type="curve" smooth="yes"/>
      <point x="828.7586206896551" y="354.37931034482756"/>
      <point x="783.2068965517241" y="392.2068965517241"/>
      <point x="729.0" y="392.2068965517241" type="curve" smooth="yes"/>
      <point x="667.6551724137931" y="392.2068965517241"/>
      <point x="611.8620689655173" y="332.17241379310343"/>
      <point x="589.7586206896552" y="251.82758620689654" type="curve"/>
      <point x="601.0689655172414" y="216.6551724137931" type="line"/>
      <point x="613.7241379310344" y="282.48275862068965"/>
      <point x="658.7931034482759" y="328.1034482758621"/>
      <point x="696.3448275862069" y="328.1034482758621" type="curve" smooth="yes"/>
      <point x="729.0" y="328.1034482758621"/>
      <point x="746.0689655172414" y="303.7931034482759"/>
      <point x="746.0689655172414" y="262.65517241379314" type="curve" smooth="yes"/>
      <point x="746.0689655172414" y="210.0344827586207"/>
      <point x="717.1724137931035" y="161.24137931034483"/>
      <point x="668.6206896551723" y="161.24137931034483" type="curve" smooth="yes"/>
      <point x="631.5172413793103" y="161.24137931034483"/>
      <point x="613.2068965517241" y="199.3448275862069"/>
      <point x="613.2068965517241" y="263.17241379310343" type="curve" smooth="yes"/>
      <point x="613.2068965517241" y="386.1034482758621"/>
      <point x="676.4137931034484" y="506.3793103448276"/>
      <point x="790.6896551724138" y="506.3793103448276" type="curve" smooth="yes"/>
      <point x="883.896551724138" y="506.3793103448276"/>
      <point x="923.0344827586206" y="427.4137931034483"/>
      <point x="901.0344827586207" y="315.9655172413793" type="curve"/>
      <point x="948.7931034482759" y="315.9655172413793" type="line"/>
      <point x="977.2413793103449" y="454.41379310344826"/>
      <point x="923.0" y="562.0344827586207"/>
      <point x="797.4137931034483" y="562.0344827586207" type="curve" smooth="yes"/>
      <point x="657.0344827586207" y="562.0344827586207"/>
      <point x="559.7241379310345" y="419.1034482758621"/>
      <point x="559.7241379310345" y="259.8965517241379" type="curve" smooth="yes"/>
      <point x="559.7241379310345" y="176.13793103448276"/>
      <point x="595.5172413793103" y="105.75862068965517"/>
    </contour>
    <contour>
      <point x="856.4827586206898" y="109.48275862068967" type="line"/>
      <point x="952.1379310344828" y="109.48275862068967" type="line"/>
      <point x="1035.1379310344828" y="503.9310344827586" type="line"/>
      <point x="1143.310344827586" y="503.9310344827586" type="line"/>
      <point x="1059.5862068965516" y="109.48275862068967" type="line"/>
      <point x="1153.9655172413793" y="109.48275862068967" type="line"/>
      <point x="1237.9655172413793" y="503.9310344827586" type="line"/>
      <point x="1310.6206896551726" y="503.9310344827586" type="line"/>
      <point x="1321.896551724138" y="557.0344827586207" type="line"/>
      <point x="967.7931034482758" y="557.0344827586207" type="line"/>
      <point x="931.6206896551726" y="382.31034482758616" type="line"/>
      <point x="913.7586206896551" y="378.58620689655174" type="line"/>
    </contour>
  </outline>
</glyph>
<glyph name="ee-tamil" format="2">
  <advance width="706.3103448275862"/>
  <unicode hex="0B8F"/>
  <note>
uni0B8F
</note>
  <anchor x="308.13793103448273" y="0.0" name="bottom"/>
  <anchor x="273.4137931034483" y="-168.24137931034483" name="nukta"/>
  <anchor x="430.41379310344826" y="557.0344827586207" name="top"/>
  <anchor x="429.6896551724138" y="557.0344827586207" name="vedic"/>
  <outline>
    <contour>
      <point x="277.48275862068965" y="-208.41379310344828" type="line"/>
      <point x="519.6551724137931" y="29.689655172413794" type="line"/>
      <point x="619.8275862068965" y="501.3793103448276" type="line"/>
      <point x="732.6896551724138" y="501.3793103448276" type="line"/>
      <point x="744.2413793103448" y="557.0344827586207" type="line"/>
      <point x="343.6551724137931" y="557.0344827586207" type="line" smooth="yes"/>
      <point x="141.6551724137931" y="557.0344827586207"/>
      <point x="26.27586206896552" y="369.5172413793103"/>
      <point x="26.27586206896552" y="195.51724137931035" type="curve" smooth="yes"/>
      <point x="26.27586206896552" y="71.41379310344827"/>
      <point x="77.3103448275862" y="-5.0"/>
      <point x="168.96551724137933" y="-5.0" type="curve" smooth="yes"/>
      <point x="255.41379310344828" y="-5.0"/>
      <point x="334.41379310344826" y="67.93103448275862"/>
      <point x="334.41379310344826" y="177.58620689655174" type="curve" smooth="yes"/>
      <point x="334.41379310344826" y="260.5862068965517"/>
      <point x="284.58620689655174" y="308.51724137931035"/>
      <point x="219.93103448275863" y="308.51724137931035" type="curve" smooth="yes"/>
      <point x="141.3448275862069" y="308.51724137931035"/>
      <point x="84.3448275862069" y="239.75862068965517"/>
      <point x="52.58620689655172" y="145.37931034482762" type="curve"/>
      <point x="77.24137931034483" y="117.37931034482759" type="line"/>
      <point x="100.62068965517241" y="192.44827586206895"/>
      <point x="133.41379310344828" y="235.72413793103448"/>
      <point x="180.03448275862067" y="235.72413793103448" type="curve" smooth="yes"/>
      <point x="213.75862068965515" y="235.72413793103448"/>
      <point x="236.27586206896552" y="207.89655172413794"/>
      <point x="236.27586206896552" y="158.6551724137931" type="curve" smooth="yes"/>
      <point x="236.27586206896552" y="101.0344827586207"/>
      <point x="205.65517241379308" y="52.86206896551724"/>
      <point x="155.0344827586207" y="52.86206896551724" type="curve" smooth="yes"/>
      <point x="105.58620689655173" y="52.86206896551724"/>
      <point x="80.58620689655172" y="108.62068965517241"/>
      <point x="80.58620689655172" y="197.89655172413794" type="curve" smooth="yes"/>
      <point x="80.58620689655172" y="340.41379310344826"/>
      <point x="164.58620689655172" y="501.3793103448276"/>
      <point x="338.7586206896552" y="501.3793103448276" type="curve" smooth="yes"/>
      <point x="517.2068965517242" y="501.3793103448276" type="line"/>
      <point x="410.82758620689657" y="-2.6896551724137936" type="line"/>
      <point x="241.0" y="-170.3793103448276" type="line"/>
    </contour>
  </outline>
</glyph>
<glyph name="ai-tamil" format="2">
  <advance width="753.551724137931"/>
  <unicode hex="0B90"/>
  <note>
uni0B90
</note>
  <anchor x="314.2758620689655" y="0.0" name="bottom"/>
  <anchor x="246.7241379310345" y="-300.9655172413793" name="nukta"/>
  <anchor x="445.03448275862064" y="557.0344827586207" name="top"/>
  <anchor x="440.13793103448273" y="557.0344827586207" name="vedic"/>
  <outline>
    <contour>
      <point x="108.48275862068967" y="-300.9655172413793" type="curve" smooth="yes"/>
      <point x="195.9655172413793" y="-300.9655172413793"/>
      <point x="258.7931034482759" y="-252.24137931034483"/>
      <point x="291.44827586206895" y="-179.41379310344828" type="curve"/>
      <point x="295.17241379310343" y="-247.51724137931035"/>
      <point x="341.37931034482756" y="-300.9655172413793"/>
      <point x="426.2068965517242" y="-300.9655172413793" type="curve" smooth="yes"/>
      <point x="551.6896551724138" y="-300.9655172413793"/>
      <point x="634.4482758620691" y="-203.03448275862067"/>
      <point x="634.4482758620691" y="-63.82758620689655" type="curve" smooth="yes"/>
      <point x="634.4482758620691" y="-13.103448275862071"/>
      <point x="622.551724137931" y="32.793103448275865"/>
      <point x="610.2758620689656" y="67.44827586206897" type="curve"/>
      <point x="555.9655172413793" y="46.62068965517242" type="line"/>
      <point x="567.6896551724138" y="13.793103448275861"/>
      <point x="578.4137931034483" y="-25.655172413793103"/>
      <point x="578.4137931034483" y="-60.827586206896555" type="curve" smooth="yes"/>
      <point x="578.4137931034483" y="-164.58620689655174"/>
      <point x="523.9310344827586" y="-238.3103448275862"/>
      <point x="432.551724137931" y="-238.3103448275862" type="curve" smooth="yes"/>
      <point x="360.10344827586215" y="-238.3103448275862"/>
      <point x="339.8275862068965" y="-182.86206896551724"/>
      <point x="359.55172413793105" y="-89.79310344827586" type="curve" smooth="yes"/>
      <point x="370.4827586206897" y="-38.51724137931034" type="line"/>
      <point x="275.13793103448273" y="-38.51724137931034" type="line"/>
      <point x="265.48275862068965" y="-83.51724137931035" type="line" smooth="yes"/>
      <point x="244.31034482758622" y="-181.75862068965517"/>
      <point x="203.9655172413793" y="-243.20689655172416"/>
      <point x="132.0689655172414" y="-243.20689655172416" type="curve" smooth="yes"/>
      <point x="82.51724137931033" y="-243.20689655172416"/>
      <point x="55.37931034482759" y="-203.6551724137931"/>
      <point x="55.37931034482759" y="-143.48275862068965" type="curve" smooth="yes"/>
      <point x="55.37931034482759" y="31.79310344827586"/>
      <point x="174.75862068965517" y="61.17241379310345"/>
      <point x="355.17241379310343" y="84.3448275862069" type="curve" smooth="yes"/>
      <point x="576.6896551724138" y="113.24137931034483"/>
      <point x="725.4827586206897" y="197.75862068965517"/>
      <point x="725.4827586206897" y="396.2758620689655" type="curve" smooth="yes"/>
      <point x="725.4827586206897" y="504.7241379310345"/>
      <point x="659.9310344827586" y="562.0344827586206"/>
      <point x="576.6896551724137" y="562.0344827586206" type="curve" smooth="yes"/>
      <point x="509.0344827586207" y="562.0344827586206"/>
      <point x="456.6551724137931" y="526.1379310344828"/>
      <point x="418.82758620689657" y="447.86206896551727" type="curve"/>
      <point x="406.1034482758621" y="521.3793103448276"/>
      <point x="345.48275862068965" y="562.0344827586206"/>
      <point x="271.448275862069" y="562.0344827586206" type="curve" smooth="yes"/>
      <point x="142.68965517241378" y="562.0344827586206"/>
      <point x="48.931034482758626" y="446.448275862069"/>
      <point x="48.931034482758626" y="303.34482758620686" type="curve" smooth="yes"/>
      <point x="48.931034482758626" y="227.24137931034483"/>
      <point x="76.96551724137932" y="155.44827586206895"/>
      <point x="152.41379310344828" y="155.44827586206895" type="curve" smooth="yes"/>
      <point x="227.2758620689655" y="155.44827586206895"/>
      <point x="289.17241379310343" y="219.82758620689654"/>
      <point x="289.17241379310343" y="309.55172413793105" type="curve" smooth="yes"/>
      <point x="289.17241379310343" y="377.2413793103448"/>
      <point x="253.72413793103448" y="411.7241379310345"/>
      <point x="203.3448275862069" y="411.7241379310345" type="curve" smooth="yes"/>
      <point x="152.6896551724138" y="411.7241379310345"/>
      <point x="108.06896551724138" y="366.9310344827586"/>
      <point x="79.03448275862068" y="283.31034482758616" type="curve"/>
      <point x="89.6896551724138" y="251.68965517241378" type="line"/>
      <point x="116.41379310344827" y="325.51724137931035"/>
      <point x="141.9655172413793" y="346.3448275862069"/>
      <point x="170.86206896551724" y="346.3448275862069" type="curve" smooth="yes"/>
      <point x="192.3103448275862" y="346.3448275862069"/>
      <point x="209.9310344827586" y="331.3448275862069"/>
      <point x="209.9310344827586" y="295.1034482758621" type="curve" smooth="yes"/>
      <point x="209.9310344827586" y="251.55172413793105"/>
      <point x="185.75862068965515" y="212.20689655172416"/>
      <point x="149.3103448275862" y="212.20689655172416" type="curve" smooth="yes"/>
      <point x="113.68965517241378" y="212.20689655172416"/>
      <point x="102.6896551724138" y="250.44827586206895"/>
      <point x="102.6896551724138" y="299.44827586206895" type="curve" smooth="yes"/>
      <point x="102.6896551724138" y="402.2758620689655"/>
      <point x="155.06896551724137" y="505.55172413793105"/>
      <point x="257.7241379310345" y="505.55172413793105" type="curve" smooth="yes"/>
      <point x="345.3448275862069" y="505.55172413793105"/>
      <point x="375.9655172413793" y="449.93103448275866"/>
      <point x="355.7931034482759" y="358.58620689655174" type="curve" smooth="yes"/>
      <point x="324.2413793103448" y="213.89655172413794" type="line"/>
      <point x="419.58620689655174" y="213.89655172413794" type="line"/>
      <point x="452.06896551724145" y="370.3793103448276" type="line" smooth="yes"/>
      <point x="468.2413793103448" y="448.51724137931035"/>
      <point x="497.9655172413793" y="505.2758620689655"/>
      <point x="555.2068965517242" y="505.2758620689655" type="curve" smooth="yes"/>
      <point x="597.9310344827586" y="505.2758620689655"/>
      <point x="625.7241379310345" y="476.89655172413796"/>
      <point x="625.7241379310345" y="405.3103448275862" type="curve" smooth="yes"/>
      <point x="625.7241379310345" y="207.72413793103448"/>
      <point x="519.3793103448276" y="148.6206896551724"/>
      <point x="309.13793103448273" y="121.0" type="curve" smooth="yes"/>
      <point x="112.24137931034481" y="94.93103448275862"/>
      <point x="-44.37931034482759" y="46.55172413793104"/>
      <point x="-44.37931034482759" y="-138.20689655172413" type="curve" smooth="yes"/>
      <point x="-44.37931034482759" y="-236.48275862068965"/>
      <point x="18.44827586206897" y="-300.9655172413793"/>
    </contour>
  </outline>
</glyph>
<glyph name="o-tamil" format="2">
  <advance width="766.8620689655173"/>
  <unicode hex="0B92"/>
  <note>
uni0B92
</note>
  <anchor x="329.13793103448273" y="0.0" name="bottom"/>
  <anchor x="255.8620689655172" y="-335.0" name="nukta"/>
  <anchor x="440.6896551724138" y="557.0344827586207" name="top"/>
  <anchor x="440.6896551724137" y="557.0344827586207" name="vedic"/>
  <outline>
    <contour>
      <point x="175.9655172413793" y="-298.4137931034483" type="curve" smooth="yes"/>
      <point x="325.6896551724138" y="-298.4137931034483"/>
      <point x="384.58620689655174" y="-134.17241379310346"/>
      <point x="507.96551724137936" y="-134.17241379310346" type="curve" smooth="yes"/>
      <point x="541.0689655172413" y="-134.17241379310346" type="line"/>
      <point x="553.344827586207" y="-78.51724137931035" type="line"/>
      <point x="507.48275862068965" y="-78.51724137931035" type="line" smooth="yes"/>
      <point x="363.448275862069" y="-78.51724137931035"/>
      <point x="350.34482758620686" y="52.93103448275862"/>
      <point x="443.44827586206895" y="191.6896551724138" type="curve"/>
      <point x="448.7241379310344" y="188.6896551724138" type="line"/>
      <point x="403.8965517241379" y="77.65517241379311"/>
      <point x="421.93103448275855" y="-4.724137931034483"/>
      <point x="519.3448275862069" y="-4.724137931034483" type="curve" smooth="yes"/>
      <point x="632.0344827586207" y="-4.724137931034483"/>
      <point x="716.3103448275863" y="109.27586206896552"/>
      <point x="716.3103448275863" y="261.8965517241379" type="curve" smooth="yes"/>
      <point x="716.3103448275863" y="449.0344827586207"/>
      <point x="583.5862068965517" y="562.0344827586207"/>
      <point x="400.96551724137925" y="562.0344827586207" type="curve" smooth="yes"/>
      <point x="201.2758620689655" y="562.0344827586207"/>
      <point x="25.448275862068964" y="399.6896551724138"/>
      <point x="25.448275862068964" y="199.13793103448276" type="curve" smooth="yes"/>
      <point x="25.448275862068964" y="75.03448275862068"/>
      <point x="75.93103448275862" y="-5.0"/>
      <point x="166.13793103448276" y="-5.0" type="curve" smooth="yes"/>
      <point x="253.31034482758622" y="-5.0"/>
      <point x="328.6896551724138" y="67.93103448275862"/>
      <point x="328.6896551724138" y="177.58620689655174" type="curve" smooth="yes"/>
      <point x="328.6896551724138" y="260.5862068965517"/>
      <point x="280.48275862068965" y="308.51724137931035"/>
      <point x="215.82758620689657" y="308.51724137931035" type="curve" smooth="yes"/>
      <point x="137.24137931034483" y="308.51724137931035"/>
      <point x="83.51724137931035" y="239.75862068965517"/>
      <point x="51.758620689655174" y="145.37931034482762" type="curve"/>
      <point x="76.41379310344827" y="117.37931034482759" type="line"/>
      <point x="99.79310344827586" y="192.44827586206895"/>
      <point x="129.86206896551724" y="235.72413793103448"/>
      <point x="176.48275862068965" y="235.72413793103448" type="curve" smooth="yes"/>
      <point x="210.20689655172413" y="235.72413793103448"/>
      <point x="230.55172413793102" y="207.89655172413794"/>
      <point x="230.55172413793102" y="158.6551724137931" type="curve" smooth="yes"/>
      <point x="230.55172413793102" y="101.0344827586207"/>
      <point x="202.10344827586204" y="52.86206896551724"/>
      <point x="152.20689655172413" y="52.86206896551724" type="curve" smooth="yes"/>
      <point x="104.20689655172413" y="52.86206896551724"/>
      <point x="79.75862068965517" y="112.24137931034484"/>
      <point x="79.75862068965517" y="201.51724137931035" type="curve" smooth="yes"/>
      <point x="79.75862068965517" y="368.3103448275862"/>
      <point x="228.0344827586207" y="505.82758620689657"/>
      <point x="387.13793103448273" y="505.82758620689657" type="curve" smooth="yes"/>
      <point x="525.0689655172414" y="505.82758620689657"/>
      <point x="619.4482758620691" y="412.31034482758616"/>
      <point x="619.4482758620691" y="265.82758620689657" type="curve" smooth="yes"/>
      <point x="619.4482758620691" y="160.48275862068965"/>
      <point x="581.8275862068965" y="54.241379310344826"/>
      <point x="508.65517241379314" y="54.241379310344826" type="curve" smooth="yes"/>
      <point x="443.03448275862075" y="54.241379310344826"/>
      <point x="471.10344827586215" y="162.24137931034483"/>
      <point x="518.2758620689655" y="252.58620689655172" type="curve"/>
      <point x="458.96551724137925" y="282.41379310344826" type="line"/>
      <point x="339.86206896551727" y="134.93103448275863"/>
      <point x="276.41379310344826" y="-37.79310344827586"/>
      <point x="411.6206896551724" y="-101.06896551724138" type="curve"/>
      <point x="410.6206896551724" y="-106.06896551724138" type="line"/>
      <point x="301.48275862068965" y="-128.17241379310343"/>
      <point x="262.2413793103448" y="-231.75862068965517"/>
      <point x="167.41379310344826" y="-231.75862068965517" type="curve" smooth="yes"/>
      <point x="128.3103448275862" y="-231.75862068965517"/>
      <point x="104.48275862068965" y="-205.20689655172413"/>
      <point x="104.48275862068965" y="-172.20689655172413" type="curve" smooth="yes"/>
      <point x="104.48275862068965" y="-136.6551724137931"/>
      <point x="122.31034482758622" y="-114.82758620689656"/>
      <point x="158.0344827586207" y="-84.82758620689654" type="curve"/>
      <point x="127.48275862068967" y="-47.27586206896552" type="line"/>
      <point x="81.10344827586206" y="-86.10344827586206"/>
      <point x="48.55172413793103" y="-122.48275862068965"/>
      <point x="48.55172413793103" y="-181.13793103448276" type="curve" smooth="yes"/>
      <point x="48.55172413793103" y="-245.9655172413793"/>
      <point x="99.48275862068967" y="-298.4137931034483"/>
    </contour>
  </outline>
</glyph>
<glyph name="oo-tamil" format="2">
  <advance width="766.8620689655173"/>
  <unicode hex="0B93"/>
  <note>
uni0B93
</note>
  <anchor x="326.41379310344826" y="0.0" name="bottom"/>
  <anchor x="265.3103448275862" y="-276.2413793103449" name="nukta"/>
  <anchor x="437.2413793103448" y="557.0344827586207" name="top"/>
  <anchor x="437.24137931034477" y="557.0344827586207" name="vedic"/>
  <outline>
    <contour>
      <point x="155.34482758620692" y="-310.58620689655174" type="curve" smooth="yes"/>
      <point x="306.44827586206895" y="-310.58620689655174"/>
      <point x="384.5862068965517" y="-134.17241379310346"/>
      <point x="507.9655172413793" y="-134.17241379310346" type="curve" smooth="yes"/>
      <point x="541.0689655172414" y="-134.17241379310346" type="line"/>
      <point x="553.3448275862069" y="-78.51724137931035" type="line"/>
      <point x="507.4827586206896" y="-78.51724137931035" type="line" smooth="yes"/>
      <point x="363.44827586206895" y="-78.51724137931035"/>
      <point x="350.3448275862069" y="52.93103448275862"/>
      <point x="443.4482758620689" y="191.6896551724138" type="curve"/>
      <point x="448.7241379310344" y="188.6896551724138" type="line"/>
      <point x="403.8965517241379" y="77.65517241379311"/>
      <point x="421.93103448275855" y="-4.724137931034483"/>
      <point x="519.3448275862069" y="-4.724137931034483" type="curve" smooth="yes"/>
      <point x="632.0344827586207" y="-4.724137931034483"/>
      <point x="716.3103448275863" y="109.27586206896552"/>
      <point x="716.3103448275863" y="261.8965517241379" type="curve" smooth="yes"/>
      <point x="716.3103448275863" y="449.0344827586207"/>
      <point x="583.5862068965517" y="562.0344827586207"/>
      <point x="400.96551724137925" y="562.0344827586207" type="curve" smooth="yes"/>
      <point x="201.2758620689655" y="562.0344827586207"/>
      <point x="25.448275862068964" y="399.6896551724138"/>
      <point x="25.448275862068964" y="199.13793103448276" type="curve" smooth="yes"/>
      <point x="25.448275862068964" y="75.03448275862068"/>
      <point x="75.93103448275862" y="-5.0"/>
      <point x="166.13793103448276" y="-5.0" type="curve" smooth="yes"/>
      <point x="253.31034482758622" y="-5.0"/>
      <point x="328.6896551724138" y="67.93103448275862"/>
      <point x="328.6896551724138" y="177.58620689655174" type="curve" smooth="yes"/>
      <point x="328.6896551724138" y="260.5862068965517"/>
      <point x="280.48275862068965" y="308.51724137931035"/>
      <point x="215.82758620689657" y="308.51724137931035" type="curve" smooth="yes"/>
      <point x="137.24137931034483" y="308.51724137931035"/>
      <point x="83.51724137931035" y="239.75862068965517"/>
      <point x="51.758620689655174" y="145.37931034482762" type="curve"/>
      <point x="76.41379310344827" y="117.37931034482759" type="line"/>
      <point x="99.79310344827586" y="192.44827586206895"/>
      <point x="129.86206896551724" y="235.72413793103448"/>
      <point x="176.48275862068965" y="235.72413793103448" type="curve" smooth="yes"/>
      <point x="210.20689655172413" y="235.72413793103448"/>
      <point x="230.55172413793102" y="207.89655172413794"/>
      <point x="230.55172413793102" y="158.6551724137931" type="curve" smooth="yes"/>
      <point x="230.55172413793102" y="101.0344827586207"/>
      <point x="202.10344827586204" y="52.86206896551724"/>
      <point x="152.20689655172413" y="52.86206896551724" type="curve" smooth="yes"/>
      <point x="104.20689655172413" y="52.86206896551724"/>
      <point x="79.75862068965517" y="112.24137931034484"/>
      <point x="79.75862068965517" y="201.51724137931035" type="curve" smooth="yes"/>
      <point x="79.75862068965517" y="368.3103448275862"/>
      <point x="228.0344827586207" y="505.82758620689657"/>
      <point x="387.13793103448273" y="505.82758620689657" type="curve" smooth="yes"/>
      <point x="525.0689655172414" y="505.82758620689657"/>
      <point x="619.4482758620691" y="412.31034482758616"/>
      <point x="619.4482758620691" y="265.82758620689657" type="curve" smooth="yes"/>
      <point x="619.4482758620691" y="160.48275862068965"/>
      <point x="581.8275862068965" y="54.241379310344826"/>
      <point x="508.65517241379314" y="54.241379310344826" type="curve" smooth="yes"/>
      <point x="443.03448275862075" y="54.241379310344826"/>
      <point x="471.10344827586215" y="162.24137931034483"/>
      <point x="518.2758620689655" y="252.58620689655172" type="curve"/>
      <point x="458.96551724137925" y="282.41379310344826" type="line"/>
      <point x="339.8620689655172" y="134.93103448275863"/>
      <point x="276.41379310344826" y="-37.79310344827586"/>
      <point x="411.62068965517244" y="-101.06896551724138" type="curve"/>
      <point x="410.62068965517244" y="-106.06896551724138" type="line"/>
      <point x="301.48275862068965" y="-128.17241379310343"/>
      <point x="241.62068965517244" y="-246.82758620689657"/>
      <point x="146.79310344827587" y="-246.82758620689657" type="curve" smooth="yes"/>
      <point x="102.6896551724138" y="-246.82758620689657"/>
      <point x="84.37931034482759" y="-218.6551724137931"/>
      <point x="84.37931034482759" y="-184.55172413793102" type="curve" smooth="yes"/>
      <point x="84.37931034482759" y="-151.82758620689654"/>
      <point x="106.37931034482759" y="-125.0"/>
      <point x="136.31034482758622" y="-125.0" type="curve" smooth="yes"/>
      <point x="163.9655172413793" y="-125.0"/>
      <point x="181.79310344827584" y="-141.55172413793102"/>
      <point x="184.7931034482759" y="-177.20689655172413" type="curve"/>
      <point x="223.79310344827584" y="-166.48275862068965"/>
      <point x="244.44827586206895" y="-140.20689655172413"/>
      <point x="244.44827586206895" y="-111.0" type="curve" smooth="yes"/>
      <point x="244.44827586206895" y="-73.55172413793105"/>
      <point x="211.3448275862069" y="-51.172413793103445"/>
      <point x="168.31034482758622" y="-51.172413793103445" type="curve" smooth="yes"/>
      <point x="96.79310344827586" y="-51.172413793103445"/>
      <point x="35.62068965517241" y="-110.48275862068967"/>
      <point x="35.62068965517241" y="-191.20689655172416" type="curve" smooth="yes"/>
      <point x="35.62068965517241" y="-257.3103448275862"/>
      <point x="81.13793103448276" y="-310.58620689655174"/>
    </contour>
  </outline>
</glyph>
<glyph name="ka-tamil" format="2">
  <advance width="639.7586206896552"/>
  <unicode hex="0B95"/>
  <note>
uni0B95
</note>
  <anchor x="268.2758620689655" y="0.0" name="bottom"/>
  <anchor x="486.58620689655174" y="557.0344827586207" name="imatra"/>
  <anchor x="268.2758620689655" y="0.0" name="nukta"/>
  <anchor x="392.3103448275862" y="557.0344827586207" name="top"/>
  <anchor x="402.2413793103448" y="557.0344827586207" name="vedic"/>
  <outline>
    <contour>
      <point x="170.3448275862069" y="-4.0" type="curve" smooth="yes"/>
      <point x="281.82758620689657" y="-4.0"/>
      <point x="342.2413793103448" y="59.79310344827586"/>
      <point x="368.51724137931035" y="184.89655172413794" type="curve" smooth="yes"/>
      <point x="385.06896551724134" y="264.37931034482756" type="line"/>
      <point x="418.93103448275866" y="264.37931034482756" type="line" smooth="yes"/>
      <point x="460.0" y="264.37931034482756"/>
      <point x="483.7241379310345" y="233.58620689655172"/>
      <point x="483.7241379310345" y="181.48275862068965" type="curve" smooth="yes"/>
      <point x="483.7241379310345" y="117.3103448275862"/>
      <point x="452.65517241379314" y="52.6551724137931"/>
      <point x="393.55172413793105" y="52.6551724137931" type="curve" smooth="yes"/>
      <point x="372.93103448275866" y="52.6551724137931" type="line"/>
      <point x="361.6551724137931" y="-2.2758620689655173" type="line"/>
      <point x="403.0689655172414" y="-2.2758620689655173" type="line" smooth="yes"/>
      <point x="508.65517241379314" y="-2.2758620689655173"/>
      <point x="587.4137931034483" y="70.34482758620689"/>
      <point x="587.4137931034483" y="180.3793103448276" type="curve" smooth="yes"/>
      <point x="587.4137931034483" y="271.8620689655172"/>
      <point x="529.448275862069" y="320.3103448275862"/>
      <point x="433.6896551724137" y="320.3103448275862" type="curve" smooth="yes"/>
      <point x="397.34482758620686" y="320.3103448275862" type="line"/>
      <point x="435.7931034482758" y="501.1034482758621" type="line"/>
      <point x="549.6206896551724" y="501.1034482758621" type="line"/>
      <point x="561.8965517241379" y="557.0344827586207" type="line"/>
      <point x="187.9655172413793" y="557.0344827586207" type="line"/>
      <point x="130.6896551724138" y="288.2068965517242" type="line"/>
      <point x="187.44827586206895" y="288.2068965517242" type="line"/>
      <point x="232.17241379310343" y="501.1034482758621" type="line"/>
      <point x="331.8965517241379" y="501.1034482758621" type="line"/>
      <point x="294.17241379310343" y="320.3103448275862" type="line"/>
      <point x="179.9310344827586" y="320.3103448275862" type="line" smooth="yes"/>
      <point x="83.24137931034483" y="320.3103448275862"/>
      <point x="15.448275862068966" y="237.8275862068965"/>
      <point x="15.448275862068966" y="142.13793103448276" type="curve" smooth="yes"/>
      <point x="15.448275862068966" y="61.6551724137931"/>
      <point x="74.0" y="-4.0"/>
    </contour>
    <contour>
      <point x="158.82758620689657" y="53.13793103448276" type="curve" smooth="yes"/>
      <point x="108.58620689655173" y="53.13793103448276"/>
      <point x="74.93103448275862" y="92.10344827586206"/>
      <point x="74.93103448275862" y="146.86206896551724" type="curve" smooth="yes"/>
      <point x="74.93103448275862" y="211.6896551724138"/>
      <point x="108.24137931034484" y="264.37931034482756"/>
      <point x="173.1034482758621" y="264.37931034482756" type="curve" smooth="yes"/>
      <point x="281.8965517241379" y="264.37931034482756" type="line"/>
      <point x="262.62068965517244" y="173.6206896551724" type="line" smooth="yes"/>
      <point x="243.7241379310345" y="84.75862068965517"/>
      <point x="212.44827586206895" y="53.13793103448276"/>
    </contour>
  </outline>
</glyph>
<glyph name="ja-tamil" format="2">
  <advance width="750.2068965517242"/>
  <unicode hex="0B9C"/>
  <note>
uni0B9C
</note>
  <anchor x="315.7241379310345" y="0.0" name="bottom"/>
  <anchor x="248.17241379310346" y="-300.9655172413793" name="nukta"/>
  <anchor x="442.2758620689655" y="557.0344827586207" name="top"/>
  <anchor x="437.7241379310345" y="557.0344827586207" name="vedic"/>
  <outline>
    <contour>
      <point x="89.24137931034483" y="-300.9655172413793" type="curve" smooth="yes"/>
      <point x="262.34482758620686" y="-300.9655172413793"/>
      <point x="342.48275862068965" y="-22.103448275862068"/>
      <point x="456.1724137931035" y="-22.103448275862068" type="curve" smooth="yes"/>
      <point x="501.51724137931035" y="-22.103448275862068"/>
      <point x="524.6206896551724" y="-56.6551724137931"/>
      <point x="524.6206896551724" y="-109.44827586206897" type="curve" smooth="yes"/>
      <point x="524.6206896551724" y="-181.72413793103448"/>
      <point x="488.17241379310343" y="-243.3793103448276"/>
      <point x="418.51724137931035" y="-243.3793103448276" type="curve" smooth="yes"/>
      <point x="390.7931034482758" y="-243.3793103448276"/>
      <point x="368.9655172413793" y="-234.82758620689654"/>
      <point x="345.51724137931035" y="-219.82758620689657" type="curve"/>
      <point x="317.3103448275862" y="-265.48275862068965" type="line"/>
      <point x="348.1379310344828" y="-287.13793103448273"/>
      <point x="382.55172413793105" y="-300.9655172413793"/>
      <point x="433.37931034482756" y="-300.9655172413793" type="curve" smooth="yes"/>
      <point x="534.344827586207" y="-300.9655172413793"/>
      <point x="624.3793103448276" y="-227.24137931034483"/>
      <point x="624.3793103448276" y="-108.72413793103449" type="curve" smooth="yes"/>
      <point x="624.3793103448276" y="-15.551724137931036"/>
      <point x="574.0689655172414" y="38.93103448275862"/>
      <point x="485.03448275862064" y="38.93103448275862" type="curve" smooth="yes"/>
      <point x="317.10344827586204" y="38.93103448275862"/>
      <point x="239.13793103448276" y="-239.3793103448276"/>
      <point x="116.72413793103449" y="-239.3793103448276" type="curve" smooth="yes"/>
      <point x="69.3103448275862" y="-239.3793103448276"/>
      <point x="55.103448275862064" y="-201.55172413793105"/>
      <point x="55.103448275862064" y="-147.48275862068965" type="curve" smooth="yes"/>
      <point x="55.103448275862064" y="6.206896551724141"/>
      <point x="141.0" y="53.758620689655174"/>
      <point x="348.2068965517241" y="82.0" type="curve" smooth="yes"/>
      <point x="584.9310344827586" y="114.51724137931033"/>
      <point x="725.7586206896551" y="197.75862068965517"/>
      <point x="725.7586206896551" y="396.2758620689655" type="curve" smooth="yes"/>
      <point x="725.7586206896551" y="504.7241379310345"/>
      <point x="660.2068965517242" y="562.0344827586206"/>
      <point x="576.9655172413793" y="562.0344827586206" type="curve" smooth="yes"/>
      <point x="509.31034482758616" y="562.0344827586206"/>
      <point x="456.93103448275866" y="526.1379310344828"/>
      <point x="419.1034482758621" y="447.86206896551727" type="curve"/>
      <point x="406.37931034482756" y="521.3793103448276"/>
      <point x="345.7586206896552" y="562.0344827586206"/>
      <point x="271.7241379310345" y="562.0344827586206" type="curve" smooth="yes"/>
      <point x="142.96551724137933" y="562.0344827586206"/>
      <point x="49.20689655172414" y="446.448275862069"/>
      <point x="49.20689655172414" y="303.34482758620686" type="curve" smooth="yes"/>
      <point x="49.20689655172414" y="227.24137931034483"/>
      <point x="77.24137931034483" y="155.44827586206895"/>
      <point x="152.68965517241378" y="155.44827586206895" type="curve" smooth="yes"/>
      <point x="227.55172413793105" y="155.44827586206895"/>
      <point x="289.448275862069" y="219.82758620689654"/>
      <point x="289.448275862069" y="309.55172413793105" type="curve" smooth="yes"/>
      <point x="289.448275862069" y="377.2413793103448"/>
      <point x="254.00000000000003" y="411.7241379310345"/>
      <point x="203.62068965517238" y="411.7241379310345" type="curve" smooth="yes"/>
      <point x="152.9655172413793" y="411.7241379310345"/>
      <point x="108.34482758620692" y="366.9310344827586"/>
      <point x="79.3103448275862" y="283.31034482758616" type="curve"/>
      <point x="89.96551724137932" y="251.68965517241378" type="line"/>
      <point x="116.6896551724138" y="325.51724137931035"/>
      <point x="142.24137931034483" y="346.3448275862069"/>
      <point x="171.13793103448273" y="346.3448275862069" type="curve" smooth="yes"/>
      <point x="192.5862068965517" y="346.3448275862069"/>
      <point x="210.20689655172416" y="331.3448275862069"/>
      <point x="210.20689655172416" y="295.1034482758621" type="curve" smooth="yes"/>
      <point x="210.20689655172416" y="251.55172413793105"/>
      <point x="186.0344827586207" y="212.20689655172416"/>
      <point x="149.58620689655172" y="212.20689655172416" type="curve" smooth="yes"/>
      <point x="113.96551724137932" y="212.20689655172416"/>
      <point x="102.96551724137932" y="250.44827586206895"/>
      <point x="102.96551724137932" y="299.44827586206895" type="curve" smooth="yes"/>
      <point x="102.96551724137932" y="402.2758620689655"/>
      <point x="155.34482758620692" y="505.55172413793105"/>
      <point x="258.0" y="505.55172413793105" type="curve" smooth="yes"/>
      <point x="345.6206896551724" y="505.55172413793105"/>
      <point x="376.2413793103448" y="449.93103448275866"/>
      <point x="356.06896551724134" y="358.58620689655174" type="curve" smooth="yes"/>
      <point x="324.51724137931035" y="213.89655172413794" type="line"/>
      <point x="419.8620689655173" y="213.89655172413794" type="line"/>
      <point x="452.34482758620686" y="370.3793103448276" type="line" smooth="yes"/>
      <point x="468.5172413793104" y="448.51724137931035"/>
      <point x="498.2413793103448" y="505.2758620689655"/>
      <point x="555.4827586206897" y="505.2758620689655" type="curve" smooth="yes"/>
      <point x="598.2068965517241" y="505.2758620689655"/>
      <point x="626.0" y="476.89655172413796"/>
      <point x="626.0" y="405.3103448275862" type="curve" smooth="yes"/>
      <point x="626.0" y="207.72413793103448"/>
      <point x="523.2758620689656" y="147.0"/>
      <point x="309.41379310344826" y="118.65517241379311" type="curve" smooth="yes"/>
      <point x="78.48275862068965" y="87.51724137931035"/>
      <point x="-43.931034482758626" y="15.689655172413795"/>
      <point x="-43.931034482758626" y="-144.72413793103448" type="curve" smooth="yes"/>
      <point x="-43.931034482758626" y="-237.27586206896552"/>
      <point x="-1.9655172413793134" y="-300.9655172413793"/>
    </contour>
  </outline>
</glyph>
<glyph name="nya-tamil" format="2">
  <advance width="1021.7931034482758"/>
  <unicode hex="0B9E"/>
  <note>
uni0B9E
</note>
  <anchor x="479.448275862069" y="0.0" name="bottom"/>
  <anchor x="853.5172413793103" y="557.0344827586207" name="imatra"/>
  <anchor x="424.1034482758621" y="-308.68965517241384" name="nukta"/>
  <anchor x="615.9310344827586" y="557.0344827586207" name="top"/>
  <anchor x="594.7241379310344" y="557.0344827586207" name="vedic"/>
  <outline>
    <contour>
      <point x="420.48275862068965" y="-308.68965517241384" type="curve" smooth="yes"/>
      <point x="722.8620689655173" y="-308.68965517241384"/>
      <point x="954.0689655172414" y="-84.89655172413792"/>
      <point x="954.0689655172414" y="200.24137931034483" type="curve" smooth="yes"/>
      <point x="954.0689655172414" y="288.551724137931"/>
      <point x="912.8620689655172" y="345.27586206896547"/>
      <point x="841.8620689655171" y="345.27586206896547" type="curve" smooth="yes"/>
      <point x="771.4827586206898" y="345.27586206896547"/>
      <point x="719.0" y="280.8275862068965"/>
      <point x="701.6206896551724" y="200.20689655172416" type="curve" smooth="yes"/>
      <point x="692.1724137931035" y="155.68965517241378" type="line"/>
      <point x="713.4482758620691" y="155.68965517241378" type="line"/>
      <point x="722.6206896551724" y="198.20689655172413" type="line" smooth="yes"/>
      <point x="732.6206896551724" y="244.13793103448276"/>
      <point x="759.6896551724138" y="275.65517241379314"/>
      <point x="796.1379310344828" y="275.65517241379314" type="curve" smooth="yes"/>
      <point x="835.3103448275863" y="275.65517241379314"/>
      <point x="851.7586206896551" y="241.48275862068965"/>
      <point x="851.7586206896551" y="191.0344827586207" type="curve" smooth="yes"/>
      <point x="851.7586206896551" y="-49.0344827586207"/>
      <point x="681.6896551724137" y="-251.9310344827586"/>
      <point x="423.31034482758616" y="-251.9310344827586" type="curve" smooth="yes"/>
      <point x="232.06896551724137" y="-251.9310344827586"/>
      <point x="77.75862068965517" y="-106.58620689655173"/>
      <point x="77.75862068965517" y="113.86206896551725" type="curve" smooth="yes"/>
      <point x="77.75862068965517" y="312.7586206896552"/>
      <point x="155.13793103448276" y="461.8965517241379"/>
      <point x="298.51724137931035" y="617.5862068965517" type="curve"/>
      <point x="262.58620689655174" y="650.3448275862069" type="line"/>
      <point x="113.82758620689654" y="491.7241379310345"/>
      <point x="22.17241379310345" y="316.8620689655172"/>
      <point x="22.17241379310345" y="107.0344827586207" type="curve" smooth="yes"/>
      <point x="22.17241379310345" y="-125.79310344827587"/>
      <point x="186.1379310344828" y="-308.68965517241384"/>
    </contour>
    <component base="e-tamil" xOffset="167.72413793103448"/>
  </outline>
</glyph>
<glyph name="tta-tamil" format="2">
  <advance width="682.551724137931"/>
  <unicode hex="0B9F"/>
  <note>
uni0B9F
</note>
  <anchor x="296.3448275862069" y="0.0" name="bottom"/>
  <anchor x="296.3448275862069" y="0.0" name="nukta"/>
  <anchor x="421.44827586206895" y="557.0344827586207" name="top"/>
  <anchor x="428.1724137931035" y="557.0344827586207" name="vedic"/>
  <outline>
    <contour>
      <point x="12.137931034482756" y="0.0" type="line"/>
      <point x="607.9310344827586" y="0.0" type="line"/>
      <point x="619.4827586206897" y="55.93103448275862" type="line"/>
      <point x="126.31034482758622" y="55.93103448275862" type="line"/>
      <point x="233.31034482758622" y="557.0344827586207" type="line"/>
      <point x="129.96551724137933" y="557.0344827586207" type="line"/>
    </contour>
  </outline>
</glyph>
<glyph name="nna-tamil" format="2">
  <advance width="1333.3793103448274"/>
  <unicode hex="0BA3"/>
  <note>
uni0BA3
</note>
  <anchor x="652.2758620689655" y="0.0" name="bottom"/>
  <anchor x="1275.344827586207" y="557.0344827586207" name="imatra"/>
  <anchor x="650.551724137931" y="0.0" name="nukta"/>
  <anchor x="759.3793103448276" y="557.0344827586207" name="top"/>
  <anchor x="752.3103448275862" y="557.0344827586207" name="vedic"/>
  <outline>
    <contour>
      <point x="487.9310344827586" y="-4.724137931034483" type="curve" smooth="yes"/>
      <point x="599.9310344827586" y="-4.724137931034483"/>
      <point x="669.6206896551724" y="97.75862068965517"/>
      <point x="669.6206896551724" y="235.82758620689654" type="curve" smooth="yes"/>
      <point x="669.6206896551724" y="414.51724137931035"/>
      <point x="573.3448275862069" y="562.0344827586207"/>
      <point x="364.10344827586204" y="562.0344827586207" type="curve" smooth="yes"/>
      <point x="178.51724137931035" y="562.0344827586207"/>
      <point x="24.27586206896552" y="377.62068965517244"/>
      <point x="24.27586206896552" y="195.51724137931035" type="curve" smooth="yes"/>
      <point x="24.27586206896552" y="71.41379310344827"/>
      <point x="75.31034482758619" y="-5.0"/>
      <point x="166.96551724137933" y="-5.0" type="curve" smooth="yes"/>
      <point x="253.41379310344828" y="-5.0"/>
      <point x="332.4137931034483" y="67.93103448275862"/>
      <point x="332.4137931034483" y="177.58620689655174" type="curve" smooth="yes"/>
      <point x="332.4137931034483" y="260.5862068965517"/>
      <point x="282.58620689655174" y="308.51724137931035"/>
      <point x="217.9310344827586" y="308.51724137931035" type="curve" smooth="yes"/>
      <point x="139.3448275862069" y="308.51724137931035"/>
      <point x="82.3448275862069" y="239.75862068965517"/>
      <point x="50.58620689655173" y="145.37931034482762" type="curve"/>
      <point x="75.24137931034484" y="117.37931034482759" type="line"/>
      <point x="98.62068965517241" y="192.44827586206895"/>
      <point x="131.41379310344828" y="235.72413793103448"/>
      <point x="178.03448275862067" y="235.72413793103448" type="curve" smooth="yes"/>
      <point x="211.75862068965515" y="235.72413793103448"/>
      <point x="234.2758620689655" y="207.89655172413794"/>
      <point x="234.2758620689655" y="158.6551724137931" type="curve" smooth="yes"/>
      <point x="234.2758620689655" y="101.0344827586207"/>
      <point x="203.65517241379308" y="52.86206896551724"/>
      <point x="153.0344827586207" y="52.86206896551724" type="curve" smooth="yes"/>
      <point x="103.58620689655173" y="52.86206896551724"/>
      <point x="78.58620689655173" y="108.62068965517241"/>
      <point x="78.58620689655173" y="197.89655172413794" type="curve" smooth="yes"/>
      <point x="78.58620689655173" y="345.41379310344826"/>
      <point x="198.13793103448276" y="505.55172413793105"/>
      <point x="357.44827586206895" y="505.55172413793105" type="curve" smooth="yes"/>
      <point x="518.8275862068965" y="505.55172413793105"/>
      <point x="571.4137931034483" y="368.1034482758621"/>
      <point x="570.8620689655172" y="229.93103448275863" type="curve" smooth="yes"/>
      <point x="570.5862068965517" y="133.37931034482762"/>
      <point x="536.4137931034483" y="53.137931034482754"/>
      <point x="475.62068965517244" y="53.137931034482754" type="curve" smooth="yes"/>
      <point x="443.44827586206895" y="53.137931034482754"/>
      <point x="429.1724137931034" y="89.3103448275862"/>
      <point x="429.1724137931034" y="150.82758620689654" type="curve" smooth="yes"/>
      <point x="429.1724137931034" y="290.9655172413793"/>
      <point x="548.0" y="505.55172413793105"/>
      <point x="732.2413793103449" y="505.55172413793105" type="curve" smooth="yes"/>
      <point x="881.5862068965516" y="505.55172413793105"/>
      <point x="908.5172413793105" y="380.44827586206895"/>
      <point x="907.9655172413794" y="242.82758620689654" type="curve" smooth="yes"/>
      <point x="907.6896551724138" y="146.27586206896552"/>
      <point x="871.5172413793105" y="53.137931034482754"/>
      <point x="812.7241379310345" y="53.137931034482754" type="curve" smooth="yes"/>
      <point x="780.5517241379312" y="53.137931034482754"/>
      <point x="766.2758620689655" y="84.6896551724138"/>
      <point x="766.2758620689655" y="146.20689655172416" type="curve" smooth="yes"/>
      <point x="766.2758620689655" y="299.65517241379314"/>
      <point x="905.6206896551723" y="501.3793103448276"/>
      <point x="1098.7241379310346" y="501.3793103448276" type="curve" smooth="yes"/>
      <point x="1359.7586206896553" y="501.3793103448276" type="line"/>
      <point x="1371.0344827586207" y="557.0344827586207" type="line"/>
      <point x="1106.4482758620688" y="557.0344827586207" type="line" smooth="yes"/>
      <point x="876.5172413793105" y="557.0344827586207"/>
      <point x="710.5172413793103" y="329.55172413793105"/>
      <point x="710.5172413793103" y="139.75862068965517" type="curve" smooth="yes"/>
      <point x="710.5172413793103" y="48.58620689655172"/>
      <point x="747.448275862069" y="-4.724137931034483"/>
      <point x="825.0344827586207" y="-4.724137931034483" type="curve" smooth="yes"/>
      <point x="938.310344827586" y="-4.724137931034483"/>
      <point x="1006.7241379310345" y="109.93103448275862"/>
      <point x="1006.7241379310345" y="248.7241379310345" type="curve" smooth="yes"/>
      <point x="1006.7241379310345" y="409.8965517241379"/>
      <point x="939.7241379310344" y="562.0344827586207"/>
      <point x="740.344827586207" y="562.0344827586207" type="curve" smooth="yes"/>
      <point x="525.9655172413793" y="562.0344827586207"/>
      <point x="373.41379310344826" y="320.86206896551727"/>
      <point x="373.41379310344826" y="144.3793103448276" type="curve" smooth="yes"/>
      <point x="373.41379310344826" y="53.20689655172414"/>
      <point x="410.34482758620686" y="-4.724137931034483"/>
    </contour>
    <contour>
      <point x="1038.0" y="0.0" type="line"/>
      <point x="1139.6206896551726" y="0.0" type="line"/>
      <point x="1252.1724137931035" y="530.9310344827586" type="line"/>
      <point x="1150.5517241379312" y="530.9310344827586" type="line"/>
    </contour>
  </outline>
</glyph>
<glyph name="na-tamil" format="2">
  <advance width="613.6896551724138"/>
  <unicode hex="0BA8"/>
  <note>
uni0BA8
</note>
  <anchor x="234.82758620689657" y="0.0" name="bottom"/>
  <anchor x="471.2758620689656" y="557.0344827586207" name="imatra"/>
  <anchor x="233.55172413793105" y="-186.51724137931035" name="nukta"/>
  <anchor x="356.551724137931" y="557.0344827586207" name="top"/>
  <anchor x="368.7586206896552" y="557.0344827586207" name="vedic"/>
  <outline>
    <contour>
      <point x="40.24137931034483" y="-254.6206896551724" type="curve"/>
      <point x="53.6896551724138" y="-181.6551724137931"/>
      <point x="82.79310344827586" y="-137.6206896551724"/>
      <point x="161.0344827586207" y="-137.6206896551724" type="curve" smooth="yes"/>
      <point x="235.68965517241378" y="-137.6206896551724" type="line" smooth="yes"/>
      <point x="413.48275862068965" y="-137.6206896551724"/>
      <point x="548.7931034482758" y="4.93103448275862"/>
      <point x="548.7931034482758" y="205.8965517241379" type="curve" smooth="yes"/>
      <point x="548.7931034482758" y="299.82758620689657"/>
      <point x="509.48275862068965" y="346.37931034482756"/>
      <point x="444.2068965517241" y="346.37931034482756" type="curve" smooth="yes"/>
      <point x="399.7931034482759" y="346.37931034482756"/>
      <point x="371.7931034482758" y="321.0"/>
      <point x="351.7586206896552" y="294.2413793103448" type="curve"/>
      <point x="396.3103448275862" y="501.3793103448276" type="line"/>
      <point x="504.6551724137931" y="501.3793103448276" type="line"/>
      <point x="516.9310344827587" y="557.0344827586207" type="line"/>
      <point x="129.79310344827584" y="557.0344827586207" type="line"/>
      <point x="11.965517241379308" y="0.0" type="line"/>
      <point x="68.72413793103448" y="0.0" type="line"/>
      <point x="175.0" y="501.3793103448276" type="line"/>
      <point x="293.6896551724138" y="501.3793103448276" type="line"/>
      <point x="186.68965517241378" y="0.0" type="line"/>
      <point x="289.31034482758616" y="0.0" type="line"/>
      <point x="332.2068965517241" y="203.0344827586207" type="line" smooth="yes"/>
      <point x="341.48275862068965" y="245.41379310344826"/>
      <point x="366.0344827586207" y="273.3103448275862"/>
      <point x="394.4827586206897" y="273.3103448275862" type="curve" smooth="yes"/>
      <point x="427.48275862068965" y="273.3103448275862"/>
      <point x="444.93103448275855" y="250.31034482758622"/>
      <point x="444.93103448275855" y="196.6206896551724" type="curve" smooth="yes"/>
      <point x="444.93103448275855" y="49.89655172413793"/>
      <point x="375.37931034482756" y="-89.24137931034483"/>
      <point x="224.37931034482756" y="-89.24137931034483" type="curve" smooth="yes"/>
      <point x="132.27586206896552" y="-89.24137931034483" type="line" smooth="yes"/>
      <point x="43.310344827586206" y="-89.24137931034483"/>
      <point x="-31.758620689655174" y="-114.48275862068965"/>
      <point x="-31.758620689655174" y="-191.20689655172413" type="curve" smooth="yes"/>
      <point x="-31.758620689655174" y="-231.13793103448276"/>
      <point x="-5.448275862068966" y="-254.6206896551724"/>
    </contour>
  </outline>
</glyph>
<glyph name="pa-tamil" format="2">
  <advance width="682.7241379310345"/>
  <unicode hex="0BAA"/>
  <note>
uni0BAA
</note>
  <anchor x="285.7241379310345" y="0.0" name="bottom"/>
  <anchor x="665.4827586206897" y="557.0344827586207" name="imatra"/>
  <anchor x="285.7241379310345" y="0.0" name="nukta"/>
  <anchor x="403.1034482758621" y="557.0344827586207" name="top"/>
  <anchor x="403.1724137931035" y="557.0344827586207" name="vedic"/>
  <outline>
    <contour>
      <point x="12.137931034482756" y="0.0" type="line"/>
      <point x="552.7586206896552" y="0.0" type="line"/>
      <point x="671.3103448275862" y="557.0344827586207" type="line"/>
      <point x="569.6896551724138" y="557.0344827586207" type="line"/>
      <point x="462.6896551724138" y="55.93103448275862" type="line"/>
      <point x="126.3103448275862" y="55.93103448275862" type="line"/>
      <point x="233.31034482758622" y="557.0344827586207" type="line"/>
      <point x="129.96551724137933" y="557.0344827586207" type="line"/>
    </contour>
  </outline>
</glyph>
<glyph name="ma-tamil" format="2">
  <advance width="685.344827586207"/>
  <unicode hex="0BAE"/>
  <note>
uni0BAE
</note>
  <anchor x="285.2413793103448" y="0.0" name="bottom"/>
  <anchor x="677.0344827586207" y="557.0344827586207" name="imatra"/>
  <anchor x="286.2413793103448" y="0.0" name="nukta"/>
  <anchor x="429.1724137931034" y="557.0344827586207" name="top"/>
  <anchor x="417.448275862069" y="557.0344827586207" name="vedic"/>
  <outline>
    <contour>
      <point x="12.137931034482756" y="0.0" type="line"/>
      <point x="453.4137931034483" y="0.0" type="line" smooth="yes"/>
      <point x="591.9655172413793" y="0.0"/>
      <point x="647.6206896551723" y="173.3103448275862"/>
      <point x="647.6206896551723" y="341.7586206896552" type="curve" smooth="yes"/>
      <point x="647.6206896551723" y="480.7586206896552"/>
      <point x="593.6206896551724" y="562.0344827586206"/>
      <point x="502.4827586206897" y="562.0344827586206" type="curve" smooth="yes"/>
      <point x="420.9655172413793" y="562.0344827586206"/>
      <point x="374.31034482758616" y="504.7241379310345"/>
      <point x="356.31034482758616" y="417.8275862068965" type="curve" smooth="yes"/>
      <point x="280.3103448275862" y="55.93103448275862" type="line"/>
      <point x="126.31034482758622" y="55.93103448275862" type="line"/>
      <point x="233.31034482758622" y="557.0344827586207" type="line"/>
      <point x="129.96551724137933" y="557.0344827586207" type="line"/>
    </contour>
    <contour>
      <point x="382.9310344827586" y="55.93103448275862" type="line"/>
      <point x="459.93103448275866" y="419.6551724137931" type="line" smooth="yes"/>
      <point x="472.10344827586204" y="475.0689655172414"/>
      <point x="487.1034482758621" y="497.7931034482759"/>
      <point x="521.1724137931035" y="497.7931034482759" type="curve" smooth="yes"/>
      <point x="558.344827586207" y="497.7931034482759"/>
      <point x="588.8620689655172" y="453.62068965517244"/>
      <point x="588.8620689655172" y="334.41379310344826" type="curve" smooth="yes"/>
      <point x="588.8620689655172" y="212.89655172413794"/>
      <point x="551.5862068965517" y="55.93103448275862"/>
      <point x="459.2413793103448" y="55.93103448275862" type="curve" smooth="yes"/>
    </contour>
  </outline>
</glyph>
<glyph name="ya-tamil" format="2">
  <advance width="748.1724137931035"/>
  <unicode hex="0BAF"/>
  <note>
uni0BAF
</note>
  <anchor x="314.55172413793105" y="0.0" name="bottom"/>
  <anchor x="734.3103448275862" y="557.0344827586207" name="imatra"/>
  <anchor x="316.44827586206895" y="0.0" name="nukta"/>
  <anchor x="448.2068965517241" y="557.0344827586207" name="top"/>
  <anchor x="437.8620689655172" y="557.0344827586207" name="vedic"/>
  <outline>
    <contour>
      <point x="132.9310344827586" y="-5.827586206896552" type="curve" smooth="yes"/>
      <point x="188.55172413793102" y="-5.827586206896552"/>
      <point x="222.7586206896552" y="25.24137931034483"/>
      <point x="241.89655172413794" y="51.37931034482758" type="curve"/>
      <point x="230.89655172413794" y="0.0" type="line"/>
      <point x="618.2068965517241" y="0.0" type="line"/>
      <point x="736.7586206896551" y="557.0344827586207" type="line"/>
      <point x="633.4137931034483" y="557.0344827586207" type="line"/>
      <point x="527.1379310344828" y="55.93103448275862" type="line"/>
      <point x="336.2068965517241" y="55.93103448275862" type="line"/>
      <point x="442.7586206896551" y="557.0344827586207" type="line"/>
      <point x="341.2413793103448" y="557.0344827586207" type="line"/>
      <point x="253.41379310344828" y="141.17241379310346" type="line" smooth="yes"/>
      <point x="241.6896551724138" y="85.37931034482759"/>
      <point x="214.24137931034485" y="59.03448275862069"/>
      <point x="180.7241379310345" y="59.03448275862069" type="curve" smooth="yes"/>
      <point x="146.82758620689654" y="59.03448275862069"/>
      <point x="130.31034482758622" y="90.93103448275862"/>
      <point x="143.03448275862067" y="151.0" type="curve" smooth="yes"/>
      <point x="230.3103448275862" y="557.0344827586207" type="line"/>
      <point x="127.24137931034484" y="557.0344827586207" type="line"/>
      <point x="42.96551724137931" y="161.10344827586206" type="line" smooth="yes"/>
      <point x="20.96551724137931" y="57.10344827586207"/>
      <point x="62.44827586206896" y="-5.827586206896552"/>
    </contour>
  </outline>
</glyph>
<glyph name="ra-tamil" format="2">
  <advance width="500.34482758620686"/>
  <unicode hex="0BB0"/>
  <note>
uni0BB0
</note>
  <anchor x="186.6551724137931" y="0.0" name="bottom"/>
  <anchor x="476.65517241379314" y="557.0344827586207" name="imatra"/>
  <anchor x="143.0" y="-206.44827586206895" name="nukta"/>
  <anchor x="321.4827586206897" y="557.0344827586207" name="top"/>
  <anchor x="331.7586206896552" y="557.0344827586207" name="vedic"/>
  <outline>
    <contour>
      <point x="71.51724137931033" y="-208.41379310344828" type="line"/>
      <point x="313.68965517241384" y="29.689655172413794" type="line"/>
      <point x="413.8620689655172" y="501.3793103448276" type="line"/>
      <point x="526.7241379310344" y="501.3793103448276" type="line"/>
      <point x="538.2758620689655" y="557.0344827586207" type="line"/>
      <point x="129.96551724137933" y="557.0344827586207" type="line"/>
      <point x="12.137931034482756" y="0.0" type="line"/>
      <point x="70.62068965517241" y="0.0" type="line"/>
      <point x="176.89655172413794" y="501.3793103448276" type="line"/>
      <point x="311.2413793103448" y="501.3793103448276" type="line"/>
      <point x="204.86206896551727" y="-2.6896551724137936" type="line"/>
      <point x="35.03448275862069" y="-170.3793103448276" type="line"/>
    </contour>
  </outline>
</glyph>
<glyph name="rra-tamil" format="2">
  <advance width="658.2758620689655"/>
  <unicode hex="0BB1"/>
  <note>
uni0BB1
</note>
  <anchor x="266.0344827586207" y="0.0" name="bottom"/>
  <anchor x="237.86206896551727" y="-186.03448275862067" name="nukta"/>
  <anchor x="374.55172413793105" y="557.0344827586207" name="top"/>
  <anchor x="394.58620689655174" y="557.0344827586207" name="vedic"/>
  <outline>
    <contour>
      <point x="38.41379310344827" y="-242.6551724137931" type="curve"/>
      <point x="51.86206896551724" y="-169.6896551724138"/>
      <point x="80.96551724137932" y="-125.6551724137931"/>
      <point x="159.20689655172413" y="-125.6551724137931" type="curve" smooth="yes"/>
      <point x="231.72413793103448" y="-125.6551724137931" type="line" smooth="yes"/>
      <point x="490.13793103448273" y="-125.6551724137931"/>
      <point x="622.1034482758621" y="102.79310344827586"/>
      <point x="622.1034482758621" y="352.7586206896552" type="curve" smooth="yes"/>
      <point x="622.1034482758621" y="483.48275862068965"/>
      <point x="557.4137931034483" y="562.0344827586207"/>
      <point x="464.2758620689655" y="562.0344827586207" type="curve" smooth="yes"/>
      <point x="394.7586206896552" y="562.0344827586207"/>
      <point x="354.8275862068965" y="521.4827586206898"/>
      <point x="327.6206896551724" y="480.8965517241379" type="curve"/>
      <point x="316.51724137931035" y="521.4137931034483"/>
      <point x="285.93103448275866" y="561.3103448275862"/>
      <point x="224.2068965517241" y="561.3103448275862" type="curve" smooth="yes"/>
      <point x="160.79310344827584" y="561.3103448275862"/>
      <point x="108.51724137931035" y="516.8275862068966"/>
      <point x="90.79310344827586" y="431.9310344827586" type="curve" smooth="yes"/>
      <point x="-0.758620689655175" y="0.0" type="line"/>
      <point x="55.72413793103448" y="0.0" type="line"/>
      <point x="146.2758620689655" y="426.2068965517241" type="line" smooth="yes"/>
      <point x="157.0" y="477.0"/>
      <point x="178.7241379310345" y="504.2758620689655"/>
      <point x="217.44827586206898" y="504.2758620689655" type="curve" smooth="yes"/>
      <point x="260.44827586206895" y="504.2758620689655"/>
      <point x="272.62068965517244" y="463.72413793103453"/>
      <point x="260.8965517241379" y="409.2758620689655" type="curve" smooth="yes"/>
      <point x="173.89655172413794" y="0.0" type="line"/>
      <point x="277.6206896551724" y="0.0" type="line"/>
      <point x="367.3448275862069" y="420.7241379310345" type="line" smooth="yes"/>
      <point x="379.34482758620686" y="475.7241379310345"/>
      <point x="409.8620689655172" y="505.0"/>
      <point x="451.41379310344826" y="505.0" type="curve" smooth="yes"/>
      <point x="499.58620689655174" y="505.0"/>
      <point x="523.0344827586207" y="459.2758620689655"/>
      <point x="523.0344827586207" y="379.17241379310343" type="curve" smooth="yes"/>
      <point x="523.0344827586207" y="145.96551724137933"/>
      <point x="433.10344827586204" y="-76.44827586206897"/>
      <point x="231.7241379310345" y="-76.44827586206897" type="curve" smooth="yes"/>
      <point x="130.44827586206898" y="-76.44827586206897" type="line" smooth="yes"/>
      <point x="41.48275862068966" y="-76.44827586206897"/>
      <point x="-33.58620689655173" y="-102.24137931034483"/>
      <point x="-33.58620689655173" y="-178.9655172413793" type="curve" smooth="yes"/>
      <point x="-33.58620689655173" y="-218.89655172413794"/>
      <point x="-7.275862068965518" y="-242.6551724137931"/>
    </contour>
  </outline>
</glyph>
<glyph name="la-tamil" format="2">
  <advance width="801.1379310344828"/>
  <unicode hex="0BB2"/>
  <note>
uni0BB2
</note>
  <anchor x="338.551724137931" y="0.0" name="bottom"/>
  <anchor x="338.551724137931" y="0.0" name="nukta"/>
  <anchor x="478.0689655172414" y="557.0344827586207" name="top"/>
  <anchor x="457.2068965517241" y="557.0344827586207" name="vedic"/>
  <outline>
    <contour>
      <point x="167.6896551724138" y="-5.0" type="curve" smooth="yes"/>
      <point x="254.13793103448276" y="-5.0"/>
      <point x="333.1379310344828" y="67.93103448275862"/>
      <point x="333.1379310344828" y="177.58620689655174" type="curve" smooth="yes"/>
      <point x="333.1379310344828" y="260.5862068965517"/>
      <point x="282.7586206896552" y="308.51724137931035"/>
      <point x="218.10344827586206" y="308.51724137931035" type="curve" smooth="yes"/>
      <point x="139.51724137931035" y="308.51724137931035"/>
      <point x="83.06896551724138" y="239.75862068965517"/>
      <point x="51.31034482758621" y="145.37931034482762" type="curve"/>
      <point x="75.9655172413793" y="117.37931034482759" type="line"/>
      <point x="99.34482758620689" y="192.44827586206895"/>
      <point x="132.13793103448276" y="235.72413793103448"/>
      <point x="178.75862068965515" y="235.72413793103448" type="curve" smooth="yes"/>
      <point x="212.48275862068962" y="235.72413793103448"/>
      <point x="235.0" y="207.89655172413794"/>
      <point x="235.0" y="158.6551724137931" type="curve" smooth="yes"/>
      <point x="235.0" y="101.0344827586207"/>
      <point x="204.37931034482756" y="52.86206896551724"/>
      <point x="153.75862068965517" y="52.86206896551724" type="curve" smooth="yes"/>
      <point x="104.3103448275862" y="52.86206896551724"/>
      <point x="79.3103448275862" y="108.62068965517241"/>
      <point x="79.3103448275862" y="197.89655172413794" type="curve" smooth="yes"/>
      <point x="79.3103448275862" y="338.17241379310343"/>
      <point x="175.89655172413794" y="504.7241379310345"/>
      <point x="323.7931034482759" y="504.7241379310345" type="curve" smooth="yes"/>
      <point x="431.4827586206897" y="504.7241379310345"/>
      <point x="464.72413793103453" y="425.13793103448273"/>
      <point x="437.44827586206895" y="307.6551724137931" type="curve" smooth="yes"/>
      <point x="405.655172413793" y="170.75862068965517" type="line" smooth="yes"/>
      <point x="384.2758620689655" y="78.13793103448275"/>
      <point x="411.0689655172414" y="-0.5517241379310347"/>
      <point x="510.10344827586204" y="-0.5517241379310347" type="curve" smooth="yes"/>
      <point x="652.1379310344828" y="-0.5517241379310347"/>
      <point x="770.6896551724138" y="148.6206896551724"/>
      <point x="770.6896551724138" y="371.1724137931035" type="curve" smooth="yes"/>
      <point x="770.6896551724138" y="441.55172413793105"/>
      <point x="755.7931034482759" y="503.2068965517241"/>
      <point x="731.3448275862069" y="562.0344827586207" type="curve"/>
      <point x="675.7586206896551" y="539.0344827586207" type="line"/>
      <point x="696.9310344827586" y="485.7586206896552"/>
      <point x="713.3793103448277" y="429.34482758620686"/>
      <point x="713.3793103448277" y="362.448275862069" type="curve" smooth="yes"/>
      <point x="713.3793103448277" y="184.13793103448276"/>
      <point x="619.5862068965517" y="62.310344827586206"/>
      <point x="543.0689655172414" y="62.310344827586206" type="curve" smooth="yes"/>
      <point x="497.2758620689656" y="62.310344827586206"/>
      <point x="494.0" y="107.20689655172413"/>
      <point x="508.0" y="168.3793103448276" type="curve" smooth="yes"/>
      <point x="540.6206896551724" y="310.3103448275862" type="line" smooth="yes"/>
      <point x="576.0" y="464.551724137931"/>
      <point x="496.58620689655174" y="562.0344827586207"/>
      <point x="343.3103448275862" y="562.0344827586207" type="curve" smooth="yes"/>
      <point x="156.82758620689654" y="562.0344827586207"/>
      <point x="25.000000000000004" y="369.55172413793105"/>
      <point x="25.000000000000004" y="195.51724137931035" type="curve" smooth="yes"/>
      <point x="25.000000000000004" y="71.41379310344827"/>
      <point x="76.03448275862068" y="-5.0"/>
    </contour>
  </outline>
</glyph>
<glyph name="va-tamil" format="2">
  <advance width="859.7931034482758"/>
  <unicode hex="0BB5"/>
  <note>
uni0BB5
</note>
  <anchor x="398.48275862068965" y="0.0" name="bottom"/>
  <anchor x="761.551724137931" y="557.0344827586207" name="imatra"/>
  <anchor x="396.8275862068965" y="0.0" name="nukta"/>
  <anchor x="496.20689655172407" y="557.0344827586207" name="top"/>
  <anchor x="481.17241379310343" y="557.0344827586207" name="vedic"/>
  <outline>
    <contour>
      <point x="166.96551724137933" y="-5.0" type="curve" smooth="yes"/>
      <point x="253.41379310344828" y="-5.0"/>
      <point x="332.41379310344826" y="67.93103448275862"/>
      <point x="332.41379310344826" y="177.58620689655174" type="curve" smooth="yes"/>
      <point x="332.41379310344826" y="260.5862068965517"/>
      <point x="282.0344827586207" y="308.51724137931035"/>
      <point x="217.3793103448276" y="308.51724137931035" type="curve" smooth="yes"/>
      <point x="138.79310344827587" y="308.51724137931035"/>
      <point x="82.34482758620689" y="239.75862068965517"/>
      <point x="50.58620689655172" y="145.37931034482762" type="curve"/>
      <point x="75.24137931034483" y="117.37931034482759" type="line"/>
      <point x="98.62068965517241" y="192.44827586206895"/>
      <point x="131.41379310344828" y="235.72413793103448"/>
      <point x="178.03448275862067" y="235.72413793103448" type="curve" smooth="yes"/>
      <point x="211.75862068965515" y="235.72413793103448"/>
      <point x="234.27586206896552" y="207.89655172413794"/>
      <point x="234.27586206896552" y="158.6551724137931" type="curve" smooth="yes"/>
      <point x="234.27586206896552" y="101.0344827586207"/>
      <point x="203.65517241379308" y="52.86206896551724"/>
      <point x="153.0344827586207" y="52.86206896551724" type="curve" smooth="yes"/>
      <point x="103.58620689655173" y="52.86206896551724"/>
      <point x="78.58620689655172" y="108.62068965517241"/>
      <point x="78.58620689655172" y="197.89655172413794" type="curve" smooth="yes"/>
      <point x="78.58620689655172" y="338.17241379310343"/>
      <point x="185.0344827586207" y="504.7241379310345"/>
      <point x="330.6896551724138" y="504.7241379310345" type="curve" smooth="yes"/>
      <point x="440.1724137931035" y="504.7241379310345"/>
      <point x="476.344827586207" y="422.0689655172414"/>
      <point x="475.79310344827593" y="325.55172413793105" type="curve" smooth="yes"/>
      <point x="475.2413793103449" y="218.86206896551724"/>
      <point x="432.8965517241379" y="127.27586206896551"/>
      <point x="368.65517241379314" y="41.10344827586207" type="curve"/>
      <point x="378.3103448275862" y="0.0" type="line"/>
      <point x="729.8275862068966" y="0.0" type="line"/>
      <point x="848.3793103448277" y="557.0344827586207" type="line"/>
      <point x="745.7586206896551" y="557.0344827586207" type="line"/>
      <point x="639.4827586206897" y="55.93103448275862" type="line"/>
      <point x="448.27586206896547" y="55.93103448275862" type="line"/>
      <point x="527.8620689655173" y="138.3793103448276"/>
      <point x="577.4137931034483" y="228.72413793103448"/>
      <point x="577.4137931034483" y="341.10344827586204" type="curve" smooth="yes"/>
      <point x="577.4137931034483" y="475.7931034482759"/>
      <point x="492.37931034482756" y="562.0344827586207"/>
      <point x="346.82758620689657" y="562.0344827586207" type="curve" smooth="yes"/>
      <point x="162.58620689655174" y="562.0344827586207"/>
      <point x="24.27586206896552" y="369.55172413793105"/>
      <point x="24.27586206896552" y="195.51724137931035" type="curve" smooth="yes"/>
      <point x="24.27586206896552" y="71.41379310344827"/>
      <point x="75.3103448275862" y="-5.0"/>
    </contour>
  </outline>
</glyph>
<glyph name="sha-tamil" format="2">
  <advance width="844.8620689655172"/>
  <unicode hex="0BB6"/>
  <note>
uni0BB6
</note>
  <anchor x="375.17241379310343" y="0.0" name="bottom"/>
  <anchor x="725.4137931034483" y="557.0344827586207" name="imatra"/>
  <anchor x="375.17241379310343" y="0.0" name="nukta"/>
  <anchor x="493.7241379310345" y="557.0344827586207" name="top"/>
  <anchor x="497.1034482758621" y="557.0344827586207" name="vedic"/>
  <outline>
    <contour>
      <point x="181.3103448275862" y="-5.0" type="curve" smooth="yes"/>
      <point x="268.9655172413793" y="-5.0"/>
      <point x="339.55172413793105" y="40.172413793103445"/>
      <point x="367.3793103448276" y="170.48275862068965" type="curve" smooth="yes"/>
      <point x="438.10344827586204" y="501.3793103448276" type="line"/>
      <point x="534.2068965517242" y="501.3793103448276" type="line"/>
      <point x="460.31034482758616" y="157.24137931034483" type="line" smooth="yes"/>
      <point x="440.2068965517241" y="65.72413793103449"/>
      <point x="473.75862068965523" y="-5.0"/>
      <point x="562.6896551724138" y="-5.0" type="curve" smooth="yes"/>
      <point x="723.7586206896552" y="-5.0"/>
      <point x="830.5862068965516" y="249.8965517241379"/>
      <point x="830.5862068965516" y="438.82758620689657" type="curve" smooth="yes"/>
      <point x="830.5862068965516" y="521.2758620689656"/>
      <point x="792.7931034482758" y="557.0344827586207"/>
      <point x="726.4137931034483" y="557.0344827586207" type="curve" smooth="yes"/>
      <point x="391.8965517241379" y="557.0344827586207" type="line"/>
      <point x="310.17241379310343" y="173.0344827586207" type="line" smooth="yes"/>
      <point x="293.17241379310343" y="91.48275862068965"/>
      <point x="256.0" y="57.58620689655172"/>
      <point x="208.55172413793102" y="57.58620689655172" type="curve" smooth="yes"/>
      <point x="147.20689655172413" y="57.58620689655172"/>
      <point x="135.86206896551724" y="114.58620689655172"/>
      <point x="151.58620689655172" y="187.20689655172413" type="curve" smooth="yes"/>
      <point x="231.3103448275862" y="557.0344827586207" type="line"/>
      <point x="127.24137931034484" y="557.0344827586207" type="line"/>
      <point x="48.51724137931035" y="188.86206896551727" type="line" smooth="yes"/>
      <point x="24.96551724137931" y="77.82758620689656"/>
      <point x="69.27586206896552" y="-5.0"/>
    </contour>
    <contour>
      <point x="593.9655172413793" y="59.241379310344826" type="curve" smooth="yes"/>
      <point x="551.551724137931" y="59.241379310344826"/>
      <point x="552.103448275862" y="103.75862068965517"/>
      <point x="563.3793103448276" y="156.58620689655172" type="curve" smooth="yes"/>
      <point x="636.8275862068966" y="501.3793103448276" type="line"/>
      <point x="713.3103448275863" y="501.3793103448276" type="line" smooth="yes"/>
      <point x="755.8275862068965" y="501.3793103448276"/>
      <point x="774.103448275862" y="482.1034482758621"/>
      <point x="774.103448275862" y="432.7241379310345" type="curve" smooth="yes"/>
      <point x="774.103448275862" y="295.3448275862069"/>
      <point x="688.2068965517242" y="59.241379310344826"/>
    </contour>
  </outline>
</glyph>
<glyph name="ssa-tamil" format="2">
  <advance width="1112.5172413793105"/>
  <unicode hex="0BB7"/>
  <note>
uni0BB7
</note>
  <anchor x="514.0344827586206" y="0.0" name="bottom"/>
  <anchor x="424.3793103448276" y="0.0" name="nukta"/>
  <anchor x="642.3448275862069" y="557.0344827586207" name="top"/>
  <anchor x="639.4827586206897" y="557.0344827586207" name="vedic"/>
  <outline>
    <contour>
      <point x="166.96551724137933" y="-5.0" type="curve" smooth="yes"/>
      <point x="253.41379310344828" y="-5.0"/>
      <point x="332.41379310344826" y="67.93103448275862"/>
      <point x="332.41379310344826" y="177.58620689655174" type="curve" smooth="yes"/>
      <point x="332.41379310344826" y="260.5862068965517"/>
      <point x="282.0344827586207" y="308.51724137931035"/>
      <point x="217.3793103448276" y="308.51724137931035" type="curve" smooth="yes"/>
      <point x="138.79310344827587" y="308.51724137931035"/>
      <point x="82.34482758620689" y="239.75862068965517"/>
      <point x="50.58620689655172" y="145.37931034482762" type="curve"/>
      <point x="75.24137931034483" y="117.37931034482759" type="line"/>
      <point x="98.62068965517241" y="192.44827586206895"/>
      <point x="131.41379310344828" y="235.72413793103448"/>
      <point x="178.03448275862067" y="235.72413793103448" type="curve" smooth="yes"/>
      <point x="211.75862068965515" y="235.72413793103448"/>
      <point x="234.27586206896552" y="207.89655172413794"/>
      <point x="234.27586206896552" y="158.6551724137931" type="curve" smooth="yes"/>
      <point x="234.27586206896552" y="101.0344827586207"/>
      <point x="203.65517241379308" y="52.86206896551724"/>
      <point x="153.0344827586207" y="52.86206896551724" type="curve" smooth="yes"/>
      <point x="103.58620689655173" y="52.86206896551724"/>
      <point x="78.58620689655172" y="108.62068965517241"/>
      <point x="78.58620689655172" y="197.89655172413794" type="curve" smooth="yes"/>
      <point x="78.58620689655172" y="338.17241379310343"/>
      <point x="185.0344827586207" y="504.7241379310345"/>
      <point x="330.6896551724138" y="504.7241379310345" type="curve" smooth="yes"/>
      <point x="440.17241379310343" y="504.7241379310345"/>
      <point x="476.344827586207" y="422.06896551724134"/>
      <point x="475.79310344827593" y="325.55172413793105" type="curve" smooth="yes"/>
      <point x="475.2413793103449" y="218.86206896551724"/>
      <point x="432.8965517241379" y="127.27586206896551"/>
      <point x="368.65517241379314" y="41.10344827586207" type="curve"/>
      <point x="378.3103448275862" y="0.0" type="line"/>
      <point x="1005.5172413793102" y="0.0" type="line"/>
      <point x="1071.5172413793102" y="309.6206896551724" type="line"/>
      <point x="961.0344827586206" y="258.8965517241379" type="line"/>
      <point x="918.0344827586208" y="55.93103448275862" type="line"/>
      <point x="448.27586206896547" y="55.93103448275862" type="line"/>
      <point x="527.8620689655173" y="138.3793103448276"/>
      <point x="577.4137931034483" y="228.72413793103448"/>
      <point x="577.4137931034483" y="341.1034482758621" type="curve" smooth="yes"/>
      <point x="577.4137931034483" y="475.7931034482759"/>
      <point x="492.37931034482756" y="562.0344827586207"/>
      <point x="346.82758620689657" y="562.0344827586207" type="curve" smooth="yes"/>
      <point x="162.58620689655174" y="562.0344827586207"/>
      <point x="24.27586206896552" y="369.55172413793105"/>
      <point x="24.27586206896552" y="195.51724137931035" type="curve" smooth="yes"/>
      <point x="24.27586206896552" y="71.41379310344827"/>
      <point x="75.3103448275862" y="-5.0"/>
    </contour>
    <contour>
      <point x="660.4137931034483" y="-257.0344827586207" type="line"/>
      <point x="759.2758620689655" y="-257.0344827586207" type="line"/>
      <point x="903.9999999999999" y="421.7586206896552" type="line" smooth="yes"/>
      <point x="922.103448275862" y="506.7241379310345"/>
      <point x="894.7241379310345" y="562.0344827586206"/>
      <point x="816.7586206896551" y="562.0344827586206" type="curve" smooth="yes"/>
      <point x="722.5862068965516" y="562.0344827586206"/>
      <point x="655.9310344827587" y="471.65517241379314"/>
      <point x="655.9310344827587" y="369.17241379310343" type="curve" smooth="yes"/>
      <point x="655.9310344827587" y="273.2758620689655"/>
      <point x="720.551724137931" y="212.82758620689654"/>
      <point x="813.6206896551724" y="212.82758620689654" type="curve" smooth="yes"/>
      <point x="901.3793103448277" y="212.82758620689654"/>
      <point x="973.3448275862069" y="241.58620689655172"/>
      <point x="1070.5172413793102" y="303.62068965517244" type="curve"/>
      <point x="1072.2413793103449" y="314.6206896551724" type="line"/>
      <point x="1050.9655172413793" y="347.1034482758621" type="line"/>
      <point x="967.6896551724137" y="292.0689655172414"/>
      <point x="896.3103448275863" y="266.7586206896552"/>
      <point x="822.8965517241379" y="266.7586206896552" type="curve" smooth="yes"/>
      <point x="744.8620689655173" y="266.7586206896552"/>
      <point x="708.6896551724137" y="301.3793103448276"/>
      <point x="708.6896551724137" y="376.55172413793105" type="curve" smooth="yes"/>
      <point x="708.6896551724137" y="436.58620689655174"/>
      <point x="738.1379310344828" y="495.6896551724138"/>
      <point x="779.5862068965517" y="495.6896551724138" type="curve" smooth="yes"/>
      <point x="808.1379310344827" y="495.6896551724138"/>
      <point x="814.1379310344828" y="469.58620689655174"/>
      <point x="806.4137931034484" y="432.4137931034483" type="curve" smooth="yes"/>
    </contour>
  </outline>
</glyph>
<glyph name="sa-tamil" format="2">
  <advance width="1047.0689655172414"/>
  <unicode hex="0BB8"/>
  <note>
uni0BB8
</note>
  <anchor x="469.3448275862069" y="0.0" name="bottom"/>
  <anchor x="468.51724137931035" y="0.0" name="nukta"/>
  <anchor x="577.8965517241379" y="557.0344827586207" name="top"/>
  <anchor x="585.3448275862069" y="557.0344827586207" name="vedic"/>
  <outline>
    <contour>
      <point x="389.37931034482756" y="0.0" type="line"/>
      <point x="491.72413793103453" y="0.0" type="line"/>
      <point x="582.551724137931" y="430.1379310344828" type="line" smooth="yes"/>
      <point x="593.2758620689655" y="479.8620689655172"/>
      <point x="614.8275862068965" y="504.55172413793105"/>
      <point x="656.3448275862069" y="504.55172413793105" type="curve" smooth="yes"/>
      <point x="696.9655172413793" y="504.55172413793105"/>
      <point x="716.5862068965517" y="470.37931034482756"/>
      <point x="706.1379310344828" y="421.5862068965517" type="curve" smooth="yes"/>
      <point x="651.5862068965517" y="170.75862068965517" type="line" smooth="yes"/>
      <point x="630.4827586206897" y="78.13793103448276"/>
      <point x="657.0000000000001" y="-0.5517241379310347"/>
      <point x="756.0344827586207" y="-0.5517241379310347" type="curve" smooth="yes"/>
      <point x="898.0689655172413" y="-0.5517241379310347"/>
      <point x="1016.6206896551723" y="148.6206896551724"/>
      <point x="1016.6206896551723" y="371.1724137931035" type="curve" smooth="yes"/>
      <point x="1016.6206896551723" y="441.55172413793105"/>
      <point x="1001.7241379310344" y="503.2068965517241"/>
      <point x="977.2758620689656" y="562.0344827586207" type="curve"/>
      <point x="921.6896551724138" y="539.0344827586207" type="line"/>
      <point x="942.8620689655171" y="485.7586206896552"/>
      <point x="959.3103448275863" y="429.34482758620686"/>
      <point x="959.3103448275863" y="362.448275862069" type="curve" smooth="yes"/>
      <point x="959.3103448275863" y="184.13793103448276"/>
      <point x="865.5172413793102" y="62.310344827586206"/>
      <point x="789.0" y="62.310344827586206" type="curve" smooth="yes"/>
      <point x="743.2068965517241" y="62.310344827586206"/>
      <point x="740.2068965517242" y="107.20689655172414"/>
      <point x="753.9310344827587" y="168.3793103448276" type="curve" smooth="yes"/>
      <point x="803.9310344827586" y="400.7931034482759" type="line" smooth="yes"/>
      <point x="823.1379310344827" y="490.51724137931035"/>
      <point x="776.9310344827586" y="561.7586206896551"/>
      <point x="679.2413793103449" y="561.7586206896551" type="curve" smooth="yes"/>
      <point x="596.8965517241379" y="561.7586206896551"/>
      <point x="533.551724137931" y="506.82758620689657"/>
      <point x="517.8275862068965" y="434.3793103448276" type="curve" smooth="yes"/>
      <point x="500.37931034482756" y="354.7586206896552" type="line"/>
      <point x="464.2068965517241" y="354.7586206896552" type="line"/>
    </contour>
    <contour>
      <point x="167.9655172413793" y="-5.0" type="curve" smooth="yes"/>
      <point x="254.41379310344828" y="-5.0"/>
      <point x="333.4137931034483" y="67.93103448275862"/>
      <point x="333.4137931034483" y="177.58620689655174" type="curve" smooth="yes"/>
      <point x="333.4137931034483" y="260.5862068965517"/>
      <point x="283.0344827586207" y="308.51724137931035"/>
      <point x="218.3793103448276" y="308.51724137931035" type="curve" smooth="yes"/>
      <point x="139.79310344827584" y="308.51724137931035"/>
      <point x="83.34482758620689" y="239.75862068965517"/>
      <point x="51.58620689655172" y="145.37931034482762" type="curve"/>
      <point x="76.24137931034481" y="117.37931034482759" type="line"/>
      <point x="99.62068965517241" y="192.44827586206895"/>
      <point x="132.41379310344828" y="235.72413793103448"/>
      <point x="179.03448275862067" y="235.72413793103448" type="curve" smooth="yes"/>
      <point x="212.75862068965515" y="235.72413793103448"/>
      <point x="235.2758620689655" y="207.89655172413794"/>
      <point x="235.2758620689655" y="158.6551724137931" type="curve" smooth="yes"/>
      <point x="235.2758620689655" y="101.0344827586207"/>
      <point x="204.65517241379308" y="52.86206896551724"/>
      <point x="154.0344827586207" y="52.86206896551724" type="curve" smooth="yes"/>
      <point x="104.58620689655172" y="52.86206896551724"/>
      <point x="79.58620689655173" y="108.62068965517241"/>
      <point x="79.58620689655173" y="197.89655172413794" type="curve" smooth="yes"/>
      <point x="79.58620689655173" y="338.17241379310343"/>
      <point x="177.27586206896552" y="504.44827586206895"/>
      <point x="325.1724137931035" y="504.44827586206895" type="curve" smooth="yes"/>
      <point x="429.48275862068965" y="504.44827586206895"/>
      <point x="482.1034482758621" y="442.27586206896547"/>
      <point x="457.1034482758621" y="319.51724137931035" type="curve"/>
      <point x="513.1379310344828" y="325.8965517241379" type="line"/>
      <point x="542.3103448275862" y="468.2068965517241"/>
      <point x="469.3103448275862" y="562.0344827586206"/>
      <point x="340.2758620689655" y="562.0344827586206" type="curve" smooth="yes"/>
      <point x="153.51724137931035" y="562.0344827586206"/>
      <point x="25.27586206896552" y="369.55172413793105"/>
      <point x="25.27586206896552" y="195.51724137931035" type="curve" smooth="yes"/>
      <point x="25.27586206896552" y="71.41379310344827"/>
      <point x="76.31034482758622" y="-5.0"/>
    </contour>
  </outline>
</glyph>
<glyph name="aaMatra-tamil" format="2">
  <advance width="505.2413793103448"/>
  <unicode hex="0BBE"/>
  <note>
uni0BBE
</note>
  <anchor x="205.37931034482762" y="0.0" name="bottom"/>
  <anchor x="204.37931034482762" y="0.0" name="nukta"/>
  <anchor x="316.93103448275866" y="557.0344827586207" name="top"/>
  <anchor x="316.93103448275866" y="557.0344827586207" name="vedic"/>
  <outline>
    <contour>
      <point x="12.137931034482756" y="0.0" type="line"/>
      <point x="70.62068965517241" y="0.0" type="line"/>
      <point x="176.89655172413794" y="501.3793103448276" type="line"/>
      <point x="316.1379310344828" y="501.3793103448276" type="line"/>
      <point x="209.86206896551727" y="0.0" type="line"/>
      <point x="312.48275862068965" y="0.0" type="line"/>
      <point x="418.7586206896552" y="501.3793103448276" type="line"/>
      <point x="531.6206896551724" y="501.3793103448276" type="line"/>
      <point x="543.1724137931035" y="557.0344827586207" type="line"/>
      <point x="129.96551724137933" y="557.0344827586207" type="line"/>
    </contour>
  </outline>
</glyph>
<glyph name="iMatra-tamil" format="2">
  <advance width="177.3448275862069"/>
  <unicode hex="0BBF"/>
  <note>
uni0BBF
</note>
  <anchor x="-18.06896551724138" y="819.4137931034483" name="top"/>
  <outline>
    <contour>
      <point x="-6.20689655172414" y="0.0" type="line"/>
      <point x="50.827586206896555" y="0.0" type="line"/>
      <point x="174.27586206896552" y="577.8965517241379" type="line" smooth="yes"/>
      <point x="205.1034482758621" y="723.7586206896551"/>
      <point x="125.89655172413794" y="819.4137931034483"/>
      <point x="-18.06896551724138" y="819.4137931034483" type="curve" smooth="yes"/>
      <point x="-140.2758620689655" y="819.4137931034483"/>
      <point x="-223.0344827586207" y="732.9655172413793"/>
      <point x="-223.0344827586207" y="625.5862068965517" type="curve" smooth="yes"/>
      <point x="-223.0344827586207" y="557.7586206896551"/>
      <point x="-174.75862068965517" y="501.9310344827586"/>
      <point x="-109.86206896551725" y="501.9310344827586" type="curve" smooth="yes"/>
      <point x="-105.41379310344827" y="501.9310344827586" type="line"/>
      <point x="-93.41379310344828" y="557.0344827586207" type="line"/>
      <point x="-97.58620689655174" y="557.0344827586207" type="line" smooth="yes"/>
      <point x="-132.51724137931035" y="557.0344827586207"/>
      <point x="-159.24137931034485" y="582.7586206896551"/>
      <point x="-159.24137931034485" y="622.1034482758621" type="curve" smooth="yes"/>
      <point x="-159.24137931034485" y="680.448275862069"/>
      <point x="-108.24137931034483" y="724.6896551724138"/>
      <point x="-28.896551724137932" y="724.6896551724138" type="curve" smooth="yes"/>
      <point x="77.75862068965516" y="724.6896551724138"/>
      <point x="134.24137931034483" y="658.2413793103449"/>
      <point x="110.9655172413793" y="550.5862068965517" type="curve" smooth="yes"/>
    </contour>
  </outline>
</glyph>
<glyph name="iiMatra-tamil" format="2">
  <unicode hex="0BC0"/>
  <note>
uni0BC0
</note>
  <anchor x="59.55172413793103" y="557.0344827586207" name="_imatra"/>
  <anchor x="106.72413793103449" y="888.6206896551724" name="top"/>
  <outline>
    <contour>
      <point x="34.17241379310345" y="505.551724137931" type="curve" smooth="yes"/>
      <point x="49.0" y="505.551724137931" type="line"/>
      <point x="59.55172413793103" y="557.0344827586207" type="line"/>
      <point x="47.724137931034484" y="557.0344827586207" type="line" smooth="yes"/>
      <point x="-7.103448275862069" y="557.0344827586207"/>
      <point x="-37.03448275862069" y="600.8275862068965"/>
      <point x="-37.03448275862069" y="668.4827586206897" type="curve" smooth="yes"/>
      <point x="-37.03448275862069" y="741.1034482758621"/>
      <point x="7.8275862068965525" y="832.1379310344828"/>
      <point x="99.06896551724138" y="832.1379310344828" type="curve" smooth="yes"/>
      <point x="147.9655172413793" y="832.1379310344828"/>
      <point x="171.96551724137933" y="797.7931034482759"/>
      <point x="171.96551724137933" y="753.9655172413793" type="curve" smooth="yes"/>
      <point x="171.96551724137933" y="704.5172413793103"/>
      <point x="149.51724137931032" y="662.6206896551724"/>
      <point x="107.34482758620689" y="662.6206896551724" type="curve" smooth="yes"/>
      <point x="44.0" y="662.6206896551724"/>
      <point x="59.72413793103449" y="774.7931034482759"/>
      <point x="111.17241379310344" y="855.1379310344828" type="curve"/>
      <point x="70.06896551724138" y="859.1379310344828" type="line"/>
      <point x="-8.586206896551726" y="744.2068965517241"/>
      <point x="-2.3793103448275863" y="603.3793103448276"/>
      <point x="116.37931034482759" y="603.3793103448276" type="curve" smooth="yes"/>
      <point x="190.68965517241378" y="603.3793103448276"/>
      <point x="255.79310344827587" y="663.0344827586207"/>
      <point x="255.79310344827587" y="749.8620689655173" type="curve" smooth="yes"/>
      <point x="255.79310344827587" y="837.8965517241379"/>
      <point x="194.65517241379308" y="888.6206896551724"/>
      <point x="106.72413793103449" y="888.6206896551724" type="curve" smooth="yes"/>
      <point x="-12.827586206896552" y="888.6206896551724"/>
      <point x="-93.51724137931035" y="774.2758620689656"/>
      <point x="-93.51724137931035" y="663.7586206896551" type="curve" smooth="yes"/>
      <point x="-93.51724137931035" y="567.5517241379309"/>
      <point x="-39.689655172413794" y="505.551724137931"/>
    </contour>
  </outline>
</glyph>
<glyph name="eMatra-tamil" format="2">
  <advance width="639.551724137931"/>
  <unicode hex="0BC6"/>
  <note>
uni0BC6
</note>
  <outline>
    <contour>
      <point x="210.6896551724138" y="-5.0" type="curve" smooth="yes"/>
      <point x="300.7586206896552" y="-5.0"/>
      <point x="376.8620689655172" y="67.93103448275862"/>
      <point x="376.8620689655172" y="177.58620689655172" type="curve" smooth="yes"/>
      <point x="376.8620689655172" y="260.58620689655174"/>
      <point x="328.48275862068965" y="312.1379310344828"/>
      <point x="260.9310344827586" y="312.1379310344828" type="curve" smooth="yes"/>
      <point x="182.3448275862069" y="312.1379310344828"/>
      <point x="126.06896551724137" y="237.58620689655172"/>
      <point x="94.31034482758619" y="143.20689655172416" type="curve"/>
      <point x="118.9655172413793" y="115.20689655172413" type="line"/>
      <point x="142.3448275862069" y="190.27586206896552"/>
      <point x="175.86206896551727" y="239.3448275862069"/>
      <point x="222.48275862068968" y="239.3448275862069" type="curve" smooth="yes"/>
      <point x="256.2068965517242" y="239.3448275862069"/>
      <point x="278.7241379310345" y="210.79310344827587"/>
      <point x="278.7241379310345" y="158.65517241379308" type="curve" smooth="yes"/>
      <point x="278.7241379310345" y="101.03448275862068"/>
      <point x="247.3793103448276" y="52.86206896551724"/>
      <point x="195.3103448275862" y="52.86206896551724" type="curve" smooth="yes"/>
      <point x="143.10344827586206" y="52.86206896551724"/>
      <point x="104.86206896551724" y="116.82758620689656"/>
      <point x="104.86206896551724" y="248.86206896551727" type="curve" smooth="yes"/>
      <point x="104.86206896551724" y="456.37931034482756"/>
      <point x="216.13793103448276" y="721.1379310344828"/>
      <point x="417.89655172413796" y="721.1379310344828" type="curve" smooth="yes"/>
      <point x="552.448275862069" y="721.1379310344828"/>
      <point x="591.6206896551724" y="639.8275862068966"/>
      <point x="560.7241379310344" y="494.0689655172414" type="curve" smooth="yes"/>
      <point x="457.0" y="0.0" type="line"/>
      <point x="513.7586206896552" y="0.0" type="line"/>
      <point x="622.0344827586207" y="514.3793103448277" type="line" smooth="yes"/>
      <point x="657.0344827586207" y="681.1034482758621"/>
      <point x="598.8965517241379" y="819.4137931034483"/>
      <point x="434.5517241379311" y="819.4137931034483" type="curve" smooth="yes"/>
      <point x="194.65517241379308" y="819.4137931034483"/>
      <point x="52.275862068965516" y="498.1034482758621"/>
      <point x="52.275862068965516" y="250.48275862068968" type="curve" smooth="yes"/>
      <point x="52.275862068965516" y="83.62068965517241"/>
      <point x="115.55172413793102" y="-5.0"/>
    </contour>
  </outline>
</glyph>
<glyph name="eeMatra-tamil" format="2">
  <advance width="491.10344827586204"/>
  <unicode hex="0BC7"/>
  <note>
uni0BC7
</note>
  <outline>
    <contour>
      <point x="245.51724137931038" y="-5.0" type="curve" smooth="yes"/>
      <point x="342.7586206896552" y="-5.0"/>
      <point x="423.8620689655172" y="70.75862068965517"/>
      <point x="423.8620689655172" y="182.58620689655172" type="curve" smooth="yes"/>
      <point x="423.8620689655172" y="264.8620689655172"/>
      <point x="375.2068965517241" y="312.9655172413793"/>
      <point x="312.0" y="312.9655172413793" type="curve" smooth="yes"/>
      <point x="224.17241379310343" y="312.9655172413793"/>
      <point x="161.24137931034483" y="208.51724137931035"/>
      <point x="135.10344827586206" y="100.82758620689654" type="curve"/>
      <point x="168.20689655172413" y="73.72413793103449" type="line"/>
      <point x="189.3448275862069" y="160.27586206896552"/>
      <point x="228.58620689655174" y="240.17241379310343"/>
      <point x="274.37931034482756" y="240.17241379310343" type="curve" smooth="yes"/>
      <point x="308.1034482758621" y="240.17241379310343"/>
      <point x="325.7241379310345" y="214.3448275862069"/>
      <point x="325.7241379310345" y="165.10344827586206" type="curve" smooth="yes"/>
      <point x="325.7241379310345" y="104.0"/>
      <point x="290.17241379310343" y="52.86206896551724"/>
      <point x="233.7586206896552" y="52.86206896551724" type="curve" smooth="yes"/>
      <point x="158.65517241379308" y="52.86206896551724"/>
      <point x="119.13793103448276" y="161.31034482758622"/>
      <point x="119.13793103448276" y="311.7586206896552" type="curve" smooth="yes"/>
      <point x="119.13793103448276" y="490.17241379310343"/>
      <point x="241.0344827586207" y="762.2758620689655"/>
      <point x="379.6896551724138" y="762.2758620689655" type="curve" smooth="yes"/>
      <point x="419.0344827586207" y="762.2758620689655"/>
      <point x="441.551724137931" y="735.551724137931"/>
      <point x="441.551724137931" y="689.8620689655172" type="curve" smooth="yes"/>
      <point x="441.551724137931" y="634.6896551724138"/>
      <point x="414.0" y="574.9655172413793"/>
      <point x="362.0344827586207" y="574.9655172413793" type="curve" smooth="yes"/>
      <point x="307.86206896551727" y="574.9655172413793"/>
      <point x="303.9655172413793" y="679.1379310344828"/>
      <point x="321.51724137931035" y="760.4827586206897" type="curve"/>
      <point x="277.6896551724138" y="734.2068965517241" type="line"/>
      <point x="255.58620689655172" y="619.8275862068966"/>
      <point x="282.58620689655174" y="501.448275862069"/>
      <point x="379.0689655172414" y="501.448275862069" type="curve" smooth="yes"/>
      <point x="467.99999999999994" y="501.448275862069"/>
      <point x="536.8620689655172" y="583.2758620689656"/>
      <point x="536.8620689655172" y="683.7586206896552" type="curve" smooth="yes"/>
      <point x="536.8620689655172" y="771.4827586206897"/>
      <point x="481.03448275862064" y="819.4137931034483"/>
      <point x="400.8275862068965" y="819.4137931034483" type="curve" smooth="yes"/>
      <point x="208.20689655172416" y="819.4137931034483"/>
      <point x="63.55172413793103" y="520.0689655172414"/>
      <point x="63.55172413793103" y="306.6551724137931" type="curve" smooth="yes"/>
      <point x="63.55172413793103" y="118.62068965517241"/>
      <point x="127.10344827586206" y="-5.0"/>
    </contour>
  </outline>
</glyph>
